<svg xmlns="http://www.w3.org/2000/svg" width="76" height="76" viewBox="0 0 76 76">
  <g fill="none" fill-rule="evenodd">
    <rect width="76" height="76" fill="#DC0814"/>
    <g transform="translate(4 13)">
      <path fill="#000000" d="M0.100014478,2.6170523 C0.357830372,2.20336829 1.06252715,2.16889462 1.68128529,2.54810497 C2.31723116,2.91007848 2.60942251,3.54784134 2.36879434,3.96152536 C2.11097845,4.3407357 1.40628167,4.37520937 0.787523527,4.01323586 C0.151577657,3.65126234 -0.140613689,3.01349948 0.100014478,2.6170523 Z"/>
      <polyline fill="#000000" points="2.523 4.323 14.606 11.597 14.778 11.287 2.695 4.03"/>
      <path fill="#FFFFFF" d="M14.0392604,12.9419159 C13.8330077,13.2694157 13.7470691,13.6486261 13.7470691,14.0278364 C13.7470691,14.6483624 13.9876973,15.3033621 14.4002027,15.8894145 C14.8298959,16.4927037 15.4314663,17.0442824 16.1705385,17.4924401 L55.6163702,40.6932186 C56.5273197,41.2275605 57.5070201,41.5033498 58.3664064,41.5033498 C58.8648504,41.5033498 59.328919,41.4171657 59.7242367,41.2275605 C60.1195544,41.0379553 60.463309,40.762166 60.6867494,40.4001925 L67.3555872,29.5237502 C67.5618399,29.1962503 67.6649663,28.81704 67.6477785,28.4378297 C67.6477785,27.8173036 67.4071504,27.1795408 66.9774572,26.5762516 C66.5649518,25.9729624 65.9461936,25.4213837 65.2071214,24.973226 L25.7956652,1.77244744 C24.8847157,1.23810558 23.9050153,0.962316237 23.045629,0.962316237 C22.5471849,0.962316237 22.0831163,1.04850041 21.6877986,1.23810558 C21.2924809,1.41047392 20.9315387,1.70350012 20.7080982,2.06547363 L14.0392604,12.9419159 Z"/>
      <path fill="#000000" d="M21.1034158,2.30678932 C21.2752931,2.03099998 21.5502968,1.82415794 21.8768636,1.66902643 C22.2034304,1.51389493 22.5987481,1.44494759 23.045629,1.44494759 C23.8190767,1.44494759 24.7128384,1.68626327 25.555037,2.18613145 L65.0008687,25.38691 C65.6883777,25.7833572 66.238385,26.3004622 66.616515,26.8520409 C66.9946449,27.3863828 67.2008976,27.9551983 67.2008976,28.4378297 C67.2008976,28.7480927 67.1321467,29.023882 66.9774572,29.2651977 L60.3086194,40.1416399 C60.1367422,40.4174293 59.8789263,40.6415081 59.5523595,40.7794028 C59.2257927,40.9345343 58.830475,41.0034816 58.3835941,41.0034816 C57.6101464,41.0034816 56.7163847,40.762166 55.8741861,40.2622978 L16.4111667,17.0615192 C15.7236576,16.6478352 15.1736504,16.147967 14.7955204,15.5963883 C14.4173904,15.0620465 14.2111377,14.4932309 14.2111377,14.0105996 C14.2111377,13.7003366 14.2798886,13.4245472 14.4345781,13.1832316 L21.1034159,2.30678929 L20.7080982,2.06547361 L14.0392604,12.9419159 C13.8330077,13.2694157 13.7470691,13.6486261 13.7470691,14.0278364 C13.7470691,14.6483624 13.9876973,15.3033621 14.4002027,15.8894145 C14.8298959,16.4927037 15.4314663,17.0442824 16.1705385,17.4924401 L55.6163702,40.6932186 C56.5273197,41.2275605 57.5070201,41.5033498 58.3664064,41.5033498 C58.8648504,41.5033498 59.328919,41.4171657 59.7242367,41.2275605 C60.1195544,41.0379553 60.463309,40.762166 60.6867494,40.4001925 L67.3555872,29.5237502 C67.5618399,29.1962503 67.6649663,28.81704 67.6477785,28.4378297 C67.6477785,27.8173036 67.4071504,27.1795408 66.9774572,26.5762516 C66.5649518,25.9729624 65.9461936,25.4213837 65.2071214,24.973226 L25.7956652,1.77244744 C24.8847157,1.23810558 23.9050153,0.962316237 23.045629,0.962316237 C22.5471849,0.962316237 22.0831163,1.04850041 21.6877986,1.23810558 C21.2924809,1.41047392 20.9315387,1.70350012 20.7080982,2.06547363 L21.1034158,2.30678932 Z"/>
      <polygon fill="#000000" points="38.566 25.732 53.038 34.247 53.244 33.902 38.772 25.387"/>
      <polygon fill="#000000" points="41.007 25.921 41.901 24.422 44.307 25.835 43.43 27.266 41.007 25.921 40.336 26.007 43.602 27.921 44.994 25.663 41.729 23.749 40.336 26.007"/>
      <polygon fill="#000000" points="44.44 27.921 45.321 26.507 47.744 27.921 46.868 29.351 44.44 27.921 43.774 28.11 47.04 30.024 48.415 27.766 45.166 25.852 43.774 28.11"/>
      <polygon fill="#000000" points="45.923 25.559 46.816 24.06 49.223 25.473 48.346 26.904 45.923 25.559 45.252 25.645 48.518 27.559 49.893 25.301 46.644 23.387 45.252 25.645"/>
      <polygon fill="#000000" points="47.966 29.937 48.827 28.507 51.233 29.937 50.357 31.368 47.966 29.937 47.263 30.11 50.529 32.023 51.921 29.765 48.655 27.852 47.263 30.11"/>
      <path fill="#000000" d="M21.4299827,16.3892827 C21.22373,16.2686248 21.0518527,16.1134933 20.9487264,15.9583618 C20.8284123,15.8032303 20.7940368,15.6480988 20.7940368,15.527441 C20.7940368,15.4584936 20.8112246,15.3895463 20.8456,15.3378358 L26.1566074,6.66770829 C26.1909829,6.59876096 26.2597338,6.54705046 26.3284847,6.51257679 C26.4144233,6.47810312 26.5175497,6.44362945 26.6550515,6.44362945 C26.8784919,6.44362945 27.1534956,6.51257679 27.4113114,6.66770829 L40.7661747,14.5104678 C40.9724274,14.6311256 41.1443047,14.7862571 41.2474311,14.9413886 C41.3505574,15.0965201 41.4021206,15.2516516 41.4021206,15.3723095 C41.4021206,15.4412568 41.3849329,15.5102041 41.3505574,15.5619146 L36.0223623,24.2320422 C35.9879868,24.3009895 35.9192359,24.3354632 35.850485,24.3871737 C35.7645464,24.4216473 35.66142,24.456121 35.5239182,24.456121 C35.3004778,24.456121 35.0254742,24.3871737 34.7676583,24.2320422 L21.4299827,16.3892824 L21.2065422,16.8202033 L34.5442178,24.6457262 C34.8707846,24.8353313 35.2145391,24.9387523 35.5411059,24.9387523 C35.7301709,24.9387523 35.9020482,24.9042787 36.0567377,24.8353313 C36.2114273,24.766384 36.3489291,24.6457262 36.4520554,24.4905947 L41.7630628,15.8204672 C41.8490015,15.6825725 41.8833769,15.527441 41.8833769,15.3723095 C41.8833769,15.1309938 41.7802506,14.8724413 41.6427488,14.6655993 C41.4880592,14.4415204 41.2646188,14.2519153 41.0068029,14.0795469 L27.6519396,6.23678744 C27.3253728,6.04718227 26.9816183,5.94376127 26.6550515,5.94376127 C26.4659865,5.94376127 26.2941092,5.97823493 26.1394197,6.04718227 C25.9847302,6.11612961 25.8472284,6.23678744 25.744102,6.39191895 L20.4330946,15.0620465 C20.347156,15.1999411 20.3127805,15.3550726 20.3127805,15.5102041 C20.3127805,15.7687567 20.3987191,16.0100723 20.5705964,16.2341512 C20.7252859,16.45823 20.9487264,16.6478352 21.2065423,16.8202035 L21.4299827,16.3892827 Z"/>
      <polygon fill="#FFFFFF" points="37.243 8.84 44.015 10.563 41.488 16.424 33.925 15.631"/>
      <polygon fill="#000000" points="34.427 15.348 37.363 9.115 43.671 10.736 41.333 16.165 34.427 15.348 33.547 15.838 41.643 16.682 44.341 10.408 37.105 8.547 33.547 15.838"/>
      <polygon fill="#FFFFFF" points="45.562 11.011 51.869 13.545 48.243 21.905 47.607 17.165 42.88 16.527"/>
      <polygon fill="#000000" points="45.641 11.283 51.543 13.666 48.363 21.009 47.813 16.958 43.241 16.338 45.641 11.283 45.482 10.737 42.519 16.734 47.383 17.389 48.123 22.801 52.179 13.407 45.482 10.737"/>
      <polygon fill="#FFFFFF" points="53.743 14.855 46.816 27.18 52.179 29.076 58.641 17.544"/>
      <polygon fill="#000000" points="53.657 14.528 46.472 27.317 52.299 29.386 58.985 17.441 53.657 14.528 53.85 15.16 58.315 17.63 52.076 28.783 47.177 27.042 53.85 15.16"/>
      <polygon fill="#FFFFFF" points="60.377 19.285 55.169 29.248 58.487 30.817 64.159 22.767"/>
      <polygon fill="#000000" points="60.309 18.889 54.843 29.351 58.573 31.11 64.485 22.732 60.309 18.889 60.435 19.689 63.832 22.801 58.401 30.506 55.496 29.127 60.435 19.689"/>
      <path fill="#FFFFFF" d="M57.5070201,40.4346661 L43.9459041,32.3678278 L40.4911711,27.4725669 L35.5926691,26.8348041 L36.8473731,25.5765152 L35.5926691,24.1630948 L39.2364671,25.4213837 L46.4896876,23.0427006 L46.1631208,18.7852026 L31.3473007,16.7167825 L24.2487698,28.093093 L37.5005067,45.4850585 L36.4004923,73.2191244 L55.5476193,73.2191244 L54.0522871,44.3646643 C54.0350994,44.3819011 56.132002,41.899797 57.5070201,40.4346661"/>
      <path fill="#000000" d="M57.8504347,40.3829561 L44.0869657,32.1954595 L40.6031948,27.2484881 L36.0897379,26.6624357 L37.1709082,25.5765152 L36.3643208,24.6801998 L39.2131187,25.6626994 L46.6955035,23.1978321 L46.3522749,18.5611238 L31.2330524,16.45823 L23.9737662,28.1103298 L37.2395539,45.5712427 L36.1412222,73.2363612 L55.7567402,73.2363612 L54.2465341,44.3646643 L57.850435,40.3829556 L57.0970157,40.503908 C55.7069397,41.9690389 53.8174982,44.2267696 53.8174982,44.2267696 L55.2590586,72.7537299 L36.6217423,72.7537299 L37.7029126,45.4161112 L24.5229321,28.0758561 L31.4389896,16.975335 L45.8889162,18.9920446 L46.1806605,22.8703323 L39.1959573,25.180068 L35.6435407,23.939016 L35.3861192,24.3182263 L36.5016123,25.5592784 L35.0600519,27.0071724 L40.3286119,27.6966458 L43.7437371,32.557433 L57.0970157,40.503908"/>
    </g>
  </g>
</svg>
