<svg xmlns="http://www.w3.org/2000/svg" width="100" height="140" viewBox="0 0 100 140">
  <g fill="none" fill-rule="evenodd">
    <g transform="translate(4.667 23.572)">
      <path fill="#000000" d="M0.100014478,2.6170523 C0.357830372,2.20336829 1.06252715,2.16889462 1.68128529,2.54810497 C2.31723116,2.91007848 2.60942251,3.54784134 2.36879434,3.96152536 C2.11097845,4.3407357 1.40628167,4.37520937 0.787523527,4.01323586 C0.151577657,3.65126234 -0.140613689,3.01349948 0.100014478,2.6170523 Z"/>
      <polyline fill="#000000" points="2.523 4.323 14.606 11.597 14.778 11.287 2.695 4.03"/>
      <path fill="#FFFFFF" d="M14.0392604,12.9419159 C13.8330077,13.2694157 13.7470691,13.6486261 13.7470691,14.0278364 C13.7470691,14.6483624 13.9876973,15.3033621 14.4002027,15.8894145 C14.8298959,16.4927037 15.4314663,17.0442824 16.1705385,17.4924401 L55.6163702,40.6932186 C56.5273197,41.2275605 57.5070201,41.5033498 58.3664064,41.5033498 C58.8648504,41.5033498 59.328919,41.4171657 59.7242367,41.2275605 C60.1195544,41.0379553 60.463309,40.762166 60.6867494,40.4001925 L67.3555872,29.5237502 C67.5618399,29.1962503 67.6649663,28.81704 67.6477785,28.4378297 C67.6477785,27.8173036 67.4071504,27.1795408 66.9774572,26.5762516 C66.5649518,25.9729624 65.9461936,25.4213837 65.2071214,24.973226 L25.7956652,1.77244744 C24.8847157,1.23810558 23.9050153,0.962316237 23.045629,0.962316237 C22.5471849,0.962316237 22.0831163,1.04850041 21.6877986,1.23810558 C21.2924809,1.41047392 20.9315387,1.70350012 20.7080982,2.06547363 L14.0392604,12.9419159 Z"/>
      <path fill="#000000" d="M21.1034158,2.30678932 C21.2752931,2.03099998 21.5502968,1.82415794 21.8768636,1.66902643 C22.2034304,1.51389493 22.5987481,1.44494759 23.045629,1.44494759 C23.8190767,1.44494759 24.7128384,1.68626327 25.555037,2.18613145 L65.0008687,25.38691 C65.6883777,25.7833572 66.238385,26.3004622 66.616515,26.8520409 C66.9946449,27.3863828 67.2008976,27.9551983 67.2008976,28.4378297 C67.2008976,28.7480927 67.1321467,29.023882 66.9774572,29.2651977 L60.3086194,40.1416399 C60.1367422,40.4174293 59.8789263,40.6415081 59.5523595,40.7794028 C59.2257927,40.9345343 58.830475,41.0034816 58.3835941,41.0034816 C57.6101464,41.0034816 56.7163847,40.762166 55.8741861,40.2622978 L16.4111667,17.0615192 C15.7236576,16.6478352 15.1736504,16.147967 14.7955204,15.5963883 C14.4173904,15.0620465 14.2111377,14.4932309 14.2111377,14.0105996 C14.2111377,13.7003366 14.2798886,13.4245472 14.4345781,13.1832316 L21.1034159,2.30678929 L20.7080982,2.06547361 L14.0392604,12.9419159 C13.8330077,13.2694157 13.7470691,13.6486261 13.7470691,14.0278364 C13.7470691,14.6483624 13.9876973,15.3033621 14.4002027,15.8894145 C14.8298959,16.4927037 15.4314663,17.0442824 16.1705385,17.4924401 L55.6163702,40.6932186 C56.5273197,41.2275605 57.5070201,41.5033498 58.3664064,41.5033498 C58.8648504,41.5033498 59.328919,41.4171657 59.7242367,41.2275605 C60.1195544,41.0379553 60.463309,40.762166 60.6867494,40.4001925 L67.3555872,29.5237502 C67.5618399,29.1962503 67.6649663,28.81704 67.6477785,28.4378297 C67.6477785,27.8173036 67.4071504,27.1795408 66.9774572,26.5762516 C66.5649518,25.9729624 65.9461936,25.4213837 65.2071214,24.973226 L25.7956652,1.77244744 C24.8847157,1.23810558 23.9050153,0.962316237 23.045629,0.962316237 C22.5471849,0.962316237 22.0831163,1.04850041 21.6877986,1.23810558 C21.2924809,1.41047392 20.9315387,1.70350012 20.7080982,2.06547363 L21.1034158,2.30678932 Z"/>
      <polygon fill="#000000" points="38.566 25.732 53.038 34.247 53.244 33.902 38.772 25.387"/>
      <polygon fill="#000000" points="41.007 25.921 41.901 24.422 44.307 25.835 43.43 27.266 41.007 25.921 40.336 26.007 43.602 27.921 44.994 25.663 41.729 23.749 40.336 26.007"/>
      <polygon fill="#000000" points="44.44 27.921 45.321 26.507 47.744 27.921 46.868 29.351 44.44 27.921 43.774 28.11 47.04 30.024 48.415 27.766 45.166 25.852 43.774 28.11"/>
      <polygon fill="#000000" points="45.923 25.559 46.816 24.06 49.223 25.473 48.346 26.904 45.923 25.559 45.252 25.645 48.518 27.559 49.893 25.301 46.644 23.387 45.252 25.645"/>
      <polygon fill="#000000" points="47.966 29.937 48.827 28.507 51.233 29.937 50.357 31.368 47.966 29.937 47.263 30.11 50.529 32.023 51.921 29.765 48.655 27.852 47.263 30.11"/>
      <path fill="#000000" d="M21.4299827,16.3892827 C21.22373,16.2686248 21.0518527,16.1134933 20.9487264,15.9583618 C20.8284123,15.8032303 20.7940368,15.6480988 20.7940368,15.527441 C20.7940368,15.4584936 20.8112246,15.3895463 20.8456,15.3378358 L26.1566074,6.66770829 C26.1909829,6.59876096 26.2597338,6.54705046 26.3284847,6.51257679 C26.4144233,6.47810312 26.5175497,6.44362945 26.6550515,6.44362945 C26.8784919,6.44362945 27.1534956,6.51257679 27.4113114,6.66770829 L40.7661747,14.5104678 C40.9724274,14.6311256 41.1443047,14.7862571 41.2474311,14.9413886 C41.3505574,15.0965201 41.4021206,15.2516516 41.4021206,15.3723095 C41.4021206,15.4412568 41.3849329,15.5102041 41.3505574,15.5619146 L36.0223623,24.2320422 C35.9879868,24.3009895 35.9192359,24.3354632 35.850485,24.3871737 C35.7645464,24.4216473 35.66142,24.456121 35.5239182,24.456121 C35.3004778,24.456121 35.0254742,24.3871737 34.7676583,24.2320422 L21.4299827,16.3892824 L21.2065422,16.8202033 L34.5442178,24.6457262 C34.8707846,24.8353313 35.2145391,24.9387523 35.5411059,24.9387523 C35.7301709,24.9387523 35.9020482,24.9042787 36.0567377,24.8353313 C36.2114273,24.766384 36.3489291,24.6457262 36.4520554,24.4905947 L41.7630628,15.8204672 C41.8490015,15.6825725 41.8833769,15.527441 41.8833769,15.3723095 C41.8833769,15.1309938 41.7802506,14.8724413 41.6427488,14.6655993 C41.4880592,14.4415204 41.2646188,14.2519153 41.0068029,14.0795469 L27.6519396,6.23678744 C27.3253728,6.04718227 26.9816183,5.94376127 26.6550515,5.94376127 C26.4659865,5.94376127 26.2941092,5.97823493 26.1394197,6.04718227 C25.9847302,6.11612961 25.8472284,6.23678744 25.744102,6.39191895 L20.4330946,15.0620465 C20.347156,15.1999411 20.3127805,15.3550726 20.3127805,15.5102041 C20.3127805,15.7687567 20.3987191,16.0100723 20.5705964,16.2341512 C20.7252859,16.45823 20.9487264,16.6478352 21.2065423,16.8202035 L21.4299827,16.3892827 Z"/>
      <polygon fill="#FFFFFF" points="37.243 8.84 44.015 10.563 41.488 16.424 33.925 15.631"/>
      <polygon fill="#000000" points="34.427 15.348 37.363 9.115 43.671 10.736 41.333 16.165 34.427 15.348 33.547 15.838 41.643 16.682 44.341 10.408 37.105 8.547 33.547 15.838"/>
      <polygon fill="#FFFFFF" points="45.562 11.011 51.869 13.545 48.243 21.905 47.607 17.165 42.88 16.527"/>
      <polygon fill="#000000" points="45.641 11.283 51.543 13.666 48.363 21.009 47.813 16.958 43.241 16.338 45.641 11.283 45.482 10.737 42.519 16.734 47.383 17.389 48.123 22.801 52.179 13.407 45.482 10.737"/>
      <polygon fill="#FFFFFF" points="53.743 14.855 46.816 27.18 52.179 29.076 58.641 17.544"/>
      <polygon fill="#000000" points="53.657 14.528 46.472 27.317 52.299 29.386 58.985 17.441 53.657 14.528 53.85 15.16 58.315 17.63 52.076 28.783 47.177 27.042 53.85 15.16"/>
      <polygon fill="#FFFFFF" points="60.377 19.285 55.169 29.248 58.487 30.817 64.159 22.767"/>
      <polygon fill="#000000" points="60.309 18.889 54.843 29.351 58.573 31.11 64.485 22.732 60.309 18.889 60.435 19.689 63.832 22.801 58.401 30.506 55.496 29.127 60.435 19.689"/>
      <path fill="#FFFFFF" d="M57.5070201,40.4346661 L43.9459041,32.3678278 L40.4911711,27.4725669 L35.5926691,26.8348041 L36.8473731,25.5765152 L35.5926691,24.1630948 L39.2364671,25.4213837 L46.4896876,23.0427006 L46.1631208,18.7852026 L31.3473007,16.7167825 L24.2487698,28.093093 L37.5005067,45.4850585 L36.4004923,73.2191244 L55.5476193,73.2191244 L54.0522871,44.3646643 C54.0350994,44.3819011 56.132002,41.899797 57.5070201,40.4346661"/>
      <path fill="#000000" d="M57.8504347,40.3829561 L44.0869657,32.1954595 L40.6031948,27.2484881 L36.0897379,26.6624357 L37.1709082,25.5765152 L36.3643208,24.6801998 L39.2131187,25.6626994 L46.6955035,23.1978321 L46.3522749,18.5611238 L31.2330524,16.45823 L23.9737662,28.1103298 L37.2395539,45.5712427 L36.1412222,73.2363612 L55.7567402,73.2363612 L54.2465341,44.3646643 L57.850435,40.3829556 L57.0970157,40.503908 C55.7069397,41.9690389 53.8174982,44.2267696 53.8174982,44.2267696 L55.2590586,72.7537299 L36.6217423,72.7537299 L37.7029126,45.4161112 L24.5229321,28.0758561 L31.4389896,16.975335 L45.8889162,18.9920446 L46.1806605,22.8703323 L39.1959573,25.180068 L35.6435407,23.939016 L35.3861192,24.3182263 L36.5016123,25.5592784 L35.0600519,27.0071724 L40.3286119,27.6966458 L43.7437371,32.557433 L57.0970157,40.503908"/>
    </g>
    <path fill="#000000" d="M69.3868508,0.426206503 L66.9290059,0.426206503 L66.9290059,5.52830937 L65.2789842,0.426206503 L62.8211393,0.426206503 L62.8211393,11.7508064 L65.2789842,11.7508064 L65.2789842,6.59699308 L66.8086918,11.7508064 L69.3868508,11.7508064 L69.3868508,0.426206503 Z M61.7555003,7.0623876 L61.7555003,5.11462535 C61.7555003,3.95975747 61.7211249,3.13238944 61.6695617,2.66699492 C61.6179985,2.20160041 61.4461212,1.77067956 61.1539299,1.37423237 C60.8617386,0.977785191 60.4664208,0.684759013 59.9851645,0.477917005 C59.5039082,0.28831183 58.9539009,0.184890826 58.3523305,0.184890826 C57.7163847,0.184890826 57.1491897,0.28831183 56.6679334,0.495153839 C56.186677,0.701995847 55.808547,1.01225886 55.5335434,1.39146921 C55.2585398,1.78791639 55.0866625,2.21883724 55.0350994,2.68423176 C54.9835362,3.14962628 54.9491607,3.95975747 54.9491607,5.09738852 L54.9491607,7.04515076 C54.9491607,8.21725548 54.9835362,9.02738667 55.0350994,9.49278119 C55.0866625,9.95817571 55.2585398,10.3890966 55.5507311,10.7855437 C55.8429225,11.1819909 56.2382402,11.4750171 56.7194965,11.6818591 C57.2007529,11.8714643 57.7507601,11.9748853 58.3523305,11.9748853 C58.9882764,11.9748853 59.5382836,11.8714643 60.01954,11.6646223 C60.5007963,11.4577803 60.8789263,11.1475173 61.1539299,10.7510701 C61.4461212,10.3718597 61.6179985,9.95817571 61.6695617,9.47554436 C61.7211249,9.01014984 61.7555003,8.20001864 61.7555003,7.0623876 Z M58.8163991,8.54475532 C58.8163991,9.19975501 58.7820237,9.63067586 58.7304605,9.8030442 C58.6788973,9.97541254 58.5413955,10.0788335 58.3523305,10.0788335 C58.1632655,10.0788335 58.0257637,10.0098862 57.9742005,9.85475471 C57.9226374,9.6996232 57.8882619,9.30317602 57.8882619,8.64817633 L57.8882619,3.35646828 C57.8882619,2.77041593 57.9398251,2.42567925 58.008576,2.30502141 C58.0945146,2.18436357 58.2148287,2.13265307 58.3695182,2.13265307 C58.5585832,2.13265307 58.6788973,2.20160041 58.7304605,2.35673191 C58.7820237,2.51186342 58.8163991,2.83936326 58.8163991,3.37370512 L58.8163991,8.54475532 L58.8163991,8.54475532 L58.8163991,8.54475532 Z M53.6944567,11.7508064 L53.6944567,0.426206503 L50.7553555,0.426206503 L50.7553555,11.7508064 L53.6944567,11.7508064 Z M49.724092,2.66699492 L49.724092,0.391732834 L43.2615069,0.391732834 L43.2615069,2.66699492 L45.014655,2.66699492 L45.014655,11.7680433 L47.9709439,11.7680433 L47.9709439,2.66699492 L49.724092,2.66699492 Z M42.0583661,7.99317663 L42.0583661,0.426206503 L39.1192649,0.426206503 L39.1192649,8.76883416 C39.1192649,9.33764969 39.0848894,9.68238637 39.0333262,9.83751787 C38.9817631,9.99264938 38.861449,10.0615967 38.672384,10.0615967 C38.5176945,10.0615967 38.3973804,9.99264938 38.3458172,9.85475471 C38.294254,9.71686003 38.2598786,9.40659702 38.2598786,8.90672884 L38.2598786,0.408969669 L35.3207774,0.408969669 L35.3207774,7.1140981 C35.3207774,8.38962382 35.3379651,9.23422868 35.3895283,9.63067586 C35.4410915,10.027123 35.5785933,10.4063334 35.8364092,10.7683069 C36.0942251,11.1302804 36.472355,11.4233066 36.9879868,11.6473854 C37.5036186,11.8714643 38.105189,11.9748853 38.7755104,11.9748853 C39.3942685,11.9748853 39.9099003,11.8887011 40.3739689,11.6990959 C40.8208498,11.5094908 41.181792,11.2337014 41.4567956,10.8717279 C41.748987,10.5097544 41.9208643,10.1477809 41.9724274,9.8030442 C42.0239906,9.45830752 42.0583661,8.85501833 42.0583661,7.99317663 Z M34.4785788,11.7508064 L34.4785788,9.47554436 L32.708243,9.47554436 L32.708243,0.408969669 L29.7691418,0.408969669 L29.7691418,11.7508064 L34.4785788,11.7508064 Z M28.6863151,7.0623876 L28.6863151,5.11462535 C28.6863151,3.95975747 28.6519396,3.13238944 28.6003764,2.66699492 C28.5488133,2.20160041 28.376936,1.77067956 28.0847446,1.37423237 C27.7925533,0.977785191 27.3972356,0.684759013 26.9159793,0.477917005 C26.4347229,0.28831183 25.8847157,0.184890826 25.2831453,0.184890826 C24.6471994,0.184890826 24.0800044,0.28831183 23.5987481,0.495153839 C23.1174918,0.701995847 22.7393618,1.01225886 22.4643582,1.39146921 C22.1721668,1.78791639 22.0174773,2.21883724 21.9659141,2.68423176 C21.9143509,3.14962628 21.8971632,3.95975747 21.8971632,5.09738852 L21.8971632,7.04515076 C21.8971632,8.21725548 21.9315387,9.02738667 21.9831018,9.49278119 C22.034665,9.95817571 22.22373,10.3890966 22.5159214,10.7855437 C22.8081127,11.1819909 23.2034304,11.4750171 23.6846867,11.6818591 C24.1659431,11.8714643 24.7159503,11.9748853 25.3175207,11.9748853 C25.9534666,11.9748853 26.5206616,11.8714643 27.0019179,11.6646223 C27.4831742,11.4577803 27.8613042,11.1475173 28.1534956,10.7510701 C28.376936,10.3718597 28.5488133,9.95817571 28.6003764,9.47554436 C28.6519396,9.01014984 28.6863151,8.20001864 28.6863151,7.0623876 Z M25.7472139,8.54475532 C25.7472139,9.19975501 25.7128384,9.63067586 25.6612752,9.8030442 C25.6097121,9.97541254 25.4722103,10.0788335 25.2831453,10.0788335 C25.0768926,10.0788335 24.9565785,10.0098862 24.9050153,9.85475471 C24.8534521,9.6996232 24.8190767,9.30317602 24.8190767,8.64817633 L24.8190767,3.35646828 C24.8190767,2.77041593 24.8706398,2.42567925 24.9393907,2.30502141 C25.0253294,2.18436357 25.1456435,2.13265307 25.300333,2.13265307 C25.489398,2.13265307 25.6097121,2.20160041 25.6612752,2.35673191 C25.7128384,2.51186342 25.7472139,2.83936326 25.7472139,3.37370512 L25.7472139,8.54475532 L25.7472139,8.54475532 L25.7472139,8.54475532 Z M21.4674701,0.426206503 L18.3736793,0.426206503 C18.3736793,0.426206503 17.8408598,6.18330906 17.6861703,8.35515015 C17.5314807,6.2005459 17.2736649,3.56331029 16.9127226,0.426206503 L13.8189319,0.426206503 L15.5205168,11.7508064 L19.9721379,11.7508064 L21.4674701,0.426206503 Z M13.6470546,11.7508064 L13.6470546,9.47554436 L11.4985888,9.47554436 L11.4985888,6.99344026 L13.3376755,6.99344026 L13.3376755,4.83883601 L11.4985888,4.83883601 L11.4985888,2.68423176 L13.4579896,2.68423176 L13.4579896,0.408969669 L8.55948766,0.408969669 L8.55948766,11.7508064 L13.6470546,11.7508064 Z M7.42509773,11.7508064 L7.42509773,8.76883416 C7.42509773,7.85528196 7.40791,7.30370327 7.35634682,7.09686126 C7.30478364,6.89001926 7.18446956,6.66594041 6.97821685,6.42462474 C6.77196413,6.18330906 6.39383415,5.99370389 5.80945146,5.83857238 C6.44539733,5.78686188 6.87509049,5.59725671 7.09853093,5.28699369 C7.32197137,4.97673068 7.42509773,4.39067833 7.42509773,3.51159979 C7.42509773,2.54633709 7.27040819,1.83962689 6.96102912,1.40870604 C6.65165005,0.960548357 6.25633234,0.684759013 5.75788828,0.581338009 C5.25944422,0.477917005 4.33130701,0.426206503 2.93910118,0.426206503 L0.859386311,0.426206503 L0.859386311,11.7508064 L3.7984875,11.7508064 L3.7984875,6.64870358 C4.1938052,6.64870358 4.45162109,6.71765092 4.53755972,6.87278242 C4.64068608,7.01067709 4.67506153,7.38988744 4.67506153,7.99317663 L4.67506153,11.7508064 L7.42509773,11.7508064 Z M4.69224926,3.85633647 C4.69224926,4.35620466 4.62349835,4.64923084 4.50318427,4.75265184 C4.36568246,4.83883601 4.14224202,4.89054651 3.81567522,4.89054651 L3.81567522,2.35673191 C4.15942975,2.35673191 4.38287019,2.40844241 4.520372,2.52910025 C4.64068608,2.64975809 4.70943698,2.87383693 4.70943698,3.23581045 L4.70943698,3.85633647 L4.69224926,3.85633647 L4.69224926,3.85633647 Z" transform="translate(16.354 103.625)"/>
    <g transform="translate(16.354 81.968)">
      <g fill="#000000" fill-opacity=".2" transform="translate(1.547 .726)">
        <path d="M8.04385587,18.8570964 L1.32345492,18.8570964 C0.825010859,18.8570964 0.378129977,18.5640702 0.189064988,18.0986757 L0.0515631787,17.7884127 C-0.0515631787,17.547097 -0.0687509049,17.2713077 8.5348395e-15,17.0127552 L4.12505429,1.30999938 C4.2625561,0.77565753 4.74381244,0.396447182 5.3110074,0.396447182 L13.9048705,0.396447182 C16.8095962,0.396447182 18.6143075,0.982499539 19.5940079,2.24078842 C20.2987047,3.15434062 20.4705819,4.34368217 20.092452,5.73986573 C19.6799465,7.32565445 18.8033725,8.53223284 17.4971053,9.34236403 C17.6689826,9.49749554 17.8236721,9.66986388 17.9611739,9.85946905 C18.6143075,10.7557844 18.7518093,11.9278891 18.3736793,13.3413095 C17.4627298,16.8403868 13.6986178,18.8570964 8.04385587,18.8570964 L8.04385587,18.8570964 Z M9.31574761,12.2381521 L9.07511945,13.1517044 C9.96888121,13.0482833 10.0720076,12.669073 10.1407585,12.4105205 C10.1579462,12.3760468 10.1579462,12.3415732 10.1579462,12.3070995 C10.0376321,12.2726258 9.79700395,12.2381521 9.40168624,12.2381521 L9.31574761,12.2381521 L9.31574761,12.2381521 Z M10.9313939,6.06736557 L10.7767043,6.65341793 C11.3095239,6.54999692 11.4470257,6.30868125 11.4985888,6.08460241 C11.3954625,6.06736557 11.2579607,6.06736557 11.051708,6.06736557 L10.9313939,6.06736557 L10.9313939,6.06736557 Z"/>
        <path d="M26.4862861,19.1673594 L26.2628457,19.1673594 L26.056593,19.1673594 C22.8424881,19.1673594 20.6940224,18.3744651 19.4393184,16.7542027 C17.8236721,14.6513089 18.2877407,11.8072313 18.9408743,9.30789037 C19.8518238,5.86052356 21.3643437,0.0861841701 30.6457159,0.0861841701 C34.1004488,0.0861841701 36.4036041,0.879078535 37.6411204,2.49934093 C39.3427053,4.70565569 38.5520699,7.73933847 37.9676872,9.94565322 C36.850485,14.2376249 34.530142,19.1673594 26.4862861,19.1673594 L26.4862861,19.1673594 Z M26.744102,13.0310465 C26.7956652,13.0482833 26.933167,13.082757 27.2425461,13.082757 C28.4628746,13.082757 28.8066291,12.5484152 29.6488277,9.30789037 C29.9066436,8.30815399 30.3535245,6.65341793 30.198835,6.20526024 C30.1472718,6.18802341 29.9925823,6.15354974 29.7003909,6.15354974 C28.4800623,6.15354974 28.1363078,6.6878916 27.2941092,9.92841639 C27.0191056,10.9281528 26.5894125,12.5828888 26.744102,13.0310465 L26.744102,13.0310465 Z"/>
        <path d="M41.9896152,19.1673594 C39.8239617,19.1673594 37.7270591,18.5813071 36.3864164,17.6160444 C35.973911,17.3230182 35.784846,16.8059132 35.9223478,16.306045 L36.8161096,12.9276255 C36.9536114,12.3932837 37.41768,12.0313101 37.9676872,12.0140733 L38.6208208,11.9968365 C38.9301999,11.9795996 39.2052035,12.1002575 39.4458317,12.2898626 C40.116153,12.8586782 41.3021061,13.2206517 42.5224347,13.2206517 C43.5193228,13.2206517 44.0865178,13.082757 44.2927705,12.9276255 C43.9490159,12.7035467 43.2443192,12.4105205 42.7458751,12.2036785 C40.6145971,11.3245999 37.03955,9.85946905 38.1223768,5.79157623 C39.0848894,2.15460425 42.6083733,0.0861841701 47.8334421,0.0861841701 C50.7553555,0.0861841701 52.4913159,0.586052356 54.0038358,1.84434124 C54.364778,2.15460425 54.5194676,2.6372356 54.3991535,3.10263012 L53.5053917,6.49828642 C53.3678899,7.03262828 52.8866336,7.39460179 52.3366263,7.41183862 L51.8725577,7.41183862 C51.5459909,7.41183862 51.2366119,7.29118079 50.9959837,7.04986511 C50.4631642,6.51552326 49.345962,6.15354974 48.1428211,6.15354974 C47.4209366,6.15354974 46.9396803,6.22249708 46.6303012,6.32591808 C46.9396803,6.46381275 47.3006226,6.61894426 47.5928139,6.72236526 C49.6381533,7.5497333 53.4366408,9.08381152 52.3538141,13.1517044 C51.6319296,15.9095978 49.2428356,19.1673594 41.9896152,19.1673594 L41.9896152,19.1673594 Z"/>
        <path d="M56.9945002,19.1673594 C54.8288466,19.1673594 52.731944,18.5813071 51.3913014,17.6160444 C50.978796,17.3230182 50.789731,16.8059132 50.9272328,16.306045 C50.9272328,16.306045 51.5288032,14.0135461 51.8209946,12.9276255 C51.9584964,12.3932837 52.422565,12.0313101 52.9725722,12.0140733 L53.6085181,11.9968365 C53.9007094,11.9795996 54.1929008,12.1002575 54.4163412,12.2898626 C55.0866625,12.8586782 56.2726157,13.2206517 57.4929442,13.2206517 C58.4898323,13.2206517 59.0398396,13.082757 59.26328,12.9448623 C58.9195255,12.7207835 58.2148287,12.4277573 57.7163847,12.2209153 C55.5851066,11.3418368 52.0272473,9.85946905 53.0928863,5.80881306 C54.055399,2.17184109 57.5788828,0.103421004 62.8039516,0.103421004 C65.7258651,0.103421004 67.4618254,0.60328919 68.9743453,1.86157807 C69.3352876,2.17184109 69.4899771,2.65447244 69.369663,3.11986696 C69.369663,3.11986696 68.7337172,5.49855005 68.4759013,6.51552326 C68.3383995,7.04986511 67.8743309,7.41183862 67.3243236,7.42907546 L66.860255,7.41183862 C66.5336882,7.41183862 66.2071214,7.29118079 65.9664932,7.04986511 C65.416486,6.49828642 64.2992838,6.15354974 63.1305184,6.15354974 C62.4086339,6.15354974 61.9273776,6.22249708 61.6179985,6.32591808 C61.9273776,6.46381275 62.2883198,6.61894426 62.5805112,6.72236526 C64.6258506,7.5497333 68.4243381,9.08381152 67.3415113,13.1517044 C66.6368146,15.9095978 64.2649083,19.1673594 56.9945002,19.1673594 L56.9945002,19.1673594 Z"/>
      </g>
      <g fill="#FFFFFF" transform="translate(.688 .037)">
        <path d="M8.04385587,18.8570964 L1.32345492,18.8570964 C0.825010859,18.8570964 0.378129977,18.5640702 0.189064988,18.0986757 L0.0515631787,17.7884127 C-0.0515631787,17.547097 -0.0687509049,17.2713077 8.5348395e-15,17.0127552 L4.12505429,1.30999938 C4.2625561,0.77565753 4.74381244,0.396447182 5.3110074,0.396447182 L13.9048705,0.396447182 C16.8095962,0.396447182 18.6143075,0.982499539 19.5940079,2.24078842 C20.2987047,3.15434062 20.4705819,4.34368217 20.092452,5.73986573 C19.6799465,7.32565445 18.8033725,8.53223284 17.4971053,9.34236403 C17.6689826,9.49749554 17.8236721,9.66986388 17.9611739,9.85946905 C18.6143075,10.7557844 18.7518093,11.9278891 18.3736793,13.3413095 C17.4627298,16.8403868 13.6986178,18.8570964 8.04385587,18.8570964 L8.04385587,18.8570964 Z M9.31574761,12.2381521 L9.07511945,13.1517044 C9.96888121,13.0482833 10.0720076,12.669073 10.1407585,12.4105205 C10.1579462,12.3760468 10.1579462,12.3415732 10.1579462,12.3070995 C10.0376321,12.2726258 9.79700395,12.2381521 9.40168624,12.2381521 L9.31574761,12.2381521 L9.31574761,12.2381521 Z M10.9313939,6.06736557 L10.7767043,6.65341793 C11.3095239,6.54999692 11.4470257,6.30868125 11.4985888,6.08460241 C11.3954625,6.06736557 11.2579607,6.06736557 11.051708,6.06736557 L10.9313939,6.06736557 L10.9313939,6.06736557 Z"/>
        <path d="M26.4862861,19.1673594 L26.2628457,19.1673594 L26.056593,19.1673594 C22.8424881,19.1673594 20.6940224,18.3744651 19.4393184,16.7542027 C17.8236721,14.6513089 18.2877407,11.8072313 18.9408743,9.30789037 C19.8518238,5.86052356 21.3643437,0.0861841701 30.6457159,0.0861841701 C34.1004488,0.0861841701 36.4036041,0.879078535 37.6411204,2.49934093 C39.3427053,4.70565569 38.5520699,7.73933847 37.9676872,9.94565322 C36.850485,14.2376249 34.530142,19.1673594 26.4862861,19.1673594 L26.4862861,19.1673594 Z M26.744102,13.0310465 C26.7956652,13.0482833 26.933167,13.082757 27.2425461,13.082757 C28.4628746,13.082757 28.8066291,12.5484152 29.6488277,9.30789037 C29.9066436,8.30815399 30.3535245,6.65341793 30.198835,6.20526024 C30.1472718,6.18802341 29.9925823,6.15354974 29.7003909,6.15354974 C28.4800623,6.15354974 28.1363078,6.6878916 27.2941092,9.92841639 C27.0191056,10.9281528 26.5894125,12.5828888 26.744102,13.0310465 L26.744102,13.0310465 Z"/>
        <path d="M41.9896152,19.1673594 C39.8239617,19.1673594 37.7270591,18.5813071 36.3864164,17.6160444 C35.973911,17.3230182 35.784846,16.8059132 35.9223478,16.306045 L36.8161096,12.9276255 C36.9536114,12.3932837 37.41768,12.0313101 37.9676872,12.0140733 L38.6208208,11.9968365 C38.9301999,11.9795996 39.2052035,12.1002575 39.4458317,12.2898626 C40.116153,12.8586782 41.3021061,13.2206517 42.5224347,13.2206517 C43.5193228,13.2206517 44.0865178,13.082757 44.2927705,12.9276255 C43.9490159,12.7035467 43.2443192,12.4105205 42.7458751,12.2036785 C40.6145971,11.3245999 37.03955,9.85946905 38.1223768,5.79157623 C39.0848894,2.15460425 42.6083733,0.0861841701 47.8334421,0.0861841701 C50.7553555,0.0861841701 52.4913159,0.586052356 54.0038358,1.84434124 C54.364778,2.15460425 54.5194676,2.6372356 54.3991535,3.10263012 L53.5053917,6.49828642 C53.3678899,7.03262828 52.8866336,7.39460179 52.3366263,7.41183862 L51.8725577,7.41183862 C51.5459909,7.41183862 51.2366119,7.29118079 50.9959837,7.04986511 C50.4631642,6.51552326 49.345962,6.15354974 48.1428211,6.15354974 C47.4209366,6.15354974 46.9396803,6.22249708 46.6303012,6.32591808 C46.9396803,6.46381275 47.3006226,6.61894426 47.5928139,6.72236526 C49.6381533,7.5497333 53.4366408,9.08381152 52.3538141,13.1517044 C51.6319296,15.9095978 49.2428356,19.1673594 41.9896152,19.1673594 L41.9896152,19.1673594 Z"/>
        <path d="M56.9945002,19.1673594 C54.8288466,19.1673594 52.731944,18.5813071 51.3913014,17.6160444 C50.978796,17.3230182 50.789731,16.8059132 50.9272328,16.306045 C50.9272328,16.306045 51.5288032,14.0135461 51.8209946,12.9276255 C51.9584964,12.3932837 52.422565,12.0313101 52.9725722,12.0140733 L53.6085181,11.9968365 C53.9007094,11.9795996 54.1929008,12.1002575 54.4163412,12.2898626 C55.0866625,12.8586782 56.2726157,13.2206517 57.4929442,13.2206517 C58.4898323,13.2206517 59.0398396,13.082757 59.26328,12.9448623 C58.9195255,12.7207835 58.2148287,12.4277573 57.7163847,12.2209153 C55.5851066,11.3418368 52.0272473,9.85946905 53.0928863,5.80881306 C54.055399,2.17184109 57.5788828,0.103421004 62.8039516,0.103421004 C65.7258651,0.103421004 67.4618254,0.60328919 68.9743453,1.86157807 C69.3352876,2.17184109 69.4899771,2.65447244 69.369663,3.11986696 C69.369663,3.11986696 68.7337172,5.49855005 68.4759013,6.51552326 C68.3383995,7.04986511 67.8743309,7.41183862 67.3243236,7.42907546 L66.860255,7.41183862 C66.5336882,7.41183862 66.2071214,7.29118079 65.9664932,7.04986511 C65.416486,6.49828642 64.2992838,6.15354974 63.1305184,6.15354974 C62.4086339,6.15354974 61.9273776,6.22249708 61.6179985,6.32591808 C61.9273776,6.46381275 62.2883198,6.61894426 62.5805112,6.72236526 C64.6258506,7.5497333 68.4243381,9.08381152 67.3415113,13.1517044 C66.6368146,15.9095978 64.2649083,19.1673594 56.9945002,19.1673594 L56.9945002,19.1673594 Z"/>
      </g>
      <g fill="#6D1B00" transform="translate(2.063 1.588)">
        <path d="M.0515631787 15.9785451C.63594587 13.7377567 4.17661747.275789344 4.17661747.275789344L12.7704806.275789344C16.8955349.275789344 18.4424302 1.55131506 17.7721089 4.08512966 17.3080403 5.84328673 16.0533363 7.53249646 12.615791 7.96341731L12.5986033 8.01512782C16.0877117 8.22196982 16.5517804 9.82499539 16.0533363 11.6865735 15.2283254 14.8064404 11.6360907 16.2888081 6.87509049 16.2888081L.154689536 16.2888081.0515631787 15.9785451.0515631787 15.9785451zM6.34227098 13.0655202L7.37353455 13.0655202C8.95480536 13.0655202 9.86575485 12.5484152 10.1751339 11.3763104 10.484513 10.2042057 9.84856713 9.66986388 8.26729631 9.66986388L7.23603274 9.66986388 6.34227098 13.0655202 6.34227098 13.0655202zM8.0610436 6.58447059L9.09230717 6.58447059C10.4501375 6.58447059 11.2923361 6.08460241 11.5673397 4.99868186 11.8595311 3.89552449 11.2579607 3.51631414 9.93450576 3.51631414L8.86886673 3.51631414 8.0610436 6.58447059 8.0610436 6.58447059zM35.6645319 8.27368033C34.6848315 12.0140733 32.7941816 16.6852553 25.1456435 16.5990712 17.4455421 16.6852553 18.0127371 12.0313101 18.9924375 8.27368033 19.9721379 4.53328734 21.3643437-.051710502 29.5113259-.051710502 37.6754959-.034473668 36.6442323 4.53328734 35.6645319 8.27368033L35.6645319 8.27368033zM26.0909684 12.9620992C28.4113114 12.9620992 28.9269432 11.1694684 29.6832032 8.27368033 30.4394631 5.37789221 30.8691563 3.58526147 28.5488133 3.58526147 26.2284702 3.58526147 25.7128384 5.37789221 24.9565785 8.27368033 24.2175062 11.1694684 23.7706254 12.9620992 26.0909684 12.9620992L26.0909684 12.9620992zM50.7037924 4.84355036C49.9475324 4.08512966 48.5553266 3.58526147 46.9912435 3.58526147 45.513099 3.58526147 44.1037055 3.87828765 43.8458896 4.86078719 43.3646333 6.72236526 51.3225505 6.58447059 50.033471 11.4969683 49.156897 14.8409141 46.0115431 16.5818343 40.8380375 16.5818343 38.9645753 16.5818343 37.0911132 16.0819661 35.9567233 15.2545981 35.9567233 15.2545981 36.5582937 12.9620992 36.850485 11.8761786L37.5036186 11.8589418C38.3973804 12.6001257 39.8411494 13.0655202 41.370857 13.0655202 43.6224492 13.0655202 44.258395 12.4449942 44.44746 11.738284 45.0662182 9.3768377 36.7989218 9.80775855 38.1395645 4.72289252 38.9301999 1.68920973 41.938052-.068947336 46.6646767-.068947336 49.4319006-.068947336 50.8241064.379210348 52.0616227 1.41342039 52.0616227 1.41342039 51.4256769 3.80934032 51.167861 4.80907669L50.7037924 4.84355036 50.7037924 4.84355036zM65.7086773 4.84355036C64.9524174 4.08512966 63.5602116 3.58526147 62.0133162 3.58526147 60.5351718 3.58526147 59.1257782 3.87828765 58.8679623 4.86078719 58.3695182 6.72236526 66.3446232 6.58447059 65.0555437 11.4969683 64.1789697 14.8409141 61.0336158 16.5818343 55.8601102 16.5818343 53.9866481 16.5818343 52.1131859 16.0819661 50.978796 15.2545981 50.978796 15.2545981 51.5803664 12.9620992 51.8725577 11.8761786L52.5256913 11.8589418C53.4194531 12.6001257 54.8632221 13.0655202 56.3929297 13.0655202 58.6445219 13.0655202 59.2804677 12.4449942 59.4695327 11.738284 60.0882909 9.3768377 51.8209946 9.80775855 53.1616372 4.72289252 53.9522726 1.68920973 56.9601247-.068947336 61.6867494-.068947336 64.4539733-.068947336 65.8461792.379210348 67.0836954 1.41342039 67.0836954 1.41342039 66.4649373 3.79210348 66.1899337 4.80907669L65.7086773 4.84355036 65.7086773 4.84355036z"/>
      </g>
      <g fill="#DC0814" transform="translate(1.719 1.243)">
        <path d="M0 15.995782C.584382692 13.7549935 4.12505429.293026178 4.12505429.293026178L12.7189174.293026178C16.8439717.293026178 18.3908671 1.5685519 17.7205457 4.10236649 17.2564771 5.84328673 16.0017731 7.5497333 12.5642279 7.98065415L12.5470401 8.03236465C16.0361486 8.23920666 16.5002172 9.84223222 16.0017731 11.7038103 15.1767623 14.8236772 11.5845275 16.306045 6.82352731 16.306045L.103126357 16.306045 0 15.995782 0 15.995782zM6.2907078 13.0655202L7.32197137 13.0655202C8.90324218 13.0655202 9.81419167 12.5484152 10.1235707 11.3763104 10.4329498 10.2042057 9.79700395 9.66986388 8.21573313 9.66986388L7.18446956 9.66986388 6.2907078 13.0655202 6.2907078 13.0655202zM7.99229269 6.58447059L9.02355627 6.58447059C10.3813866 6.58447059 11.2235852 6.08460241 11.4985888 4.99868186 11.7907802 3.89552449 11.1892098 3.51631414 9.86575485 3.51631414L8.80011583 3.51631414 7.99229269 6.58447059 7.99229269 6.58447059zM35.6129687 8.29091716C34.6332683 12.0313101 32.7426185 16.7024922 25.0940803 16.616308 17.3939789 16.7024922 17.9611739 12.048547 18.9408743 8.29091716 19.9205747 4.55052418 21.3127805-.034473668 29.4597627-.034473668 37.606745-.017236834 36.5926691 4.55052418 35.6129687 8.29091716L35.6129687 8.29091716zM26.0394052 12.979336C28.3597483 12.979336 28.8753801 11.1867053 29.63164 8.29091716 30.3879 5.39512905 30.8175931 3.60249831 28.4972501 3.60249831 26.176907 3.60249831 25.6612752 5.39512905 24.9050153 8.29091716 24.1487553 11.1867053 23.7190622 12.979336 26.0394052 12.979336L26.0394052 12.979336zM50.6522292 4.86078719C49.8959692 4.10236649 48.5037634 3.61973514 46.9396803 3.61973514 45.4615359 3.61973514 44.0521423 3.91276132 43.7943264 4.89526086 43.2958824 6.75683893 51.2709873 6.61894426 49.9819079 11.531442 49.1053338 14.8753878 45.9427922 16.616308 40.7864743 16.616308 38.9130122 16.616308 37.03955 16.1164398 35.9051601 15.2890718 35.9051601 15.2890718 36.5067305 12.9965728 36.7989218 11.9106523L37.4348677 11.8934155C38.3114417 12.6345993 39.7723985 13.1172307 41.3021061 13.1172307 43.5536982 13.1172307 44.1896441 12.4967047 44.3787091 11.7899945 44.9974672 9.4285482 36.7301709 9.85946905 38.0708136 4.77460302 38.861449 1.74092024 41.8693011-.017236834 46.5959258-.017236834 49.3631497-.017236834 50.7553555.43092085 51.9928718 1.46513089 51.9928718 1.46513089 51.356926 3.86105082 51.0991101 4.86078719L50.6522292 4.86078719 50.6522292 4.86078719zM65.6399264 4.86078719C64.8836665 4.10236649 63.4914607 3.61973514 61.9445653 3.61973514 60.4664208 3.61973514 59.074215 3.91276132 58.8163991 4.89526086 58.3351428 6.75683893 66.29306 6.61894426 65.0039806 11.531442 64.1274065 14.8753878 60.9820526 16.616308 55.808547 16.616308 53.9350849 16.616308 52.0616227 16.1164398 50.9272328 15.2890718 50.9272328 15.2890718 51.5288032 12.9965728 51.8209946 11.9106523L52.4569404 11.8934155C53.3507022 12.6345993 54.7944712 13.1172307 56.3241788 13.1172307 58.575771 13.1172307 59.2117168 12.4967047 59.4007818 11.7899945 60.01954 9.4285482 51.7522437 9.85946905 53.0928863 4.77460302 53.8835217 1.74092024 56.9085615-.017236834 61.6179985-.017236834 64.3852224-.017236834 65.7774283.43092085 67.0149445 1.46513089 67.0149445 1.46513089 66.3789987 3.84381398 66.1211828 4.86078719L65.6399264 4.86078719 65.6399264 4.86078719z"/>
      </g>
    </g>
    <path fill="#000000" d="M75 48.5C73.5197368 48.5 72.5 47.4285714 72.5 46 72.5 44.474026 73.6513158 43.5 75 43.5 76.3486842 43.5 77.5 44.5064935 77.5 46 77.4671053 47.4935065 76.3157895 48.5 75 48.5L75 48.5zM75 43.9220779C73.8815789 43.9220779 73.0263158 44.7662338 73.0263158 46 73.0263158 47.1363636 73.7828947 48.0779221 75 48.0779221 76.0855263 48.0779221 76.9407895 47.2337662 76.9407895 46 76.9407895 44.7662338 76.0855263 43.9220779 75 43.9220779L75 43.9220779zM74.4736842 47.4285714L74.0131579 47.4285714 74.0131579 44.6363636 75.0986842 44.6363636C75.7894737 44.6363636 76.1184211 44.8636364 76.1184211 45.4480519 76.1184211 45.9675325 75.7894737 46.1623377 75.3947368 46.1948052L76.1842105 47.4285714 75.6578947 47.4285714 74.9342105 46.2272727 74.5065789 46.2272727 74.5065789 47.4285714 74.4736842 47.4285714zM75 45.8701299C75.3618421 45.8701299 75.6578947 45.8376623 75.6578947 45.4155844 75.6578947 45.0909091 75.3289474 45.025974 75.0328947 45.025974L74.4736842 45.025974 74.4736842 45.8376623 75 45.8376623 75 45.8701299zM90 108.5C88.5197368 108.5 87.5 107.428571 87.5 106 87.5 104.474026 88.6513158 103.5 90 103.5 91.3486842 103.5 92.5 104.506494 92.5 106 92.4671053 107.493506 91.3157895 108.5 90 108.5L90 108.5zM90 103.922078C88.8815789 103.922078 88.0263158 104.766234 88.0263158 106 88.0263158 107.136364 88.7828947 108.077922 90 108.077922 91.0855263 108.077922 91.9407895 107.233766 91.9407895 106 91.9407895 104.766234 91.0855263 103.922078 90 103.922078L90 103.922078zM89.4736842 107.428571L89.0131579 107.428571 89.0131579 104.636364 90.0986842 104.636364C90.7894737 104.636364 91.1184211 104.863636 91.1184211 105.448052 91.1184211 105.967532 90.7894737 106.162338 90.3947368 106.194805L91.1842105 107.428571 90.6578947 107.428571 89.9342105 106.227273 89.5065789 106.227273 89.5065789 107.428571 89.4736842 107.428571zM90 105.87013C90.3618421 105.87013 90.6578947 105.837662 90.6578947 105.415584 90.6578947 105.090909 90.3289474 105.025974 90.0328947 105.025974L89.4736842 105.025974 89.4736842 105.837662 90 105.837662 90 105.87013z"/>
    <rect width="69" height="1" x="17" y="119" fill="#000000"/>
    <path fill="#000000" d="M21.0709992 130L21.0709992 125.356 20.5039992 125.356 20.5039992 127.795C20.5039992 128.029001 20.4769995 128.258499 20.4229992 128.4835 20.368999 128.708501 20.2849998 128.907999 20.1709992 129.082 20.0569987 129.256001 19.9130001 129.395499 19.7389992 129.5005 19.5649984 129.605501 19.3550005 129.658 19.1089992 129.658 18.658997 129.658 18.3425002 129.550001 18.1594992 129.334 17.9764983 129.117999 17.8789993 128.800002 17.8669992 128.38L17.8669992 125.356 17.2999992 125.356 17.2999992 128.371C17.2999992 128.647001 17.3299989 128.892999 17.3899992 129.109 17.4499995 129.325001 17.5444986 129.507999 17.6734992 129.658 17.8024999 129.808001 17.9704982 129.9235 18.1774992 130.0045 18.3845003 130.0855 18.6349978 130.126 18.9289992 130.126 19.277001 130.126 19.5934978 130.043501 19.8784992 129.8785 20.1635007 129.713499 20.3809985 129.475002 20.5309992 129.163L20.5489992 129.163 20.5489992 130 21.0709992 130zM22 125.356L22 130 22.567 130 22.567 127.291C22.573 127.062999 22.6104997 126.851501 22.6795 126.6565 22.7485003 126.461499 22.8444994 126.293501 22.9675 126.1525 23.0905006 126.011499 23.2404991 125.9005 23.4175 125.8195 23.5945009 125.7385 23.7969989 125.698 24.025 125.698 24.2530011 125.698 24.4434992 125.734 24.5965 125.806 24.7495008 125.878 24.8709996 125.976999 24.961 126.103 25.0510005 126.229001 25.1139998 126.377499 25.15 126.5485 25.1860002 126.719501 25.204 126.903999 25.204 127.102L25.204 130 25.771 130 25.771 127.012C25.771 126.735999 25.7440003 126.487001 25.69 126.265 25.6359997 126.042999 25.5430007 125.855501 25.411 125.7025 25.2789993 125.549499 25.1035011 125.431 24.8845 125.347 24.6654989 125.263 24.3940016 125.221 24.07 125.221 23.7399984 125.221 23.4370014 125.306499 23.161 125.4775 22.8849986 125.648501 22.6930005 125.874999 22.585 126.157L22.567 126.157 22.567 125.356 22 125.356zM30.445 127.354L27.439 127.354C27.4630001 127.143999 27.5124996 126.938501 27.5875 126.7375 27.6625004 126.536499 27.7629993 126.359501 27.889 126.2065 28.0150006 126.053499 28.1679991 125.9305 28.348 125.8375 28.5280009 125.7445 28.7349988 125.698 28.969 125.698 29.1970011 125.698 29.4009991 125.7445 29.581 125.8375 29.7610009 125.9305 29.9139993 126.053499 30.04 126.2065 30.1660006 126.359501 30.2634996 126.534999 30.3325 126.733 30.4015003 126.931001 30.4389999 127.137999 30.445 127.354L30.445 127.354zM27.439 127.831L31.012 127.831C31.024 127.506998 30.9940003 127.187502 30.922 126.8725 30.8499996 126.557498 30.7315008 126.278501 30.5665 126.0355 30.4014992 125.792499 30.1870013 125.596001 29.923 125.446 29.6589987 125.295999 29.3410018 125.221 28.969 125.221 28.6029981 125.221 28.2865013 125.291499 28.0195 125.4325 27.7524986 125.573501 27.5350008 125.759499 27.367 125.9905 27.1989991 126.221501 27.0745004 126.483999 26.9935 126.778 26.9124996 127.072001 26.872 127.371998 26.872 127.678 26.872 128.008002 26.9124996 128.321499 26.9935 128.6185 27.0745004 128.915501 27.1989991 129.176499 27.367 129.4015 27.5350008 129.626501 27.7524986 129.803499 28.0195 129.9325 28.2865013 130.061501 28.6029981 130.126 28.969 130.126 29.5570029 130.126 30.0114984 129.982001 30.3325 129.694 30.6535016 129.405999 30.8739994 128.998003 30.994 128.47L30.427 128.47C30.3369995 128.830002 30.1750011 129.117999 29.941 129.334 29.7069988 129.550001 29.383002 129.658 28.969 129.658 28.6989986 129.658 28.4680009 129.601001 28.276 129.487 28.083999 129.372999 27.9250006 129.229001 27.799 129.055 27.6729993 128.880999 27.5815003 128.684501 27.5245 128.4655 27.4674997 128.246499 27.439 128.035001 27.439 127.831L27.439 127.831zM37.079 125.356L37.079 123.961 36.512 123.961 36.512 125.356 35.702 125.356 35.702 125.833 36.512 125.833 36.512 129.01C36.5059999 129.406002 36.5779992 129.677499 36.728 129.8245 36.8780007 129.971501 37.1419981 130.045 37.52 130.045 37.6040004 130.045 37.6879995 130.042 37.772 130.036 37.8560004 130.03 37.9399995 130.027 38.024 130.027L38.024 129.55C37.8619991 129.568 37.7000008 129.577 37.538 129.577 37.3339989 129.565 37.2065002 129.506501 37.1555 129.4015 37.1044997 129.296499 37.079 129.151001 37.079 128.965L37.079 125.833 38.024 125.833 38.024 125.356 37.079 125.356zM42.771 130L42.771 125.356 42.204 125.356 42.204 127.795C42.204 128.029001 42.1770003 128.258499 42.123 128.4835 42.0689997 128.708501 41.9850006 128.907999 41.871 129.082 41.7569994 129.256001 41.6130009 129.395499 41.439 129.5005 41.2649991 129.605501 41.0550012 129.658 40.809 129.658 40.3589978 129.658 40.0425009 129.550001 39.8595 129.334 39.6764991 129.117999 39.5790001 128.800002 39.567 128.38L39.567 125.356 39 125.356 39 128.371C39 128.647001 39.0299997 128.892999 39.09 129.109 39.1500003 129.325001 39.2444994 129.507999 39.3735 129.658 39.5025006 129.808001 39.670499 129.9235 39.8775 130.0045 40.084501 130.0855 40.3349985 130.126 40.629 130.126 40.9770017 130.126 41.2934986 130.043501 41.5785 129.8785 41.8635014 129.713499 42.0809992 129.475002 42.231 129.163L42.249 129.163 42.249 130 42.771 130zM47.2420008 126.715L47.8090008 126.715C47.7970007 126.462999 47.7460012 126.244001 47.6560008 126.058 47.5660003 125.871999 47.4445015 125.716001 47.2915008 125.59 47.1385 125.463999 46.9615018 125.371 46.7605008 125.311 46.5594998 125.251 46.3420019 125.221 46.1080008 125.221 45.9039997 125.221 45.6985018 125.245 45.4915008 125.293 45.2844997 125.341 45.0970016 125.415999 44.9290008 125.518 44.7609999 125.620001 44.6245013 125.754999 44.5195008 125.923 44.4145002 126.091001 44.3620008 126.291999 44.3620008 126.526 44.3620008 126.724001 44.3950004 126.890499 44.4610008 127.0255 44.5270011 127.160501 44.6185002 127.2745 44.7355008 127.3675 44.8525013 127.4605 44.989 127.5385 45.1450008 127.6015 45.3010015 127.6645 45.4719998 127.72 45.6580008 127.768L46.3870008 127.93C46.5130014 127.96 46.6375001 127.996 46.7605008 128.038 46.8835014 128.08 46.9930003 128.1325 47.0890008 128.1955 47.1850012 128.2585 47.2615005 128.3365 47.3185008 128.4295 47.375501 128.5225 47.4040008 128.637999 47.4040008 128.776 47.4040008 128.938001 47.3635012 129.074499 47.2825008 129.1855 47.2015004 129.296501 47.0980014 129.388 46.9720008 129.46 46.8460001 129.532 46.7095015 129.583 46.5625008 129.613 46.4155 129.643 46.2730015 129.658 46.1350008 129.658 45.7569989 129.658 45.440502 129.560501 45.1855008 129.3655 44.9304995 129.170499 44.7910009 128.881002 44.7670008 128.497L44.2000008 128.497C44.248001 129.067003 44.4414991 129.480999 44.7805008 129.739 45.1195025 129.997001 45.561998 130.126 46.1080008 130.126 46.3240018 130.126 46.5429997 130.102 46.7650008 130.054 46.9870019 130.006 47.1864999 129.926501 47.3635008 129.8155 47.5405016 129.704499 47.6860002 129.560501 47.8000008 129.3835 47.9140013 129.206499 47.9710008 128.992001 47.9710008 128.74 47.9710008 128.535999 47.9320012 128.359001 47.8540008 128.209 47.7760004 128.058999 47.6755014 127.933001 47.5525008 127.831 47.4295001 127.728999 47.2885016 127.6465 47.1295008 127.5835 46.9705 127.5205 46.8100016 127.477 46.6480008 127.453L45.8920008 127.282C45.7960003 127.258 45.6910013 127.2265 45.5770008 127.1875 45.4630002 127.1485 45.3580012 127.099 45.2620008 127.039 45.1660003 126.979 45.0865011 126.9055 45.0235008 126.8185 44.9605004 126.7315 44.9290008 126.625001 44.9290008 126.499 44.9290008 126.348999 44.9620004 126.223001 45.0280008 126.121 45.0940011 126.018999 45.1810002 125.9365 45.2890008 125.8735 45.3970013 125.8105 45.5155001 125.7655 45.6445008 125.7385 45.7735014 125.7115 45.9010001 125.698 46.0270008 125.698 46.1890016 125.698 46.342 125.7175 46.4860008 125.7565 46.6300015 125.7955 46.7575002 125.857 46.8685008 125.941 46.9795013 126.025 47.0680004 126.131499 47.1340008 126.2605 47.2000011 126.389501 47.2360007 126.540999 47.2420008 126.715L47.2420008 126.715zM52.2000008 125.356L52.2000008 130 52.7670008 130 52.7670008 127.408C52.7670008 127.161999 52.7940005 126.935501 52.8480008 126.7285 52.902001 126.521499 52.9845002 126.341501 53.0955008 126.1885 53.2065013 126.035499 53.3504999 125.9155 53.5275008 125.8285 53.7045016 125.7415 53.9129996 125.698 54.1530008 125.698 54.3330017 125.698 54.4860001 125.728 54.6120008 125.788 54.7380014 125.848 54.8385004 125.930499 54.9135008 126.0355 54.9885011 126.140501 55.0425006 126.263499 55.0755008 126.4045 55.1085009 126.545501 55.1250008 126.693999 55.1250008 126.85L55.1250008 130 55.6920008 130 55.6920008 127.372C55.6920008 127.155999 55.7115006 126.947501 55.7505008 126.7465 55.789501 126.545499 55.8570003 126.367001 55.9530008 126.211 56.0490012 126.054999 56.178 125.9305 56.3400008 125.8375 56.5020016 125.7445 56.7059995 125.698 56.9520008 125.698 57.3600028 125.698 57.645 125.798499 57.8070008 125.9995 57.9690016 126.200501 58.0500008 126.492998 58.0500008 126.877L58.0500008 130 58.6170008 130 58.6170008 126.85C58.6170008 125.763995 58.1040059 125.221 57.0780008 125.221 56.7719992 125.221 56.4840021 125.295999 56.2140008 125.446 55.9439994 125.596001 55.7400015 125.823998 55.6020008 126.13 55.5180003 125.823998 55.351502 125.596001 55.1025008 125.446 54.8534995 125.295999 54.5760023 125.221 54.2700008 125.221 53.8919989 125.221 53.581502 125.301999 53.3385008 125.464 53.0954995 125.626001 52.8990015 125.850999 52.7490008 126.139L52.7220008 126.139 52.7220008 125.356 52.2000008 125.356zM64.0709992 130L64.0709992 125.356 63.5039992 125.356 63.5039992 127.795C63.5039992 128.029001 63.4769995 128.258499 63.4229992 128.4835 63.368999 128.708501 63.2849998 128.907999 63.1709992 129.082 63.0569987 129.256001 62.9130001 129.395499 62.7389992 129.5005 62.5649984 129.605501 62.3550005 129.658 62.1089992 129.658 61.658997 129.658 61.3425002 129.550001 61.1594992 129.334 60.9764983 129.117999 60.8789993 128.800002 60.8669992 128.38L60.8669992 125.356 60.2999992 125.356 60.2999992 128.371C60.2999992 128.647001 60.3299989 128.892999 60.3899992 129.109 60.4499995 129.325001 60.5444986 129.507999 60.6734992 129.658 60.8024999 129.808001 60.9704982 129.9235 61.1774992 130.0045 61.3845003 130.0855 61.6349978 130.126 61.9289992 130.126 62.277001 130.126 62.5934978 130.043501 62.8784992 129.8785 63.1635007 129.713499 63.3809985 129.475002 63.5309992 129.163L63.5489992 129.163 63.5489992 130 64.0709992 130zM65.2300034 125.356L65.2300034 130 65.7970034 130 65.7970034 127.291C65.8030034 127.062999 65.840503 126.851501 65.9095034 126.6565 65.9785037 126.461499 66.0745027 126.293501 66.1975034 126.1525 66.320504 126.011499 66.4705025 125.9005 66.6475034 125.8195 66.8245042 125.7385 67.0270022 125.698 67.2550034 125.698 67.4830045 125.698 67.6735026 125.734 67.8265034 125.806 67.9795041 125.878 68.1010029 125.976999 68.1910034 126.103 68.2810038 126.229001 68.3440032 126.377499 68.3800034 126.5485 68.4160035 126.719501 68.4340034 126.903999 68.4340034 127.102L68.4340034 130 69.0010034 130 69.0010034 127.012C69.0010034 126.735999 68.9740036 126.487001 68.9200034 126.265 68.8660031 126.042999 68.773004 125.855501 68.6410034 125.7025 68.5090027 125.549499 68.3335045 125.431 68.1145034 125.347 67.8955023 125.263 67.624005 125.221 67.3000034 125.221 66.9700017 125.221 66.6670047 125.306499 66.3910034 125.4775 66.115002 125.648501 65.9230039 125.874999 65.8150034 126.157L65.7970034 126.157 65.7970034 125.356 65.2300034 125.356zM74.9059999 130L74.9059999 123.574 74.3389999 123.574 74.3389999 126.238 74.3209999 126.238C74.2609996 126.069999 74.1755004 125.923001 74.0644999 125.797 73.9534993 125.670999 73.8260006 125.5645 73.6819999 125.4775 73.5379991 125.3905 73.3835007 125.326 73.2184999 125.284 73.053499 125.242 72.8840007 125.221 72.7099999 125.221 72.3559981 125.221 72.0485012 125.286999 71.7874999 125.419 71.5264986 125.551001 71.3090007 125.729499 71.1349999 125.9545 70.960999 126.179501 70.8320003 126.440499 70.7479999 126.7375 70.6639994 127.034501 70.6219999 127.347998 70.6219999 127.678 70.6219999 128.008002 70.6639994 128.321499 70.7479999 128.6185 70.8320003 128.915501 70.960999 129.176499 71.1349999 129.4015 71.3090007 129.626501 71.5264986 129.803499 71.7874999 129.9325 72.0485012 130.061501 72.3559981 130.126 72.7099999 130.126 72.8780007 130.126 73.047499 130.102 73.2184999 130.054 73.3895007 130.006 73.5499991 129.9385 73.6999999 129.8515 73.8500006 129.7645 73.9834993 129.658001 74.1004999 129.532 74.2175005 129.405999 74.3059996 129.268001 74.3659999 129.118L74.3839999 129.118 74.3839999 130 74.9059999 130zM71.1889999 127.678C71.1889999 127.437999 71.2174996 127.199501 71.2744999 126.9625 71.3315002 126.725499 71.4214993 126.514001 71.5444999 126.328 71.6675005 126.141999 71.8249989 125.990501 72.0169999 125.8735 72.2090008 125.756499 72.4399985 125.698 72.7099999 125.698 73.0100014 125.698 73.2634988 125.756499 73.4704999 125.8735 73.6775009 125.990501 73.8454992 126.141999 73.9744999 126.328 74.1035005 126.514001 74.1964996 126.725499 74.2534999 126.9625 74.3105002 127.199501 74.3389999 127.437999 74.3389999 127.678 74.3389999 127.918001 74.3105002 128.156499 74.2534999 128.3935 74.1964996 128.630501 74.1035005 128.841999 73.9744999 129.028 73.8454992 129.214001 73.6775009 129.365499 73.4704999 129.4825 73.2634988 129.599501 73.0100014 129.658 72.7099999 129.658 72.4399985 129.658 72.2090008 129.599501 72.0169999 129.4825 71.8249989 129.365499 71.6675005 129.214001 71.5444999 129.028 71.4214993 128.841999 71.3315002 128.630501 71.2744999 128.3935 71.2174996 128.156499 71.1889999 127.918001 71.1889999 127.678L71.1889999 127.678zM78.3979999 125.698C78.6680012 125.698 78.9049988 125.754999 79.1089999 125.869 79.3130009 125.983001 79.4824992 126.132999 79.6174999 126.319 79.7525005 126.505001 79.8544995 126.716499 79.9234999 126.9535 79.9925002 127.190501 80.0269999 127.431999 80.0269999 127.678 80.0269999 127.924001 79.9925002 128.165499 79.9234999 128.4025 79.8544995 128.639501 79.7525005 128.850999 79.6174999 129.037 79.4824992 129.223001 79.3130009 129.372999 79.1089999 129.487 78.9049988 129.601001 78.6680012 129.658 78.3979999 129.658 78.1279985 129.658 77.8910009 129.601001 77.6869999 129.487 77.4829988 129.372999 77.3135005 129.223001 77.1784999 129.037 77.0434992 128.850999 76.9415002 128.639501 76.8724999 128.4025 76.8034995 128.165499 76.7689999 127.924001 76.7689999 127.678 76.7689999 127.431999 76.8034995 127.190501 76.8724999 126.9535 76.9415002 126.716499 77.0434992 126.505001 77.1784999 126.319 77.3135005 126.132999 77.4829988 125.983001 77.6869999 125.869 77.8910009 125.754999 78.1279985 125.698 78.3979999 125.698L78.3979999 125.698zM78.3979999 125.221C78.0439981 125.221 77.7305012 125.286999 77.4574999 125.419 77.1844985 125.551001 76.9550008 125.727999 76.7689999 125.95 76.5829989 126.172001 76.4420003 126.431499 76.3459999 126.7285 76.2499994 127.025501 76.2019999 127.341998 76.2019999 127.678 76.2019999 128.014002 76.2499994 128.330499 76.3459999 128.6275 76.4420003 128.924501 76.5829989 129.183999 76.7689999 129.406 76.9550008 129.628001 77.1844985 129.803499 77.4574999 129.9325 77.7305012 130.061501 78.0439981 130.126 78.3979999 130.126 78.7520016 130.126 79.0654985 130.061501 79.3384999 129.9325 79.6115012 129.803499 79.8409989 129.628001 80.0269999 129.406 80.2130008 129.183999 80.3539994 128.924501 80.4499999 128.6275 80.5460003 128.330499 80.5939999 128.014002 80.5939999 127.678 80.5939999 127.341998 80.5460003 127.025501 80.4499999 126.7285 80.3539994 126.431499 80.2130008 126.172001 80.0269999 125.95 79.8409989 125.727999 79.6115012 125.551001 79.3384999 125.419 79.0654985 125.286999 78.7520016 125.221 78.3979999 125.221L78.3979999 125.221zM84.8720018 126.715L85.4390018 126.715C85.4270018 126.462999 85.3760023 126.244001 85.2860018 126.058 85.1960014 125.871999 85.0745026 125.716001 84.9215018 125.59 84.7685011 125.463999 84.5915028 125.371 84.3905018 125.311 84.1895008 125.251 83.972003 125.221 83.7380018 125.221 83.5340008 125.221 83.3285029 125.245 83.1215018 125.293 82.9145008 125.341 82.7270027 125.415999 82.5590018 125.518 82.391001 125.620001 82.2545024 125.754999 82.1495018 125.923 82.0445013 126.091001 81.9920018 126.291999 81.9920018 126.526 81.9920018 126.724001 82.0250015 126.890499 82.0910018 127.0255 82.1570022 127.160501 82.2485012 127.2745 82.3655018 127.3675 82.4825024 127.4605 82.6190011 127.5385 82.7750018 127.6015 82.9310026 127.6645 83.1020009 127.72 83.2880018 127.768L84.0170018 127.93C84.1430025 127.96 84.2675012 127.996 84.3905018 128.038 84.5135024 128.08 84.6230014 128.1325 84.7190018 128.1955 84.8150023 128.2585 84.8915015 128.3365 84.9485018 128.4295 85.0055021 128.5225 85.0340018 128.637999 85.0340018 128.776 85.0340018 128.938001 84.9935022 129.074499 84.9125018 129.1855 84.8315014 129.296501 84.7280025 129.388 84.6020018 129.46 84.4760012 129.532 84.3395026 129.583 84.1925018 129.613 84.0455011 129.643 83.9030025 129.658 83.7650018 129.658 83.3869999 129.658 83.0705031 129.560501 82.8155018 129.3655 82.5605006 129.170499 82.421002 128.881002 82.3970018 128.497L81.8300018 128.497C81.8780021 129.067003 82.0715001 129.480999 82.4105018 129.739 82.7495035 129.997001 83.1919991 130.126 83.7380018 130.126 83.9540029 130.126 84.1730007 130.102 84.3950018 130.054 84.6170029 130.006 84.8165009 129.926501 84.9935018 129.8155 85.1705027 129.704499 85.3160013 129.560501 85.4300018 129.3835 85.5440024 129.206499 85.6010018 128.992001 85.6010018 128.74 85.6010018 128.535999 85.5620022 128.359001 85.4840018 128.209 85.4060014 128.058999 85.3055024 127.933001 85.1825018 127.831 85.0595012 127.728999 84.9185026 127.6465 84.7595018 127.5835 84.600501 127.5205 84.4400026 127.477 84.2780018 127.453L83.5220018 127.282C83.4260014 127.258 83.3210024 127.2265 83.2070018 127.1875 83.0930013 127.1485 82.9880023 127.099 82.8920018 127.039 82.7960014 126.979 82.7165021 126.9055 82.6535018 126.8185 82.5905015 126.7315 82.5590018 126.625001 82.5590018 126.499 82.5590018 126.348999 82.5920015 126.223001 82.6580018 126.121 82.7240022 126.018999 82.8110013 125.9365 82.9190018 125.8735 83.0270024 125.8105 83.1455012 125.7655 83.2745018 125.7385 83.4035025 125.7115 83.5310012 125.698 83.6570018 125.698 83.8190026 125.698 83.9720011 125.7175 84.1160018 125.7565 84.2600026 125.7955 84.3875013 125.857 84.4985018 125.941 84.6095024 126.025 84.6980015 126.131499 84.7640018 126.2605 84.8300022 126.389501 84.8660018 126.540999 84.8720018 126.715L84.8720018 126.715zM87.6761105 123.994616L87.4015479 123.994616C87.3934725 124.172275 87.4170254 124.32436 87.4722074 124.450875 87.5273894 124.57739 87.6061234 124.681022 87.708412 124.761777 87.8107005 124.842531 87.9345216 124.902422 88.079879 124.941454 88.2252364 124.980485 88.3827045 125 88.5522881 125 88.7218718 125 88.867227 124.984522 88.9883581 124.953567 89.1094893 124.922611 89.2111033 124.882234 89.2932033 124.832436 89.3753034 124.782638 89.4399057 124.726784 89.4870122 124.664872 89.5341188 124.602961 89.5704576 124.541723 89.5960297 124.481157 89.6216019 124.420592 89.6377524 124.363392 89.6444819 124.309556 89.6512115 124.25572 89.6545762 124.212652 89.6545762 124.18035 89.6545762 124.061911 89.6350609 123.960969 89.5960297 123.877524 89.5569986 123.794078 89.5031633 123.723419 89.4345223 123.665545 89.3658813 123.607671 89.2864743 123.55922 89.1962989 123.520188 89.1061235 123.481157 89.009893 123.448183 88.9076044 123.421265L88.2050472 123.247645C88.1458275 123.234186 88.0899735 123.216689 88.0374833 123.195155 87.9849931 123.17362 87.9385602 123.145357 87.8981832 123.110363 87.8578061 123.07537 87.8261779 123.032975 87.8032976 122.983176 87.7804172 122.933378 87.7689772 122.874832 87.7689772 122.807537 87.7689772 122.699865 87.7891655 122.609691 87.8295425 122.537012 87.8699196 122.464333 87.9230819 122.405788 87.9890311 122.361373 88.0549803 122.316958 88.1316955 122.284657 88.2191791 122.264468 88.3066627 122.24428 88.3975097 122.234186 88.4917229 122.234186 88.5940114 122.234186 88.6915878 122.248317 88.784455 122.276581 88.8773223 122.304845 88.959421 122.346568 89.0307538 122.40175 89.1020866 122.456932 89.1599595 122.525572 89.2043743 122.607672 89.248789 122.689772 89.2736878 122.786002 89.2790715 122.896366L89.553634 122.896366C89.553634 122.748317 89.5246976 122.618439 89.4668238 122.506729 89.40895 122.39502 89.3315618 122.301481 89.2346569 122.22611 89.137752 122.15074 89.0246979 122.094213 88.8954914 122.056528 88.7662848 122.018842 88.6303508 122 88.4876852 122 88.2857999 122 88.1202565 122.028936 87.9910499 122.08681 87.8618433 122.144684 87.7602293 122.215343 87.6862047 122.298789 87.6121801 122.382235 87.5617095 122.471063 87.5347915 122.565276 87.5078735 122.659489 87.4944147 122.741588 87.4944147 122.811575 87.4944147 122.92463 87.5125841 123.020188 87.5489234 123.09825 87.5852627 123.176313 87.6330415 123.242261 87.6922612 123.296097 87.7514809 123.349933 87.8207938 123.393001 87.900202 123.425303 87.9796102 123.457604 88.061036 123.484522 88.1444819 123.506057L88.7864739 123.663526C88.853769 123.679677 88.9224089 123.700538 88.9923958 123.72611 89.0623827 123.751682 89.1263121 123.784657 89.1841859 123.825034 89.2420596 123.865411 89.2891655 123.915208 89.3255048 123.974428 89.3618442 124.033648 89.3800136 124.103634 89.3800136 124.184388 89.3800136 124.289368 89.3544418 124.378869 89.3032976 124.452894 89.2521533 124.526918 89.1882239 124.587483 89.1115075 124.63459 89.0347911 124.681696 88.9520194 124.716016 88.8631899 124.73755 88.7743604 124.759085 88.6922616 124.769852 88.6168911 124.769852 88.4849927 124.769852 88.3611716 124.757066 88.2454241 124.731494 88.1296765 124.705922 88.0294083 124.663527 87.9446165 124.604307 87.8598247 124.545087 87.7932036 124.46568 87.7447511 124.366083 87.6962987 124.266487 87.6734187 124.142666 87.6761105 123.994616L87.6761105 123.994616zM90.4863393 122.060565L91.4432706 124.588156 92.4365412 122.060565 92.8403097 122.060565 92.8403097 124.943472 92.5657471 124.943472 92.5657471 122.452221 92.5576717 122.452221 91.5724766 124.943472 91.3140647 124.943472 90.3652087 122.452221 90.3571334 122.452221 90.3571334 124.943472 90.0825708 124.943472 90.0825708 122.060565 90.4863393 122.060565z"/>
  </g>
</svg>
