<svg xmlns="http://www.w3.org/2000/svg" width="175" height="90" viewBox="0 0 175 90">
  <g fill="none" fill-rule="evenodd">
    <g transform="translate(4.667 8.572)">
      <path fill="#000000" d="M0.100014478,2.6170523 C0.357830372,2.20336829 1.06252715,2.16889462 1.68128529,2.54810497 C2.31723116,2.91007848 2.60942251,3.54784134 2.36879434,3.96152536 C2.11097845,4.3407357 1.40628167,4.37520937 0.787523527,4.01323586 C0.151577657,3.65126234 -0.140613689,3.01349948 0.100014478,2.6170523 Z"/>
      <polyline fill="#000000" points="2.523 4.323 14.606 11.597 14.778 11.287 2.695 4.03"/>
      <path fill="#FFFFFF" d="M14.0392604,12.9419159 C13.8330077,13.2694157 13.7470691,13.6486261 13.7470691,14.0278364 C13.7470691,14.6483624 13.9876973,15.3033621 14.4002027,15.8894145 C14.8298959,16.4927037 15.4314663,17.0442824 16.1705385,17.4924401 L55.6163702,40.6932186 C56.5273197,41.2275605 57.5070201,41.5033498 58.3664064,41.5033498 C58.8648504,41.5033498 59.328919,41.4171657 59.7242367,41.2275605 C60.1195544,41.0379553 60.463309,40.762166 60.6867494,40.4001925 L67.3555872,29.5237502 C67.5618399,29.1962503 67.6649663,28.81704 67.6477785,28.4378297 C67.6477785,27.8173036 67.4071504,27.1795408 66.9774572,26.5762516 C66.5649518,25.9729624 65.9461936,25.4213837 65.2071214,24.973226 L25.7956652,1.77244744 C24.8847157,1.23810558 23.9050153,0.962316237 23.045629,0.962316237 C22.5471849,0.962316237 22.0831163,1.04850041 21.6877986,1.23810558 C21.2924809,1.41047392 20.9315387,1.70350012 20.7080982,2.06547363 L14.0392604,12.9419159 Z"/>
      <path fill="#000000" d="M21.1034158,2.30678932 C21.2752931,2.03099998 21.5502968,1.82415794 21.8768636,1.66902643 C22.2034304,1.51389493 22.5987481,1.44494759 23.045629,1.44494759 C23.8190767,1.44494759 24.7128384,1.68626327 25.555037,2.18613145 L65.0008687,25.38691 C65.6883777,25.7833572 66.238385,26.3004622 66.616515,26.8520409 C66.9946449,27.3863828 67.2008976,27.9551983 67.2008976,28.4378297 C67.2008976,28.7480927 67.1321467,29.023882 66.9774572,29.2651977 L60.3086194,40.1416399 C60.1367422,40.4174293 59.8789263,40.6415081 59.5523595,40.7794028 C59.2257927,40.9345343 58.830475,41.0034816 58.3835941,41.0034816 C57.6101464,41.0034816 56.7163847,40.762166 55.8741861,40.2622978 L16.4111667,17.0615192 C15.7236576,16.6478352 15.1736504,16.147967 14.7955204,15.5963883 C14.4173904,15.0620465 14.2111377,14.4932309 14.2111377,14.0105996 C14.2111377,13.7003366 14.2798886,13.4245472 14.4345781,13.1832316 L21.1034159,2.30678929 L20.7080982,2.06547361 L14.0392604,12.9419159 C13.8330077,13.2694157 13.7470691,13.6486261 13.7470691,14.0278364 C13.7470691,14.6483624 13.9876973,15.3033621 14.4002027,15.8894145 C14.8298959,16.4927037 15.4314663,17.0442824 16.1705385,17.4924401 L55.6163702,40.6932186 C56.5273197,41.2275605 57.5070201,41.5033498 58.3664064,41.5033498 C58.8648504,41.5033498 59.328919,41.4171657 59.7242367,41.2275605 C60.1195544,41.0379553 60.463309,40.762166 60.6867494,40.4001925 L67.3555872,29.5237502 C67.5618399,29.1962503 67.6649663,28.81704 67.6477785,28.4378297 C67.6477785,27.8173036 67.4071504,27.1795408 66.9774572,26.5762516 C66.5649518,25.9729624 65.9461936,25.4213837 65.2071214,24.973226 L25.7956652,1.77244744 C24.8847157,1.23810558 23.9050153,0.962316237 23.045629,0.962316237 C22.5471849,0.962316237 22.0831163,1.04850041 21.6877986,1.23810558 C21.2924809,1.41047392 20.9315387,1.70350012 20.7080982,2.06547363 L21.1034158,2.30678932 Z"/>
      <polygon fill="#000000" points="38.566 25.732 53.038 34.247 53.244 33.902 38.772 25.387"/>
      <polygon fill="#000000" points="41.007 25.921 41.901 24.422 44.307 25.835 43.43 27.266 41.007 25.921 40.336 26.007 43.602 27.921 44.994 25.663 41.729 23.749 40.336 26.007"/>
      <polygon fill="#000000" points="44.44 27.921 45.321 26.507 47.744 27.921 46.868 29.351 44.44 27.921 43.774 28.11 47.04 30.024 48.415 27.766 45.166 25.852 43.774 28.11"/>
      <polygon fill="#000000" points="45.923 25.559 46.816 24.06 49.223 25.473 48.346 26.904 45.923 25.559 45.252 25.645 48.518 27.559 49.893 25.301 46.644 23.387 45.252 25.645"/>
      <polygon fill="#000000" points="47.966 29.937 48.827 28.507 51.233 29.937 50.357 31.368 47.966 29.937 47.263 30.11 50.529 32.023 51.921 29.765 48.655 27.852 47.263 30.11"/>
      <path fill="#000000" d="M21.4299827,16.3892827 C21.22373,16.2686248 21.0518527,16.1134933 20.9487264,15.9583618 C20.8284123,15.8032303 20.7940368,15.6480988 20.7940368,15.527441 C20.7940368,15.4584936 20.8112246,15.3895463 20.8456,15.3378358 L26.1566074,6.66770829 C26.1909829,6.59876096 26.2597338,6.54705046 26.3284847,6.51257679 C26.4144233,6.47810312 26.5175497,6.44362945 26.6550515,6.44362945 C26.8784919,6.44362945 27.1534956,6.51257679 27.4113114,6.66770829 L40.7661747,14.5104678 C40.9724274,14.6311256 41.1443047,14.7862571 41.2474311,14.9413886 C41.3505574,15.0965201 41.4021206,15.2516516 41.4021206,15.3723095 C41.4021206,15.4412568 41.3849329,15.5102041 41.3505574,15.5619146 L36.0223623,24.2320422 C35.9879868,24.3009895 35.9192359,24.3354632 35.850485,24.3871737 C35.7645464,24.4216473 35.66142,24.456121 35.5239182,24.456121 C35.3004778,24.456121 35.0254742,24.3871737 34.7676583,24.2320422 L21.4299827,16.3892824 L21.2065422,16.8202033 L34.5442178,24.6457262 C34.8707846,24.8353313 35.2145391,24.9387523 35.5411059,24.9387523 C35.7301709,24.9387523 35.9020482,24.9042787 36.0567377,24.8353313 C36.2114273,24.766384 36.3489291,24.6457262 36.4520554,24.4905947 L41.7630628,15.8204672 C41.8490015,15.6825725 41.8833769,15.527441 41.8833769,15.3723095 C41.8833769,15.1309938 41.7802506,14.8724413 41.6427488,14.6655993 C41.4880592,14.4415204 41.2646188,14.2519153 41.0068029,14.0795469 L27.6519396,6.23678744 C27.3253728,6.04718227 26.9816183,5.94376127 26.6550515,5.94376127 C26.4659865,5.94376127 26.2941092,5.97823493 26.1394197,6.04718227 C25.9847302,6.11612961 25.8472284,6.23678744 25.744102,6.39191895 L20.4330946,15.0620465 C20.347156,15.1999411 20.3127805,15.3550726 20.3127805,15.5102041 C20.3127805,15.7687567 20.3987191,16.0100723 20.5705964,16.2341512 C20.7252859,16.45823 20.9487264,16.6478352 21.2065423,16.8202035 L21.4299827,16.3892827 Z"/>
      <polygon fill="#FFFFFF" points="37.243 8.84 44.015 10.563 41.488 16.424 33.925 15.631"/>
      <polygon fill="#000000" points="34.427 15.348 37.363 9.115 43.671 10.736 41.333 16.165 34.427 15.348 33.547 15.838 41.643 16.682 44.341 10.408 37.105 8.547 33.547 15.838"/>
      <polygon fill="#FFFFFF" points="45.562 11.011 51.869 13.545 48.243 21.905 47.607 17.165 42.88 16.527"/>
      <polygon fill="#000000" points="45.641 11.283 51.543 13.666 48.363 21.009 47.813 16.958 43.241 16.338 45.641 11.283 45.482 10.737 42.519 16.734 47.383 17.389 48.123 22.801 52.179 13.407 45.482 10.737"/>
      <polygon fill="#FFFFFF" points="53.743 14.855 46.816 27.18 52.179 29.076 58.641 17.544"/>
      <polygon fill="#000000" points="53.657 14.528 46.472 27.317 52.299 29.386 58.985 17.441 53.657 14.528 53.85 15.16 58.315 17.63 52.076 28.783 47.177 27.042 53.85 15.16"/>
      <polygon fill="#FFFFFF" points="60.377 19.285 55.169 29.248 58.487 30.817 64.159 22.767"/>
      <polygon fill="#000000" points="60.309 18.889 54.843 29.351 58.573 31.11 64.485 22.732 60.309 18.889 60.435 19.689 63.832 22.801 58.401 30.506 55.496 29.127 60.435 19.689"/>
      <path fill="#FFFFFF" d="M57.5070201,40.4346661 L43.9459041,32.3678278 L40.4911711,27.4725669 L35.5926691,26.8348041 L36.8473731,25.5765152 L35.5926691,24.1630948 L39.2364671,25.4213837 L46.4896876,23.0427006 L46.1631208,18.7852026 L31.3473007,16.7167825 L24.2487698,28.093093 L37.5005067,45.4850585 L36.4004923,73.2191244 L55.5476193,73.2191244 L54.0522871,44.3646643 C54.0350994,44.3819011 56.132002,41.899797 57.5070201,40.4346661"/>
      <path fill="#000000" d="M57.8504347,40.3829561 L44.0869657,32.1954595 L40.6031948,27.2484881 L36.0897379,26.6624357 L37.1709082,25.5765152 L36.3643208,24.6801998 L39.2131187,25.6626994 L46.6955035,23.1978321 L46.3522749,18.5611238 L31.2330524,16.45823 L23.9737662,28.1103298 L37.2395539,45.5712427 L36.1412222,73.2363612 L55.7567402,73.2363612 L54.2465341,44.3646643 L57.850435,40.3829556 L57.0970157,40.503908 C55.7069397,41.9690389 53.8174982,44.2267696 53.8174982,44.2267696 L55.2590586,72.7537299 L36.6217423,72.7537299 L37.7029126,45.4161112 L24.5229321,28.0758561 L31.4389896,16.975335 L45.8889162,18.9920446 L46.1806605,22.8703323 L39.1959573,25.180068 L35.6435407,23.939016 L35.3861192,24.3182263 L36.5016123,25.5592784 L35.0600519,27.0071724 L40.3286119,27.6966458 L43.7437371,32.557433 L57.0970157,40.503908"/>
    </g>
    <path fill="#000000" d="M91.0139211,0.564096842 L87.7899948,0.564096842 L87.7899948,7.31688005 L85.6256806,0.564096842 L82.4017542,0.564096842 L82.4017542,15.5525379 L85.6256806,15.5525379 L85.6256806,8.73131437 L87.6321802,15.5525379 L91.0139211,15.5525379 L91.0139211,0.564096842 Z M81.0039679,9.3472777 L81.0039679,6.76935709 C81.0039679,5.24085548 80.9588781,4.14580956 80.8912432,3.52984622 C80.8236084,2.91388289 80.598159,2.34354647 80.2148951,1.81883696 C79.8316311,1.29412746 79.3130975,0.906298693 78.6818392,0.632537212 C78.0505809,0.381589187 77.3291428,0.244708447 76.5400699,0.244708447 C75.7059071,0.244708447 74.9619241,0.381589187 74.3306658,0.655350669 C73.6994075,0.92911215 73.2034188,1.33975437 72.8426998,1.84165042 C72.4819808,2.36635993 72.2565314,2.93669635 72.1888966,3.55265968 C72.1212617,4.16862301 72.0761719,5.24085548 72.0761719,6.74654363 L72.0761719,9.32446424 C72.0761719,10.8757793 72.1212617,11.9480118 72.1888966,12.5639751 C72.2565314,13.1799384 72.4819808,13.7502749 72.8652448,14.2749844 C73.2485087,14.7996939 73.7670423,15.1875226 74.3983006,15.4612841 C75.029559,15.7122321 75.750997,15.8491129 76.5400699,15.8491129 C77.3742327,15.8491129 78.0956707,15.7122321 78.726929,15.4384707 C79.3581874,15.1647092 79.854176,14.754067 80.2148951,14.2293575 C80.598159,13.7274614 80.8236084,13.1799384 80.8912432,12.5411617 C80.9588781,11.9251983 81.0039679,10.8529658 81.0039679,9.3472777 Z M77.1487833,11.309235 C77.1487833,12.1761463 77.1036934,12.7464828 77.0360586,12.9746173 C76.9684238,13.2027519 76.7880642,13.3396326 76.5400699,13.3396326 C76.2920756,13.3396326 76.1117161,13.2483788 76.0440812,13.0430577 C75.9764464,12.8377366 75.9313565,12.3130271 75.9313565,11.4461157 L75.9313565,4.44238449 C75.9313565,3.66672696 75.9989914,3.21045783 76.0891711,3.05076363 C76.2018958,2.89106943 76.3597104,2.82262906 76.5626148,2.82262906 C76.8106092,2.82262906 76.9684238,2.91388289 77.0360586,3.119204 C77.1036934,3.32452511 77.1487833,3.75798079 77.1487833,4.46519795 L77.1487833,11.309235 L77.1487833,11.309235 L77.1487833,11.309235 Z M70.4303913,15.5525379 L70.4303913,0.564096842 L66.5752066,0.564096842 L66.5752066,15.5525379 L70.4303913,15.5525379 Z M65.2225102,3.52984622 L65.2225102,0.518469928 L56.7456129,0.518469928 L56.7456129,3.52984622 L59.0451968,3.52984622 L59.0451968,15.5753514 L62.9229264,15.5753514 L62.9229264,3.52984622 L65.2225102,3.52984622 Z M55.1674672,10.5792044 L55.1674672,0.564096842 L51.3122825,0.564096842 L51.3122825,11.6058099 C51.3122825,12.358654 51.2671926,12.8149231 51.1995578,13.0202442 C51.131923,13.2255654 50.9741084,13.3168192 50.7261141,13.3168192 C50.5232096,13.3168192 50.365395,13.2255654 50.2977602,13.0430577 C50.2301254,12.86055 50.1850355,12.4499078 50.1850355,11.7883176 L50.1850355,0.541283385 L46.3298509,0.541283385 L46.3298509,9.41571807 C46.3298509,11.1039139 46.3523958,12.2217733 46.4200306,12.7464828 C46.4876654,13.2711923 46.668025,13.7730883 47.006199,14.2521709 C47.3443731,14.7312535 47.8403618,15.1190823 48.51671,15.4156572 C49.1930582,15.7122321 49.9821311,15.8491129 50.8613837,15.8491129 C51.6730015,15.8491129 52.3493497,15.7350456 52.9580631,15.4840976 C53.5442315,15.2331496 54.0176753,14.8681342 54.3783943,14.3890516 C54.7616583,13.9099691 54.9871077,13.4308865 55.0547425,12.9746173 C55.1223773,12.5183482 55.1674672,11.7198772 55.1674672,10.5792044 Z M45.2251488,15.5525379 L45.2251488,12.5411617 L42.90302,12.5411617 L42.90302,0.541283385 L39.0478354,0.541283385 L39.0478354,15.5525379 L45.2251488,15.5525379 Z M37.6275042,9.3472777 L37.6275042,6.76935709 C37.6275042,5.24085548 37.5824143,4.14580956 37.5147795,3.52984622 C37.4471447,2.91388289 37.2216953,2.34354647 36.8384313,1.81883696 C36.4551673,1.29412746 35.9366337,0.906298693 35.3053754,0.632537212 C34.6741171,0.381589187 33.952679,0.244708447 33.1636061,0.244708447 C32.3294434,0.244708447 31.5854604,0.381589187 30.9542021,0.655350669 C30.3229437,0.92911215 29.8269551,1.33975437 29.466236,1.84165042 C29.0829721,2.36635993 28.8800676,2.93669635 28.8124328,3.55265968 C28.744798,4.16862301 28.722253,5.24085548 28.722253,6.74654363 L28.722253,9.32446424 C28.722253,10.8757793 28.7673429,11.9480118 28.8349777,12.5639751 C28.9026126,13.1799384 29.1506069,13.7502749 29.5338709,14.2749844 C29.9171348,14.7996939 30.4356684,15.1875226 31.0669268,15.4612841 C31.6981851,15.7122321 32.4196231,15.8491129 33.208696,15.8491129 C34.0428588,15.8491129 34.7868418,15.7122321 35.4181001,15.4384707 C36.0493584,15.1647092 36.5453471,14.754067 36.928611,14.2293575 C37.2216953,13.7274614 37.4471447,13.1799384 37.5147795,12.5411617 C37.5824143,11.9251983 37.6275042,10.8529658 37.6275042,9.3472777 Z M33.7723195,11.309235 C33.7723195,12.1761463 33.7272296,12.7464828 33.6595948,12.9746173 C33.59196,13.2027519 33.4116005,13.3396326 33.1636061,13.3396326 C32.8930669,13.3396326 32.7352523,13.2483788 32.6676175,13.0430577 C32.5999826,12.8377366 32.5548928,12.3130271 32.5548928,11.4461157 L32.5548928,4.44238449 C32.5548928,3.66672696 32.6225276,3.21045783 32.7127073,3.05076363 C32.825432,2.89106943 32.9832466,2.82262906 33.1861511,2.82262906 C33.4341454,2.82262906 33.59196,2.91388289 33.6595948,3.119204 C33.7272296,3.32452511 33.7723195,3.75798079 33.7723195,4.46519795 L33.7723195,11.309235 L33.7723195,11.309235 L33.7723195,11.309235 Z M28.1586295,0.564096842 L24.1005404,0.564096842 C24.1005404,0.564096842 23.4016473,8.18379141 23.1987428,11.058287 C22.9958384,8.20660486 22.6576643,4.71614598 22.1842206,0.564096842 L18.1261314,0.564096842 L20.3580804,15.5525379 L26.1972198,15.5525379 L28.1586295,0.564096842 Z M17.900682,15.5525379 L17.900682,12.5411617 L15.0825646,12.5411617 L15.0825646,9.25602387 L17.4948731,9.25602387 L17.4948731,6.40434178 L15.0825646,6.40434178 L15.0825646,3.55265968 L17.6526877,3.55265968 L17.6526877,0.541283385 L11.2273799,0.541283385 L11.2273799,15.5525379 L17.900682,15.5525379 Z M9.7394139,15.5525379 L9.7394139,11.6058099 C9.7394139,10.3966967 9.71686896,9.6666661 9.64923414,9.39290462 C9.58159933,9.11914313 9.42378475,8.8225682 9.15324547,8.5031798 C8.8827062,8.18379141 8.38671753,7.93284338 7.62018958,7.72752227 C8.45435235,7.6590819 9.01797584,7.40813388 9.31106005,6.99749165 C9.60414427,6.58684943 9.7394139,5.8111919 9.7394139,4.64770561 C9.7394139,3.37015203 9.53650945,2.4348003 9.13070053,1.86446388 C8.72489162,1.271314 8.20635801,0.906298693 7.55255476,0.769417953 C6.89875151,0.632537212 5.68132478,0.564096842 3.85518467,0.564096842 L1.12724698,0.564096842 L1.12724698,15.5525379 L4.98243165,15.5525379 L4.98243165,8.79975474 C5.50096526,8.79975474 5.83913935,8.89100857 5.95186405,9.09632968 C6.08713369,9.27883733 6.13222357,9.78073338 6.13222357,10.5792044 L6.13222357,15.5525379 L9.7394139,15.5525379 Z M6.15476851,5.10397474 C6.15476851,5.76556499 6.06458875,6.15339375 5.90677417,6.29027449 C5.72641466,6.40434178 5.43333044,6.47278215 5.00497659,6.47278215 L5.00497659,3.119204 C5.45587538,3.119204 5.7489596,3.18764437 5.92931911,3.34733857 C6.08713369,3.50703277 6.17731345,3.8036077 6.17731345,4.2826903 L6.17731345,5.10397474 L6.15476851,5.10397474 L6.15476851,5.10397474 Z" transform="translate(68.656 65.89)"/>
    <g transform="translate(68.656 37.227)">
      <g fill="#000000" fill-opacity=".2" transform="translate(2.029 .961)">
        <path d="M10.5510317,24.9579217 L1.73596035,24.9579217 C1.0821571,24.9579217 0.495988671,24.570093 0.247994335,23.9541296 L0.0676348188,23.5434874 C-0.0676348188,23.224099 -0.0901797584,22.8590837 1.11924359e-14,22.5168818 L5.4107855,1.73382272 C5.59114502,1.02660556 6.22240333,0.524709506 6.96638633,0.524709506 L18.2388561,0.524709506 C22.0489509,0.524709506 24.4161696,1.30036704 25.7012311,2.96574938 C26.6255737,4.17486259 26.8510231,5.74899111 26.3550344,7.59688111 C25.8139558,9.69571913 24.6641639,11.2926611 22.9507485,12.3648936 C23.1761979,12.5702147 23.3791024,12.7983493 23.5594619,13.0492973 C24.4161696,14.235597 24.5965291,15.7869121 24.1005404,17.6576155 C22.9056586,22.2887473 17.9683169,24.9579217 10.5510317,24.9579217 L10.5510317,24.9579217 Z M12.2193573,16.1975543 L11.9037281,17.4066675 C13.076065,17.2697868 13.2113346,16.7678907 13.3015144,16.4256889 C13.3240593,16.380062 13.3240593,16.3344351 13.3240593,16.2888081 C13.1662447,16.2431812 12.8506156,16.1975543 12.332082,16.1975543 L12.2193573,16.1975543 L12.2193573,16.1975543 Z M14.3385816,8.03033679 L14.1356771,8.80599432 C14.8345703,8.66911358 15.0149298,8.34972518 15.0825646,8.05315024 C14.9472949,8.03033679 14.7669354,8.03033679 14.4963962,8.03033679 L14.3385816,8.03033679 L14.3385816,8.03033679 Z"/>
        <path d="M34.7417519,25.3685639 L34.4486677,25.3685639 L34.1781284,25.3685639 C29.9622247,25.3685639 27.1441073,24.3191449 25.4983267,22.17468 C23.3791024,19.3914383 23.9878157,15.6272179 24.8445234,12.3192667 C26.0394052,7.7565753 28.0233599,0.114067284 40.1976273,0.114067284 C44.7291601,0.114067284 47.7501821,1.1634863 49.3734177,3.30795123 C51.6053667,6.2280737 50.5682995,10.2432421 49.8017716,13.1633646 C48.3363505,18.8439153 45.2927836,25.3685639 34.7417519,25.3685639 L34.7417519,25.3685639 Z M35.079926,17.2469733 C35.1475608,17.2697868 35.3279203,17.3154137 35.7337292,17.3154137 C37.33442,17.3154137 37.7853188,16.6081965 38.8900208,12.3192667 C39.2281949,10.9960862 39.8143633,8.80599432 39.6114589,8.21284444 C39.543824,8.19003098 39.3409196,8.14440407 38.9576556,8.14440407 C37.3569649,8.14440407 36.9060661,8.85162123 35.8013641,13.1405511 C35.440645,14.4637316 34.8770215,16.6538234 35.079926,17.2469733 L35.079926,17.2469733 Z"/>
        <path d="M55.0772874,25.3685639 C52.236625,25.3685639 49.4861424,24.5929064 47.7276371,23.3153528 C47.1865586,22.9275241 46.9385642,22.2431204 47.1189237,21.5815301 L48.2912606,17.1100926 C48.4716201,16.4028754 49.0803335,15.9237928 49.8017716,15.9009794 L50.6584793,15.8781659 C51.0642882,15.8553525 51.4250072,16.0150467 51.7406364,16.2659947 C52.619889,17.0188388 54.1754898,17.4979213 55.7761805,17.4979213 C57.083787,17.4979213 57.82777,17.3154137 58.0983093,17.1100926 C57.6474105,16.8135176 56.723068,16.4256889 56.0692648,16.1519274 C53.2736923,14.9884411 48.5843448,13.0492973 50.004676,7.66532148 C51.2671926,2.8516821 55.8889052,0.114067284 62.7425669,0.114067284 C66.5752066,0.114067284 68.8522455,0.77565753 70.8362002,2.44103988 C71.3096439,2.8516821 71.5125484,3.49045889 71.3547338,4.10642222 L70.1823969,8.60067321 C70.0020374,9.30789037 69.3707791,9.78697296 68.6493411,9.80978642 L68.0406277,9.80978642 C67.6122738,9.80978642 67.2064649,9.65009222 66.8908358,9.33070382 C66.1919426,8.62348666 64.7265216,8.14440407 63.1483758,8.14440407 C62.2014883,8.14440407 61.57023,8.2356579 61.1644211,8.37253864 C61.57023,8.55504629 62.0436738,8.7603674 62.4269377,8.89724814 C65.1097855,9.99229407 70.0922172,12.0226917 68.671886,17.4066675 C67.7249985,21.0568206 64.5912519,25.3685639 55.0772874,25.3685639 L55.0772874,25.3685639 Z"/>
        <path d="M74.7590197,25.3685639 C71.9183573,25.3685639 69.1678747,24.5929064 67.4093694,23.3153528 C66.8682908,22.9275241 66.6202965,22.2431204 66.800656,21.5815301 C66.800656,21.5815301 67.5897289,18.5473404 67.9729929,17.1100926 C68.1533524,16.4028754 68.7620657,15.9237928 69.4835038,15.9009794 L70.3176666,15.8781659 C70.7009306,15.8553525 71.0841945,16.0150467 71.3772787,16.2659947 C72.2565314,17.0188388 73.8121322,17.4979213 75.4128229,17.4979213 C76.7204294,17.4979213 77.4418675,17.3154137 77.7349517,17.132906 C77.2840529,16.8363311 76.3597104,16.4485023 75.7059071,16.1747409 C72.9103346,15.0112546 68.2435321,13.0492973 69.6413184,7.68813493 C70.903835,2.87449555 75.5255476,0.136880741 82.3792093,0.136880741 C86.211849,0.136880741 88.4888879,0.798470987 90.4728426,2.46385333 C90.9462863,2.87449555 91.1491908,3.51327234 90.9913762,4.12923568 C90.9913762,4.12923568 90.1572134,7.27749271 89.8190393,8.62348666 C89.6386798,9.33070382 89.0299664,9.80978642 88.3085284,9.83259987 L87.699815,9.80978642 C87.2714612,9.80978642 86.8431073,9.65009222 86.5274781,9.33070382 C85.8060401,8.60067321 84.340619,8.14440407 82.8075631,8.14440407 C81.8606757,8.14440407 81.2294173,8.2356579 80.8236084,8.37253864 C81.2294173,8.55504629 81.7028611,8.7603674 82.086125,8.89724814 C84.7689729,9.99229407 89.7514045,12.0226917 88.3310733,17.4066675 C87.4067308,21.0568206 84.2955291,25.3685639 74.7590197,25.3685639 L74.7590197,25.3685639 Z"/>
      </g>
      <g fill="#FFFFFF" transform="translate(.902 .049)">
        <path d="M10.5510317,24.9579217 L1.73596035,24.9579217 C1.0821571,24.9579217 0.495988671,24.570093 0.247994335,23.9541296 L0.0676348188,23.5434874 C-0.0676348188,23.224099 -0.0901797584,22.8590837 1.11924359e-14,22.5168818 L5.4107855,1.73382272 C5.59114502,1.02660556 6.22240333,0.524709506 6.96638633,0.524709506 L18.2388561,0.524709506 C22.0489509,0.524709506 24.4161696,1.30036704 25.7012311,2.96574938 C26.6255737,4.17486259 26.8510231,5.74899111 26.3550344,7.59688111 C25.8139558,9.69571913 24.6641639,11.2926611 22.9507485,12.3648936 C23.1761979,12.5702147 23.3791024,12.7983493 23.5594619,13.0492973 C24.4161696,14.235597 24.5965291,15.7869121 24.1005404,17.6576155 C22.9056586,22.2887473 17.9683169,24.9579217 10.5510317,24.9579217 L10.5510317,24.9579217 Z M12.2193573,16.1975543 L11.9037281,17.4066675 C13.076065,17.2697868 13.2113346,16.7678907 13.3015144,16.4256889 C13.3240593,16.380062 13.3240593,16.3344351 13.3240593,16.2888081 C13.1662447,16.2431812 12.8506156,16.1975543 12.332082,16.1975543 L12.2193573,16.1975543 L12.2193573,16.1975543 Z M14.3385816,8.03033679 L14.1356771,8.80599432 C14.8345703,8.66911358 15.0149298,8.34972518 15.0825646,8.05315024 C14.9472949,8.03033679 14.7669354,8.03033679 14.4963962,8.03033679 L14.3385816,8.03033679 L14.3385816,8.03033679 Z"/>
        <path d="M34.7417519,25.3685639 L34.4486677,25.3685639 L34.1781284,25.3685639 C29.9622247,25.3685639 27.1441073,24.3191449 25.4983267,22.17468 C23.3791024,19.3914383 23.9878157,15.6272179 24.8445234,12.3192667 C26.0394052,7.7565753 28.0233599,0.114067284 40.1976273,0.114067284 C44.7291601,0.114067284 47.7501821,1.1634863 49.3734177,3.30795123 C51.6053667,6.2280737 50.5682995,10.2432421 49.8017716,13.1633646 C48.3363505,18.8439153 45.2927836,25.3685639 34.7417519,25.3685639 L34.7417519,25.3685639 Z M35.079926,17.2469733 C35.1475608,17.2697868 35.3279203,17.3154137 35.7337292,17.3154137 C37.33442,17.3154137 37.7853188,16.6081965 38.8900208,12.3192667 C39.2281949,10.9960862 39.8143633,8.80599432 39.6114589,8.21284444 C39.543824,8.19003098 39.3409196,8.14440407 38.9576556,8.14440407 C37.3569649,8.14440407 36.9060661,8.85162123 35.8013641,13.1405511 C35.440645,14.4637316 34.8770215,16.6538234 35.079926,17.2469733 L35.079926,17.2469733 Z"/>
        <path d="M55.0772874,25.3685639 C52.236625,25.3685639 49.4861424,24.5929064 47.7276371,23.3153528 C47.1865586,22.9275241 46.9385642,22.2431204 47.1189237,21.5815301 L48.2912606,17.1100926 C48.4716201,16.4028754 49.0803335,15.9237928 49.8017716,15.9009794 L50.6584793,15.8781659 C51.0642882,15.8553525 51.4250072,16.0150467 51.7406364,16.2659947 C52.619889,17.0188388 54.1754898,17.4979213 55.7761805,17.4979213 C57.083787,17.4979213 57.82777,17.3154137 58.0983093,17.1100926 C57.6474105,16.8135176 56.723068,16.4256889 56.0692648,16.1519274 C53.2736923,14.9884411 48.5843448,13.0492973 50.004676,7.66532148 C51.2671926,2.8516821 55.8889052,0.114067284 62.7425669,0.114067284 C66.5752066,0.114067284 68.8522455,0.77565753 70.8362002,2.44103988 C71.3096439,2.8516821 71.5125484,3.49045889 71.3547338,4.10642222 L70.1823969,8.60067321 C70.0020374,9.30789037 69.3707791,9.78697296 68.6493411,9.80978642 L68.0406277,9.80978642 C67.6122738,9.80978642 67.2064649,9.65009222 66.8908358,9.33070382 C66.1919426,8.62348666 64.7265216,8.14440407 63.1483758,8.14440407 C62.2014883,8.14440407 61.57023,8.2356579 61.1644211,8.37253864 C61.57023,8.55504629 62.0436738,8.7603674 62.4269377,8.89724814 C65.1097855,9.99229407 70.0922172,12.0226917 68.671886,17.4066675 C67.7249985,21.0568206 64.5912519,25.3685639 55.0772874,25.3685639 L55.0772874,25.3685639 Z"/>
        <path d="M74.7590197,25.3685639 C71.9183573,25.3685639 69.1678747,24.5929064 67.4093694,23.3153528 C66.8682908,22.9275241 66.6202965,22.2431204 66.800656,21.5815301 C66.800656,21.5815301 67.5897289,18.5473404 67.9729929,17.1100926 C68.1533524,16.4028754 68.7620657,15.9237928 69.4835038,15.9009794 L70.3176666,15.8781659 C70.7009306,15.8553525 71.0841945,16.0150467 71.3772787,16.2659947 C72.2565314,17.0188388 73.8121322,17.4979213 75.4128229,17.4979213 C76.7204294,17.4979213 77.4418675,17.3154137 77.7349517,17.132906 C77.2840529,16.8363311 76.3597104,16.4485023 75.7059071,16.1747409 C72.9103346,15.0112546 68.2435321,13.0492973 69.6413184,7.68813493 C70.903835,2.87449555 75.5255476,0.136880741 82.3792093,0.136880741 C86.211849,0.136880741 88.4888879,0.798470987 90.4728426,2.46385333 C90.9462863,2.87449555 91.1491908,3.51327234 90.9913762,4.12923568 C90.9913762,4.12923568 90.1572134,7.27749271 89.8190393,8.62348666 C89.6386798,9.33070382 89.0299664,9.80978642 88.3085284,9.83259987 L87.699815,9.80978642 C87.2714612,9.80978642 86.8431073,9.65009222 86.5274781,9.33070382 C85.8060401,8.60067321 84.340619,8.14440407 82.8075631,8.14440407 C81.8606757,8.14440407 81.2294173,8.2356579 80.8236084,8.37253864 C81.2294173,8.55504629 81.7028611,8.7603674 82.086125,8.89724814 C84.7689729,9.99229407 89.7514045,12.0226917 88.3310733,17.4066675 C87.4067308,21.0568206 84.2955291,25.3685639 74.7590197,25.3685639 L74.7590197,25.3685639 Z"/>
      </g>
      <g fill="#6D1B00" transform="translate(2.705 2.102)">
        <path d="M.0676348188 21.1480744C.834162765 18.1823251 5.47842032.365015308 5.47842032.365015308L16.7508901.365015308C22.1616756.365015308 24.1907202 2.05321111 23.3114675 5.40678926 22.7027542 7.73376185 21.0569736 9.96948061 16.5479857 10.539817L16.5254407 10.6082574C21.1020635 10.8820189 21.7107768 13.0036704 21.0569736 15.4675237 19.9748165 19.5967594 15.2629241 21.5587167 9.01797584 21.5587167L.202904456 21.5587167.0676348188 21.1480744.0676348188 21.1480744zM8.31908271 17.2926002L9.67177908 17.2926002C11.7459135 17.2926002 12.9407953 16.6081965 13.3466042 15.0568815 13.7524131 13.5055664 12.9182504 12.7983493 10.8441159 12.7983493L9.49141957 12.7983493 8.31908271 17.2926002 8.31908271 17.2926002zM10.5735767 8.71474049L11.926273 8.71474049C13.7073233 8.71474049 14.8120253 8.05315024 15.1727443 6.61590247 15.5560083 5.15584123 14.7669354 4.65394518 13.0309751 4.65394518L11.6331888 4.65394518 10.5735767 8.71474049 10.5735767 8.71474049zM46.7807496 10.9504593C45.4956881 15.9009794 43.0157447 22.0834262 32.9832466 21.9693589 22.8831137 22.0834262 23.6270967 15.9237928 24.9121582 10.9504593 26.1972198 5.99993913 28.0233599-.0684403703 38.7096613-.0684403703 49.4185076-.0456269136 48.0658112 5.99993913 46.7807496 10.9504593L46.7807496 10.9504593zM34.2232183 17.1557195C37.2667851 17.1557195 37.9431333 14.78312 38.9351107 10.9504593 39.927088 7.11779852 40.4907115 4.74519901 37.4471447 4.74519901 34.4035778 4.74519901 33.7272296 7.11779852 32.7352523 10.9504593 31.7658199 14.78312 31.1796515 17.1557195 34.2232183 17.1557195L34.2232183 17.1557195zM66.5075718 6.41058136C65.5155944 5.40678926 63.6894543 4.74519901 61.6378648 4.74519901 59.699 4.74519901 57.850315 5.13302778 57.5121409 6.43339481 56.8808826 8.89724814 67.3191896 8.71474049 65.6283191 15.2165757 64.4785272 19.6423863 60.3528033 21.9465454 53.5667765 21.9465454 51.109378 21.9465454 48.6519796 21.2849552 47.1640136 20.1899092 47.1640136 20.1899092 47.9530865 17.1557195 48.3363505 15.7184717L49.1930582 15.6956583C50.365395 16.6766369 52.25917 17.2926002 54.2656696 17.2926002 57.2190567 17.2926002 58.0532194 16.4713158 58.3012138 15.5359641 59.1128316 12.4105205 48.2687157 12.9808569 50.0272209 6.25088716 51.0642882 2.23571876 55.0096526-.0912538271 61.209511-.0912538271 64.8392463-.0912538271 66.6653864.501896049 68.288622 1.87070346 68.288622 1.87070346 67.4544593 5.04177395 67.1162852 6.36495444L66.5075718 6.41058136 66.5075718 6.41058136zM86.1893041 6.41058136C85.1973267 5.40678926 83.3711866 4.74519901 81.342142 4.74519901 79.4032772 4.74519901 77.5545922 5.13302778 77.2164181 6.43339481 76.5626148 8.89724814 87.0234668 8.71474049 85.3325963 15.2165757 84.1828044 19.6423863 80.0570805 21.9465454 73.2710537 21.9465454 70.8136553 21.9465454 68.3562568 21.2849552 66.8682908 20.1899092 66.8682908 20.1899092 67.6573637 17.1557195 68.0406277 15.7184717L68.8973354 15.6956583C70.0696722 16.6766369 71.9634472 17.2926002 73.9699468 17.2926002 76.9233339 17.2926002 77.7574966 16.4713158 78.005491 15.5359641 78.8171088 12.4105205 67.9729929 12.9808569 69.7314982 6.25088716 70.7685654 2.23571876 74.7139298-.0912538271 80.9137882-.0912538271 84.5435235-.0912538271 86.3696636.501896049 87.9928992 1.87070346 87.9928992 1.87070346 87.1812814 5.01896049 86.8205624 6.36495444L86.1893041 6.41058136 86.1893041 6.41058136z"/>
      </g>
      <g fill="#DC0814" transform="translate(2.254 1.646)">
        <path d="M0 21.1708879C.766527946 18.2051385 5.4107855.387828765 5.4107855.387828765L16.6832553.387828765C22.0940408.387828765 24.1230854 2.07602457 23.2438327 5.42960271 22.6351193 7.73376185 20.9893388 9.99229407 16.4803508 10.5626305L16.4578059 10.6310709C21.0344286 10.9048323 21.643142 13.0264838 20.9893388 15.4903372 19.9071817 19.6195728 15.1952893 21.5815301 8.95034102 21.5815301L.135269638 21.5815301 0 21.1708879 0 21.1708879zM8.25144789 17.2926002L9.60414427 17.2926002C11.6782787 17.2926002 12.8731605 16.6081965 13.2789694 15.0568815 13.6847783 13.5055664 12.8506156 12.7983493 10.7764811 12.7983493L9.42378475 12.7983493 8.25144789 17.2926002 8.25144789 17.2926002zM10.4833969 8.71474049L11.8360933 8.71474049C13.6171435 8.71474049 14.7218456 8.05315024 15.0825646 6.61590247 15.4658286 5.15584123 14.6767557 4.65394518 12.9407953 4.65394518L11.5430091 4.65394518 10.4833969 8.71474049 10.4833969 8.71474049zM46.7131148 10.9732727C45.4280533 15.9237928 42.9481099 22.1062396 32.9156118 21.9921723 22.8154789 22.1062396 23.5594619 15.9466063 24.8445234 10.9732727 26.129585 6.02275259 27.9557251-.0456269136 38.6420265-.0456269136 49.3283278-.0228134568 47.9981764 6.02275259 46.7131148 10.9732727L46.7131148 10.9732727zM34.1555835 17.178533C37.1991503 17.178533 37.8754985 14.8059334 38.8674759 10.9732727 39.8594532 7.14061197 40.4230767 4.76801247 37.3795098 4.76801247 34.335943 4.76801247 33.6595948 7.14061197 32.6676175 10.9732727 31.6756401 14.8059334 31.1120166 17.178533 34.1555835 17.178533L34.1555835 17.178533zM66.439937 6.43339481C65.4479596 5.42960271 63.6218195 4.79082592 61.57023 4.79082592 59.6313652 4.79082592 57.7826802 5.17865469 57.4445061 6.47902173 56.7907028 8.94287506 67.2515548 8.7603674 65.5606843 15.2622026 64.4108924 19.6880132 60.2626235 21.9921723 53.4991416 21.9921723 51.0417432 21.9921723 48.5843448 21.3305821 47.0963788 20.2355362 47.0963788 20.2355362 47.8854517 17.2013464 48.2687157 15.7640986L49.1028784 15.7412852C50.2526703 16.7222638 52.1689902 17.3610406 54.1754898 17.3610406 57.1288769 17.3610406 57.9630397 16.5397562 58.211034 15.6044044 59.0226518 12.4789609 48.1785359 13.0492973 49.9370412 6.31932753 50.9741084 2.30415913 54.9194728-.0228134568 61.1193312-.0228134568 64.7490665-.0228134568 66.5752066.570336419 68.1984423 1.93914383 68.1984423 1.93914383 67.3642795 5.11021432 67.0261054 6.43339481L66.439937 6.43339481 66.439937 6.43339481zM86.0991243 6.43339481C85.107147 5.42960271 83.2810068 4.79082592 81.2519623 4.79082592 79.3130975 4.79082592 77.4869574 5.17865469 77.1487833 6.47902173 76.517525 8.94287506 86.955832 8.7603674 85.2649615 15.2622026 84.1151696 19.6880132 79.9894457 21.9921723 73.2034188 21.9921723 70.7460204 21.9921723 68.288622 21.3305821 66.800656 20.2355362 66.800656 20.2355362 67.5897289 17.2013464 67.9729929 15.7640986L68.8071556 15.7412852C69.9794925 16.7222638 71.8732674 17.3610406 73.879767 17.3610406 76.8331541 17.3610406 77.6673169 16.5397562 77.9153112 15.6044044 78.726929 12.4789609 67.8828131 13.0492973 69.6413184 6.31932753 70.6783856 2.30415913 74.646295-.0228134568 80.8236084-.0228134568 84.4533437-.0228134568 86.2794838.570336419 87.9027195 1.93914383 87.9027195 1.93914383 87.0685567 5.08740086 86.7303826 6.43339481L86.0991243 6.43339481 86.0991243 6.43339481z"/>
      </g>
    </g>
    <path fill="#000000" d="M75 33.5C73.5197368 33.5 72.5 32.4285714 72.5 31 72.5 29.474026 73.6513158 28.5 75 28.5 76.3486842 28.5 77.5 29.5064935 77.5 31 77.4671053 32.4935065 76.3157895 33.5 75 33.5L75 33.5zM75 28.9220779C73.8815789 28.9220779 73.0263158 29.7662338 73.0263158 31 73.0263158 32.1363636 73.7828947 33.0779221 75 33.0779221 76.0855263 33.0779221 76.9407895 32.2337662 76.9407895 31 76.9407895 29.7662338 76.0855263 28.9220779 75 28.9220779L75 28.9220779zM74.4736842 32.4285714L74.0131579 32.4285714 74.0131579 29.6363636 75.0986842 29.6363636C75.7894737 29.6363636 76.1184211 29.8636364 76.1184211 30.4480519 76.1184211 30.9675325 75.7894737 31.1623377 75.3947368 31.1948052L76.1842105 32.4285714 75.6578947 32.4285714 74.9342105 31.2272727 74.5065789 31.2272727 74.5065789 32.4285714 74.4736842 32.4285714zM75 30.8701299C75.3618421 30.8701299 75.6578947 30.8376623 75.6578947 30.4155844 75.6578947 30.0909091 75.3289474 30.025974 75.0328947 30.025974L74.4736842 30.025974 74.4736842 30.8376623 75 30.8376623 75 30.8701299zM165.064935 72.5080011C163.123291 72.5080011 161.785714 71.0899339 161.785714 69.1991776 161.785714 67.1795061 163.295882 65.8903541 165.064935 65.8903541 166.833988 65.8903541 168.344156 67.2224778 168.344156 69.1991776 168.301008 71.1758774 166.790841 72.5080011 165.064935 72.5080011L165.064935 72.5080011zM165.064935 66.4489866C163.597915 66.4489866 162.476077 67.5662517 162.476077 69.1991776 162.476077 70.7031883 163.468472 71.9493686 165.064935 71.9493686 166.488807 71.9493686 167.610646 70.8321035 167.610646 69.1991776 167.610646 67.5662517 166.488807 66.4489866 165.064935 66.4489866L165.064935 66.4489866zM164.374573 71.0899339L163.770506 71.0899339 163.770506 67.3943648 165.194378 67.3943648C166.100478 67.3943648 166.531955 67.6951669 166.531955 68.4686581 166.531955 69.1562059 166.100478 69.4140363 165.582707 69.457008L166.61825 71.0899339 165.927888 71.0899339 164.97864 69.4999797 164.41772 69.4999797 164.41772 71.0899339 164.374573 71.0899339zM165.064935 69.0272907C165.539559 69.0272907 165.927888 68.9843189 165.927888 68.4256864 165.927888 67.995969 165.496411 67.9100256 165.108083 67.9100256L164.374573 67.9100256 164.374573 68.9843189 165.064935 68.9843189 165.064935 69.0272907z"/>
  </g>
</svg>
