<svg xmlns="http://www.w3.org/2000/svg" width="100" height="140" viewBox="0 0 100 140">
  <g fill="none" fill-rule="evenodd">
    <g transform="translate(4.667 23.572)">
      <path fill="#000000" d="M0.100014478,2.6170523 C0.357830372,2.20336829 1.06252715,2.16889462 1.68128529,2.54810497 C2.31723116,2.91007848 2.60942251,3.54784134 2.36879434,3.96152536 C2.11097845,4.3407357 1.40628167,4.37520937 0.787523527,4.01323586 C0.151577657,3.65126234 -0.140613689,3.01349948 0.100014478,2.6170523 Z"/>
      <polyline fill="#000000" points="2.523 4.323 14.606 11.597 14.778 11.287 2.695 4.03"/>
      <path fill="#FFFFFF" d="M14.0392604,12.9419159 C13.8330077,13.2694157 13.7470691,13.6486261 13.7470691,14.0278364 C13.7470691,14.6483624 13.9876973,15.3033621 14.4002027,15.8894145 C14.8298959,16.4927037 15.4314663,17.0442824 16.1705385,17.4924401 L55.6163702,40.6932186 C56.5273197,41.2275605 57.5070201,41.5033498 58.3664064,41.5033498 C58.8648504,41.5033498 59.328919,41.4171657 59.7242367,41.2275605 C60.1195544,41.0379553 60.463309,40.762166 60.6867494,40.4001925 L67.3555872,29.5237502 C67.5618399,29.1962503 67.6649663,28.81704 67.6477785,28.4378297 C67.6477785,27.8173036 67.4071504,27.1795408 66.9774572,26.5762516 C66.5649518,25.9729624 65.9461936,25.4213837 65.2071214,24.973226 L25.7956652,1.77244744 C24.8847157,1.23810558 23.9050153,0.962316237 23.045629,0.962316237 C22.5471849,0.962316237 22.0831163,1.04850041 21.6877986,1.23810558 C21.2924809,1.41047392 20.9315387,1.70350012 20.7080982,2.06547363 L14.0392604,12.9419159 Z"/>
      <path fill="#000000" d="M21.1034158,2.30678932 C21.2752931,2.03099998 21.5502968,1.82415794 21.8768636,1.66902643 C22.2034304,1.51389493 22.5987481,1.44494759 23.045629,1.44494759 C23.8190767,1.44494759 24.7128384,1.68626327 25.555037,2.18613145 L65.0008687,25.38691 C65.6883777,25.7833572 66.238385,26.3004622 66.616515,26.8520409 C66.9946449,27.3863828 67.2008976,27.9551983 67.2008976,28.4378297 C67.2008976,28.7480927 67.1321467,29.023882 66.9774572,29.2651977 L60.3086194,40.1416399 C60.1367422,40.4174293 59.8789263,40.6415081 59.5523595,40.7794028 C59.2257927,40.9345343 58.830475,41.0034816 58.3835941,41.0034816 C57.6101464,41.0034816 56.7163847,40.762166 55.8741861,40.2622978 L16.4111667,17.0615192 C15.7236576,16.6478352 15.1736504,16.147967 14.7955204,15.5963883 C14.4173904,15.0620465 14.2111377,14.4932309 14.2111377,14.0105996 C14.2111377,13.7003366 14.2798886,13.4245472 14.4345781,13.1832316 L21.1034159,2.30678929 L20.7080982,2.06547361 L14.0392604,12.9419159 C13.8330077,13.2694157 13.7470691,13.6486261 13.7470691,14.0278364 C13.7470691,14.6483624 13.9876973,15.3033621 14.4002027,15.8894145 C14.8298959,16.4927037 15.4314663,17.0442824 16.1705385,17.4924401 L55.6163702,40.6932186 C56.5273197,41.2275605 57.5070201,41.5033498 58.3664064,41.5033498 C58.8648504,41.5033498 59.328919,41.4171657 59.7242367,41.2275605 C60.1195544,41.0379553 60.463309,40.762166 60.6867494,40.4001925 L67.3555872,29.5237502 C67.5618399,29.1962503 67.6649663,28.81704 67.6477785,28.4378297 C67.6477785,27.8173036 67.4071504,27.1795408 66.9774572,26.5762516 C66.5649518,25.9729624 65.9461936,25.4213837 65.2071214,24.973226 L25.7956652,1.77244744 C24.8847157,1.23810558 23.9050153,0.962316237 23.045629,0.962316237 C22.5471849,0.962316237 22.0831163,1.04850041 21.6877986,1.23810558 C21.2924809,1.41047392 20.9315387,1.70350012 20.7080982,2.06547363 L21.1034158,2.30678932 Z"/>
      <polygon fill="#000000" points="38.566 25.732 53.038 34.247 53.244 33.902 38.772 25.387"/>
      <polygon fill="#000000" points="41.007 25.921 41.901 24.422 44.307 25.835 43.43 27.266 41.007 25.921 40.336 26.007 43.602 27.921 44.994 25.663 41.729 23.749 40.336 26.007"/>
      <polygon fill="#000000" points="44.44 27.921 45.321 26.507 47.744 27.921 46.868 29.351 44.44 27.921 43.774 28.11 47.04 30.024 48.415 27.766 45.166 25.852 43.774 28.11"/>
      <polygon fill="#000000" points="45.923 25.559 46.816 24.06 49.223 25.473 48.346 26.904 45.923 25.559 45.252 25.645 48.518 27.559 49.893 25.301 46.644 23.387 45.252 25.645"/>
      <polygon fill="#000000" points="47.966 29.937 48.827 28.507 51.233 29.937 50.357 31.368 47.966 29.937 47.263 30.11 50.529 32.023 51.921 29.765 48.655 27.852 47.263 30.11"/>
      <path fill="#000000" d="M21.4299827,16.3892827 C21.22373,16.2686248 21.0518527,16.1134933 20.9487264,15.9583618 C20.8284123,15.8032303 20.7940368,15.6480988 20.7940368,15.527441 C20.7940368,15.4584936 20.8112246,15.3895463 20.8456,15.3378358 L26.1566074,6.66770829 C26.1909829,6.59876096 26.2597338,6.54705046 26.3284847,6.51257679 C26.4144233,6.47810312 26.5175497,6.44362945 26.6550515,6.44362945 C26.8784919,6.44362945 27.1534956,6.51257679 27.4113114,6.66770829 L40.7661747,14.5104678 C40.9724274,14.6311256 41.1443047,14.7862571 41.2474311,14.9413886 C41.3505574,15.0965201 41.4021206,15.2516516 41.4021206,15.3723095 C41.4021206,15.4412568 41.3849329,15.5102041 41.3505574,15.5619146 L36.0223623,24.2320422 C35.9879868,24.3009895 35.9192359,24.3354632 35.850485,24.3871737 C35.7645464,24.4216473 35.66142,24.456121 35.5239182,24.456121 C35.3004778,24.456121 35.0254742,24.3871737 34.7676583,24.2320422 L21.4299827,16.3892824 L21.2065422,16.8202033 L34.5442178,24.6457262 C34.8707846,24.8353313 35.2145391,24.9387523 35.5411059,24.9387523 C35.7301709,24.9387523 35.9020482,24.9042787 36.0567377,24.8353313 C36.2114273,24.766384 36.3489291,24.6457262 36.4520554,24.4905947 L41.7630628,15.8204672 C41.8490015,15.6825725 41.8833769,15.527441 41.8833769,15.3723095 C41.8833769,15.1309938 41.7802506,14.8724413 41.6427488,14.6655993 C41.4880592,14.4415204 41.2646188,14.2519153 41.0068029,14.0795469 L27.6519396,6.23678744 C27.3253728,6.04718227 26.9816183,5.94376127 26.6550515,5.94376127 C26.4659865,5.94376127 26.2941092,5.97823493 26.1394197,6.04718227 C25.9847302,6.11612961 25.8472284,6.23678744 25.744102,6.39191895 L20.4330946,15.0620465 C20.347156,15.1999411 20.3127805,15.3550726 20.3127805,15.5102041 C20.3127805,15.7687567 20.3987191,16.0100723 20.5705964,16.2341512 C20.7252859,16.45823 20.9487264,16.6478352 21.2065423,16.8202035 L21.4299827,16.3892827 Z"/>
      <polygon fill="#FFFFFF" points="37.243 8.84 44.015 10.563 41.488 16.424 33.925 15.631"/>
      <polygon fill="#000000" points="34.427 15.348 37.363 9.115 43.671 10.736 41.333 16.165 34.427 15.348 33.547 15.838 41.643 16.682 44.341 10.408 37.105 8.547 33.547 15.838"/>
      <polygon fill="#FFFFFF" points="45.562 11.011 51.869 13.545 48.243 21.905 47.607 17.165 42.88 16.527"/>
      <polygon fill="#000000" points="45.641 11.283 51.543 13.666 48.363 21.009 47.813 16.958 43.241 16.338 45.641 11.283 45.482 10.737 42.519 16.734 47.383 17.389 48.123 22.801 52.179 13.407 45.482 10.737"/>
      <polygon fill="#FFFFFF" points="53.743 14.855 46.816 27.18 52.179 29.076 58.641 17.544"/>
      <polygon fill="#000000" points="53.657 14.528 46.472 27.317 52.299 29.386 58.985 17.441 53.657 14.528 53.85 15.16 58.315 17.63 52.076 28.783 47.177 27.042 53.85 15.16"/>
      <polygon fill="#FFFFFF" points="60.377 19.285 55.169 29.248 58.487 30.817 64.159 22.767"/>
      <polygon fill="#000000" points="60.309 18.889 54.843 29.351 58.573 31.11 64.485 22.732 60.309 18.889 60.435 19.689 63.832 22.801 58.401 30.506 55.496 29.127 60.435 19.689"/>
      <path fill="#FFFFFF" d="M57.5070201,40.4346661 L43.9459041,32.3678278 L40.4911711,27.4725669 L35.5926691,26.8348041 L36.8473731,25.5765152 L35.5926691,24.1630948 L39.2364671,25.4213837 L46.4896876,23.0427006 L46.1631208,18.7852026 L31.3473007,16.7167825 L24.2487698,28.093093 L37.5005067,45.4850585 L36.4004923,73.2191244 L55.5476193,73.2191244 L54.0522871,44.3646643 C54.0350994,44.3819011 56.132002,41.899797 57.5070201,40.4346661"/>
      <path fill="#000000" d="M57.8504347,40.3829561 L44.0869657,32.1954595 L40.6031948,27.2484881 L36.0897379,26.6624357 L37.1709082,25.5765152 L36.3643208,24.6801998 L39.2131187,25.6626994 L46.6955035,23.1978321 L46.3522749,18.5611238 L31.2330524,16.45823 L23.9737662,28.1103298 L37.2395539,45.5712427 L36.1412222,73.2363612 L55.7567402,73.2363612 L54.2465341,44.3646643 L57.850435,40.3829556 L57.0970157,40.503908 C55.7069397,41.9690389 53.8174982,44.2267696 53.8174982,44.2267696 L55.2590586,72.7537299 L36.6217423,72.7537299 L37.7029126,45.4161112 L24.5229321,28.0758561 L31.4389896,16.975335 L45.8889162,18.9920446 L46.1806605,22.8703323 L39.1959573,25.180068 L35.6435407,23.939016 L35.3861192,24.3182263 L36.5016123,25.5592784 L35.0600519,27.0071724 L40.3286119,27.6966458 L43.7437371,32.557433 L57.0970157,40.503908"/>
    </g>
    <path fill="#000000" d="M69.3868508,0.426206503 L66.9290059,0.426206503 L66.9290059,5.52830937 L65.2789842,0.426206503 L62.8211393,0.426206503 L62.8211393,11.7508064 L65.2789842,11.7508064 L65.2789842,6.59699308 L66.8086918,11.7508064 L69.3868508,11.7508064 L69.3868508,0.426206503 Z M61.7555003,7.0623876 L61.7555003,5.11462535 C61.7555003,3.95975747 61.7211249,3.13238944 61.6695617,2.66699492 C61.6179985,2.20160041 61.4461212,1.77067956 61.1539299,1.37423237 C60.8617386,0.977785191 60.4664208,0.684759013 59.9851645,0.477917005 C59.5039082,0.28831183 58.9539009,0.184890826 58.3523305,0.184890826 C57.7163847,0.184890826 57.1491897,0.28831183 56.6679334,0.495153839 C56.186677,0.701995847 55.808547,1.01225886 55.5335434,1.39146921 C55.2585398,1.78791639 55.0866625,2.21883724 55.0350994,2.68423176 C54.9835362,3.14962628 54.9491607,3.95975747 54.9491607,5.09738852 L54.9491607,7.04515076 C54.9491607,8.21725548 54.9835362,9.02738667 55.0350994,9.49278119 C55.0866625,9.95817571 55.2585398,10.3890966 55.5507311,10.7855437 C55.8429225,11.1819909 56.2382402,11.4750171 56.7194965,11.6818591 C57.2007529,11.8714643 57.7507601,11.9748853 58.3523305,11.9748853 C58.9882764,11.9748853 59.5382836,11.8714643 60.01954,11.6646223 C60.5007963,11.4577803 60.8789263,11.1475173 61.1539299,10.7510701 C61.4461212,10.3718597 61.6179985,9.95817571 61.6695617,9.47554436 C61.7211249,9.01014984 61.7555003,8.20001864 61.7555003,7.0623876 Z M58.8163991,8.54475532 C58.8163991,9.19975501 58.7820237,9.63067586 58.7304605,9.8030442 C58.6788973,9.97541254 58.5413955,10.0788335 58.3523305,10.0788335 C58.1632655,10.0788335 58.0257637,10.0098862 57.9742005,9.85475471 C57.9226374,9.6996232 57.8882619,9.30317602 57.8882619,8.64817633 L57.8882619,3.35646828 C57.8882619,2.77041593 57.9398251,2.42567925 58.008576,2.30502141 C58.0945146,2.18436357 58.2148287,2.13265307 58.3695182,2.13265307 C58.5585832,2.13265307 58.6788973,2.20160041 58.7304605,2.35673191 C58.7820237,2.51186342 58.8163991,2.83936326 58.8163991,3.37370512 L58.8163991,8.54475532 L58.8163991,8.54475532 L58.8163991,8.54475532 Z M53.6944567,11.7508064 L53.6944567,0.426206503 L50.7553555,0.426206503 L50.7553555,11.7508064 L53.6944567,11.7508064 Z M49.724092,2.66699492 L49.724092,0.391732834 L43.2615069,0.391732834 L43.2615069,2.66699492 L45.014655,2.66699492 L45.014655,11.7680433 L47.9709439,11.7680433 L47.9709439,2.66699492 L49.724092,2.66699492 Z M42.0583661,7.99317663 L42.0583661,0.426206503 L39.1192649,0.426206503 L39.1192649,8.76883416 C39.1192649,9.33764969 39.0848894,9.68238637 39.0333262,9.83751787 C38.9817631,9.99264938 38.861449,10.0615967 38.672384,10.0615967 C38.5176945,10.0615967 38.3973804,9.99264938 38.3458172,9.85475471 C38.294254,9.71686003 38.2598786,9.40659702 38.2598786,8.90672884 L38.2598786,0.408969669 L35.3207774,0.408969669 L35.3207774,7.1140981 C35.3207774,8.38962382 35.3379651,9.23422868 35.3895283,9.63067586 C35.4410915,10.027123 35.5785933,10.4063334 35.8364092,10.7683069 C36.0942251,11.1302804 36.472355,11.4233066 36.9879868,11.6473854 C37.5036186,11.8714643 38.105189,11.9748853 38.7755104,11.9748853 C39.3942685,11.9748853 39.9099003,11.8887011 40.3739689,11.6990959 C40.8208498,11.5094908 41.181792,11.2337014 41.4567956,10.8717279 C41.748987,10.5097544 41.9208643,10.1477809 41.9724274,9.8030442 C42.0239906,9.45830752 42.0583661,8.85501833 42.0583661,7.99317663 Z M34.4785788,11.7508064 L34.4785788,9.47554436 L32.708243,9.47554436 L32.708243,0.408969669 L29.7691418,0.408969669 L29.7691418,11.7508064 L34.4785788,11.7508064 Z M28.6863151,7.0623876 L28.6863151,5.11462535 C28.6863151,3.95975747 28.6519396,3.13238944 28.6003764,2.66699492 C28.5488133,2.20160041 28.376936,1.77067956 28.0847446,1.37423237 C27.7925533,0.977785191 27.3972356,0.684759013 26.9159793,0.477917005 C26.4347229,0.28831183 25.8847157,0.184890826 25.2831453,0.184890826 C24.6471994,0.184890826 24.0800044,0.28831183 23.5987481,0.495153839 C23.1174918,0.701995847 22.7393618,1.01225886 22.4643582,1.39146921 C22.1721668,1.78791639 22.0174773,2.21883724 21.9659141,2.68423176 C21.9143509,3.14962628 21.8971632,3.95975747 21.8971632,5.09738852 L21.8971632,7.04515076 C21.8971632,8.21725548 21.9315387,9.02738667 21.9831018,9.49278119 C22.034665,9.95817571 22.22373,10.3890966 22.5159214,10.7855437 C22.8081127,11.1819909 23.2034304,11.4750171 23.6846867,11.6818591 C24.1659431,11.8714643 24.7159503,11.9748853 25.3175207,11.9748853 C25.9534666,11.9748853 26.5206616,11.8714643 27.0019179,11.6646223 C27.4831742,11.4577803 27.8613042,11.1475173 28.1534956,10.7510701 C28.376936,10.3718597 28.5488133,9.95817571 28.6003764,9.47554436 C28.6519396,9.01014984 28.6863151,8.20001864 28.6863151,7.0623876 Z M25.7472139,8.54475532 C25.7472139,9.19975501 25.7128384,9.63067586 25.6612752,9.8030442 C25.6097121,9.97541254 25.4722103,10.0788335 25.2831453,10.0788335 C25.0768926,10.0788335 24.9565785,10.0098862 24.9050153,9.85475471 C24.8534521,9.6996232 24.8190767,9.30317602 24.8190767,8.64817633 L24.8190767,3.35646828 C24.8190767,2.77041593 24.8706398,2.42567925 24.9393907,2.30502141 C25.0253294,2.18436357 25.1456435,2.13265307 25.300333,2.13265307 C25.489398,2.13265307 25.6097121,2.20160041 25.6612752,2.35673191 C25.7128384,2.51186342 25.7472139,2.83936326 25.7472139,3.37370512 L25.7472139,8.54475532 L25.7472139,8.54475532 L25.7472139,8.54475532 Z M21.4674701,0.426206503 L18.3736793,0.426206503 C18.3736793,0.426206503 17.8408598,6.18330906 17.6861703,8.35515015 C17.5314807,6.2005459 17.2736649,3.56331029 16.9127226,0.426206503 L13.8189319,0.426206503 L15.5205168,11.7508064 L19.9721379,11.7508064 L21.4674701,0.426206503 Z M13.6470546,11.7508064 L13.6470546,9.47554436 L11.4985888,9.47554436 L11.4985888,6.99344026 L13.3376755,6.99344026 L13.3376755,4.83883601 L11.4985888,4.83883601 L11.4985888,2.68423176 L13.4579896,2.68423176 L13.4579896,0.408969669 L8.55948766,0.408969669 L8.55948766,11.7508064 L13.6470546,11.7508064 Z M7.42509773,11.7508064 L7.42509773,8.76883416 C7.42509773,7.85528196 7.40791,7.30370327 7.35634682,7.09686126 C7.30478364,6.89001926 7.18446956,6.66594041 6.97821685,6.42462474 C6.77196413,6.18330906 6.39383415,5.99370389 5.80945146,5.83857238 C6.44539733,5.78686188 6.87509049,5.59725671 7.09853093,5.28699369 C7.32197137,4.97673068 7.42509773,4.39067833 7.42509773,3.51159979 C7.42509773,2.54633709 7.27040819,1.83962689 6.96102912,1.40870604 C6.65165005,0.960548357 6.25633234,0.684759013 5.75788828,0.581338009 C5.25944422,0.477917005 4.33130701,0.426206503 2.93910118,0.426206503 L0.859386311,0.426206503 L0.859386311,11.7508064 L3.7984875,11.7508064 L3.7984875,6.64870358 C4.1938052,6.64870358 4.45162109,6.71765092 4.53755972,6.87278242 C4.64068608,7.01067709 4.67506153,7.38988744 4.67506153,7.99317663 L4.67506153,11.7508064 L7.42509773,11.7508064 Z M4.69224926,3.85633647 C4.69224926,4.35620466 4.62349835,4.64923084 4.50318427,4.75265184 C4.36568246,4.83883601 4.14224202,4.89054651 3.81567522,4.89054651 L3.81567522,2.35673191 C4.15942975,2.35673191 4.38287019,2.40844241 4.520372,2.52910025 C4.64068608,2.64975809 4.70943698,2.87383693 4.70943698,3.23581045 L4.70943698,3.85633647 L4.69224926,3.85633647 L4.69224926,3.85633647 Z" transform="translate(16.354 103.625)"/>
    <g transform="translate(16.354 81.968)">
      <g fill="#000000" fill-opacity=".2" transform="translate(1.547 .726)">
        <path d="M8.04385587,18.8570964 L1.32345492,18.8570964 C0.825010859,18.8570964 0.378129977,18.5640702 0.189064988,18.0986757 L0.0515631787,17.7884127 C-0.0515631787,17.547097 -0.0687509049,17.2713077 8.5348395e-15,17.0127552 L4.12505429,1.30999938 C4.2625561,0.77565753 4.74381244,0.396447182 5.3110074,0.396447182 L13.9048705,0.396447182 C16.8095962,0.396447182 18.6143075,0.982499539 19.5940079,2.24078842 C20.2987047,3.15434062 20.4705819,4.34368217 20.092452,5.73986573 C19.6799465,7.32565445 18.8033725,8.53223284 17.4971053,9.34236403 C17.6689826,9.49749554 17.8236721,9.66986388 17.9611739,9.85946905 C18.6143075,10.7557844 18.7518093,11.9278891 18.3736793,13.3413095 C17.4627298,16.8403868 13.6986178,18.8570964 8.04385587,18.8570964 L8.04385587,18.8570964 Z M9.31574761,12.2381521 L9.07511945,13.1517044 C9.96888121,13.0482833 10.0720076,12.669073 10.1407585,12.4105205 C10.1579462,12.3760468 10.1579462,12.3415732 10.1579462,12.3070995 C10.0376321,12.2726258 9.79700395,12.2381521 9.40168624,12.2381521 L9.31574761,12.2381521 L9.31574761,12.2381521 Z M10.9313939,6.06736557 L10.7767043,6.65341793 C11.3095239,6.54999692 11.4470257,6.30868125 11.4985888,6.08460241 C11.3954625,6.06736557 11.2579607,6.06736557 11.051708,6.06736557 L10.9313939,6.06736557 L10.9313939,6.06736557 Z"/>
        <path d="M26.4862861,19.1673594 L26.2628457,19.1673594 L26.056593,19.1673594 C22.8424881,19.1673594 20.6940224,18.3744651 19.4393184,16.7542027 C17.8236721,14.6513089 18.2877407,11.8072313 18.9408743,9.30789037 C19.8518238,5.86052356 21.3643437,0.0861841701 30.6457159,0.0861841701 C34.1004488,0.0861841701 36.4036041,0.879078535 37.6411204,2.49934093 C39.3427053,4.70565569 38.5520699,7.73933847 37.9676872,9.94565322 C36.850485,14.2376249 34.530142,19.1673594 26.4862861,19.1673594 L26.4862861,19.1673594 Z M26.744102,13.0310465 C26.7956652,13.0482833 26.933167,13.082757 27.2425461,13.082757 C28.4628746,13.082757 28.8066291,12.5484152 29.6488277,9.30789037 C29.9066436,8.30815399 30.3535245,6.65341793 30.198835,6.20526024 C30.1472718,6.18802341 29.9925823,6.15354974 29.7003909,6.15354974 C28.4800623,6.15354974 28.1363078,6.6878916 27.2941092,9.92841639 C27.0191056,10.9281528 26.5894125,12.5828888 26.744102,13.0310465 L26.744102,13.0310465 Z"/>
        <path d="M41.9896152,19.1673594 C39.8239617,19.1673594 37.7270591,18.5813071 36.3864164,17.6160444 C35.973911,17.3230182 35.784846,16.8059132 35.9223478,16.306045 L36.8161096,12.9276255 C36.9536114,12.3932837 37.41768,12.0313101 37.9676872,12.0140733 L38.6208208,11.9968365 C38.9301999,11.9795996 39.2052035,12.1002575 39.4458317,12.2898626 C40.116153,12.8586782 41.3021061,13.2206517 42.5224347,13.2206517 C43.5193228,13.2206517 44.0865178,13.082757 44.2927705,12.9276255 C43.9490159,12.7035467 43.2443192,12.4105205 42.7458751,12.2036785 C40.6145971,11.3245999 37.03955,9.85946905 38.1223768,5.79157623 C39.0848894,2.15460425 42.6083733,0.0861841701 47.8334421,0.0861841701 C50.7553555,0.0861841701 52.4913159,0.586052356 54.0038358,1.84434124 C54.364778,2.15460425 54.5194676,2.6372356 54.3991535,3.10263012 L53.5053917,6.49828642 C53.3678899,7.03262828 52.8866336,7.39460179 52.3366263,7.41183862 L51.8725577,7.41183862 C51.5459909,7.41183862 51.2366119,7.29118079 50.9959837,7.04986511 C50.4631642,6.51552326 49.345962,6.15354974 48.1428211,6.15354974 C47.4209366,6.15354974 46.9396803,6.22249708 46.6303012,6.32591808 C46.9396803,6.46381275 47.3006226,6.61894426 47.5928139,6.72236526 C49.6381533,7.5497333 53.4366408,9.08381152 52.3538141,13.1517044 C51.6319296,15.9095978 49.2428356,19.1673594 41.9896152,19.1673594 L41.9896152,19.1673594 Z"/>
        <path d="M56.9945002,19.1673594 C54.8288466,19.1673594 52.731944,18.5813071 51.3913014,17.6160444 C50.978796,17.3230182 50.789731,16.8059132 50.9272328,16.306045 C50.9272328,16.306045 51.5288032,14.0135461 51.8209946,12.9276255 C51.9584964,12.3932837 52.422565,12.0313101 52.9725722,12.0140733 L53.6085181,11.9968365 C53.9007094,11.9795996 54.1929008,12.1002575 54.4163412,12.2898626 C55.0866625,12.8586782 56.2726157,13.2206517 57.4929442,13.2206517 C58.4898323,13.2206517 59.0398396,13.082757 59.26328,12.9448623 C58.9195255,12.7207835 58.2148287,12.4277573 57.7163847,12.2209153 C55.5851066,11.3418368 52.0272473,9.85946905 53.0928863,5.80881306 C54.055399,2.17184109 57.5788828,0.103421004 62.8039516,0.103421004 C65.7258651,0.103421004 67.4618254,0.60328919 68.9743453,1.86157807 C69.3352876,2.17184109 69.4899771,2.65447244 69.369663,3.11986696 C69.369663,3.11986696 68.7337172,5.49855005 68.4759013,6.51552326 C68.3383995,7.04986511 67.8743309,7.41183862 67.3243236,7.42907546 L66.860255,7.41183862 C66.5336882,7.41183862 66.2071214,7.29118079 65.9664932,7.04986511 C65.416486,6.49828642 64.2992838,6.15354974 63.1305184,6.15354974 C62.4086339,6.15354974 61.9273776,6.22249708 61.6179985,6.32591808 C61.9273776,6.46381275 62.2883198,6.61894426 62.5805112,6.72236526 C64.6258506,7.5497333 68.4243381,9.08381152 67.3415113,13.1517044 C66.6368146,15.9095978 64.2649083,19.1673594 56.9945002,19.1673594 L56.9945002,19.1673594 Z"/>
      </g>
      <g fill="#FFFFFF" transform="translate(.688 .037)">
        <path d="M8.04385587,18.8570964 L1.32345492,18.8570964 C0.825010859,18.8570964 0.378129977,18.5640702 0.189064988,18.0986757 L0.0515631787,17.7884127 C-0.0515631787,17.547097 -0.0687509049,17.2713077 8.5348395e-15,17.0127552 L4.12505429,1.30999938 C4.2625561,0.77565753 4.74381244,0.396447182 5.3110074,0.396447182 L13.9048705,0.396447182 C16.8095962,0.396447182 18.6143075,0.982499539 19.5940079,2.24078842 C20.2987047,3.15434062 20.4705819,4.34368217 20.092452,5.73986573 C19.6799465,7.32565445 18.8033725,8.53223284 17.4971053,9.34236403 C17.6689826,9.49749554 17.8236721,9.66986388 17.9611739,9.85946905 C18.6143075,10.7557844 18.7518093,11.9278891 18.3736793,13.3413095 C17.4627298,16.8403868 13.6986178,18.8570964 8.04385587,18.8570964 L8.04385587,18.8570964 Z M9.31574761,12.2381521 L9.07511945,13.1517044 C9.96888121,13.0482833 10.0720076,12.669073 10.1407585,12.4105205 C10.1579462,12.3760468 10.1579462,12.3415732 10.1579462,12.3070995 C10.0376321,12.2726258 9.79700395,12.2381521 9.40168624,12.2381521 L9.31574761,12.2381521 L9.31574761,12.2381521 Z M10.9313939,6.06736557 L10.7767043,6.65341793 C11.3095239,6.54999692 11.4470257,6.30868125 11.4985888,6.08460241 C11.3954625,6.06736557 11.2579607,6.06736557 11.051708,6.06736557 L10.9313939,6.06736557 L10.9313939,6.06736557 Z"/>
        <path d="M26.4862861,19.1673594 L26.2628457,19.1673594 L26.056593,19.1673594 C22.8424881,19.1673594 20.6940224,18.3744651 19.4393184,16.7542027 C17.8236721,14.6513089 18.2877407,11.8072313 18.9408743,9.30789037 C19.8518238,5.86052356 21.3643437,0.0861841701 30.6457159,0.0861841701 C34.1004488,0.0861841701 36.4036041,0.879078535 37.6411204,2.49934093 C39.3427053,4.70565569 38.5520699,7.73933847 37.9676872,9.94565322 C36.850485,14.2376249 34.530142,19.1673594 26.4862861,19.1673594 L26.4862861,19.1673594 Z M26.744102,13.0310465 C26.7956652,13.0482833 26.933167,13.082757 27.2425461,13.082757 C28.4628746,13.082757 28.8066291,12.5484152 29.6488277,9.30789037 C29.9066436,8.30815399 30.3535245,6.65341793 30.198835,6.20526024 C30.1472718,6.18802341 29.9925823,6.15354974 29.7003909,6.15354974 C28.4800623,6.15354974 28.1363078,6.6878916 27.2941092,9.92841639 C27.0191056,10.9281528 26.5894125,12.5828888 26.744102,13.0310465 L26.744102,13.0310465 Z"/>
        <path d="M41.9896152,19.1673594 C39.8239617,19.1673594 37.7270591,18.5813071 36.3864164,17.6160444 C35.973911,17.3230182 35.784846,16.8059132 35.9223478,16.306045 L36.8161096,12.9276255 C36.9536114,12.3932837 37.41768,12.0313101 37.9676872,12.0140733 L38.6208208,11.9968365 C38.9301999,11.9795996 39.2052035,12.1002575 39.4458317,12.2898626 C40.116153,12.8586782 41.3021061,13.2206517 42.5224347,13.2206517 C43.5193228,13.2206517 44.0865178,13.082757 44.2927705,12.9276255 C43.9490159,12.7035467 43.2443192,12.4105205 42.7458751,12.2036785 C40.6145971,11.3245999 37.03955,9.85946905 38.1223768,5.79157623 C39.0848894,2.15460425 42.6083733,0.0861841701 47.8334421,0.0861841701 C50.7553555,0.0861841701 52.4913159,0.586052356 54.0038358,1.84434124 C54.364778,2.15460425 54.5194676,2.6372356 54.3991535,3.10263012 L53.5053917,6.49828642 C53.3678899,7.03262828 52.8866336,7.39460179 52.3366263,7.41183862 L51.8725577,7.41183862 C51.5459909,7.41183862 51.2366119,7.29118079 50.9959837,7.04986511 C50.4631642,6.51552326 49.345962,6.15354974 48.1428211,6.15354974 C47.4209366,6.15354974 46.9396803,6.22249708 46.6303012,6.32591808 C46.9396803,6.46381275 47.3006226,6.61894426 47.5928139,6.72236526 C49.6381533,7.5497333 53.4366408,9.08381152 52.3538141,13.1517044 C51.6319296,15.9095978 49.2428356,19.1673594 41.9896152,19.1673594 L41.9896152,19.1673594 Z"/>
        <path d="M56.9945002,19.1673594 C54.8288466,19.1673594 52.731944,18.5813071 51.3913014,17.6160444 C50.978796,17.3230182 50.789731,16.8059132 50.9272328,16.306045 C50.9272328,16.306045 51.5288032,14.0135461 51.8209946,12.9276255 C51.9584964,12.3932837 52.422565,12.0313101 52.9725722,12.0140733 L53.6085181,11.9968365 C53.9007094,11.9795996 54.1929008,12.1002575 54.4163412,12.2898626 C55.0866625,12.8586782 56.2726157,13.2206517 57.4929442,13.2206517 C58.4898323,13.2206517 59.0398396,13.082757 59.26328,12.9448623 C58.9195255,12.7207835 58.2148287,12.4277573 57.7163847,12.2209153 C55.5851066,11.3418368 52.0272473,9.85946905 53.0928863,5.80881306 C54.055399,2.17184109 57.5788828,0.103421004 62.8039516,0.103421004 C65.7258651,0.103421004 67.4618254,0.60328919 68.9743453,1.86157807 C69.3352876,2.17184109 69.4899771,2.65447244 69.369663,3.11986696 C69.369663,3.11986696 68.7337172,5.49855005 68.4759013,6.51552326 C68.3383995,7.04986511 67.8743309,7.41183862 67.3243236,7.42907546 L66.860255,7.41183862 C66.5336882,7.41183862 66.2071214,7.29118079 65.9664932,7.04986511 C65.416486,6.49828642 64.2992838,6.15354974 63.1305184,6.15354974 C62.4086339,6.15354974 61.9273776,6.22249708 61.6179985,6.32591808 C61.9273776,6.46381275 62.2883198,6.61894426 62.5805112,6.72236526 C64.6258506,7.5497333 68.4243381,9.08381152 67.3415113,13.1517044 C66.6368146,15.9095978 64.2649083,19.1673594 56.9945002,19.1673594 L56.9945002,19.1673594 Z"/>
      </g>
      <g fill="#6D1B00" transform="translate(2.063 1.588)">
        <path d="M.0515631787 15.9785451C.63594587 13.7377567 4.17661747.275789344 4.17661747.275789344L12.7704806.275789344C16.8955349.275789344 18.4424302 1.55131506 17.7721089 4.08512966 17.3080403 5.84328673 16.0533363 7.53249646 12.615791 7.96341731L12.5986033 8.01512782C16.0877117 8.22196982 16.5517804 9.82499539 16.0533363 11.6865735 15.2283254 14.8064404 11.6360907 16.2888081 6.87509049 16.2888081L.154689536 16.2888081.0515631787 15.9785451.0515631787 15.9785451zM6.34227098 13.0655202L7.37353455 13.0655202C8.95480536 13.0655202 9.86575485 12.5484152 10.1751339 11.3763104 10.484513 10.2042057 9.84856713 9.66986388 8.26729631 9.66986388L7.23603274 9.66986388 6.34227098 13.0655202 6.34227098 13.0655202zM8.0610436 6.58447059L9.09230717 6.58447059C10.4501375 6.58447059 11.2923361 6.08460241 11.5673397 4.99868186 11.8595311 3.89552449 11.2579607 3.51631414 9.93450576 3.51631414L8.86886673 3.51631414 8.0610436 6.58447059 8.0610436 6.58447059zM35.6645319 8.27368033C34.6848315 12.0140733 32.7941816 16.6852553 25.1456435 16.5990712 17.4455421 16.6852553 18.0127371 12.0313101 18.9924375 8.27368033 19.9721379 4.53328734 21.3643437-.051710502 29.5113259-.051710502 37.6754959-.034473668 36.6442323 4.53328734 35.6645319 8.27368033L35.6645319 8.27368033zM26.0909684 12.9620992C28.4113114 12.9620992 28.9269432 11.1694684 29.6832032 8.27368033 30.4394631 5.37789221 30.8691563 3.58526147 28.5488133 3.58526147 26.2284702 3.58526147 25.7128384 5.37789221 24.9565785 8.27368033 24.2175062 11.1694684 23.7706254 12.9620992 26.0909684 12.9620992L26.0909684 12.9620992zM50.7037924 4.84355036C49.9475324 4.08512966 48.5553266 3.58526147 46.9912435 3.58526147 45.513099 3.58526147 44.1037055 3.87828765 43.8458896 4.86078719 43.3646333 6.72236526 51.3225505 6.58447059 50.033471 11.4969683 49.156897 14.8409141 46.0115431 16.5818343 40.8380375 16.5818343 38.9645753 16.5818343 37.0911132 16.0819661 35.9567233 15.2545981 35.9567233 15.2545981 36.5582937 12.9620992 36.850485 11.8761786L37.5036186 11.8589418C38.3973804 12.6001257 39.8411494 13.0655202 41.370857 13.0655202 43.6224492 13.0655202 44.258395 12.4449942 44.44746 11.738284 45.0662182 9.3768377 36.7989218 9.80775855 38.1395645 4.72289252 38.9301999 1.68920973 41.938052-.068947336 46.6646767-.068947336 49.4319006-.068947336 50.8241064.379210348 52.0616227 1.41342039 52.0616227 1.41342039 51.4256769 3.80934032 51.167861 4.80907669L50.7037924 4.84355036 50.7037924 4.84355036zM65.7086773 4.84355036C64.9524174 4.08512966 63.5602116 3.58526147 62.0133162 3.58526147 60.5351718 3.58526147 59.1257782 3.87828765 58.8679623 4.86078719 58.3695182 6.72236526 66.3446232 6.58447059 65.0555437 11.4969683 64.1789697 14.8409141 61.0336158 16.5818343 55.8601102 16.5818343 53.9866481 16.5818343 52.1131859 16.0819661 50.978796 15.2545981 50.978796 15.2545981 51.5803664 12.9620992 51.8725577 11.8761786L52.5256913 11.8589418C53.4194531 12.6001257 54.8632221 13.0655202 56.3929297 13.0655202 58.6445219 13.0655202 59.2804677 12.4449942 59.4695327 11.738284 60.0882909 9.3768377 51.8209946 9.80775855 53.1616372 4.72289252 53.9522726 1.68920973 56.9601247-.068947336 61.6867494-.068947336 64.4539733-.068947336 65.8461792.379210348 67.0836954 1.41342039 67.0836954 1.41342039 66.4649373 3.79210348 66.1899337 4.80907669L65.7086773 4.84355036 65.7086773 4.84355036z"/>
      </g>
      <g fill="#DC0814" transform="translate(1.719 1.243)">
        <path d="M0 15.995782C.584382692 13.7549935 4.12505429.293026178 4.12505429.293026178L12.7189174.293026178C16.8439717.293026178 18.3908671 1.5685519 17.7205457 4.10236649 17.2564771 5.84328673 16.0017731 7.5497333 12.5642279 7.98065415L12.5470401 8.03236465C16.0361486 8.23920666 16.5002172 9.84223222 16.0017731 11.7038103 15.1767623 14.8236772 11.5845275 16.306045 6.82352731 16.306045L.103126357 16.306045 0 15.995782 0 15.995782zM6.2907078 13.0655202L7.32197137 13.0655202C8.90324218 13.0655202 9.81419167 12.5484152 10.1235707 11.3763104 10.4329498 10.2042057 9.79700395 9.66986388 8.21573313 9.66986388L7.18446956 9.66986388 6.2907078 13.0655202 6.2907078 13.0655202zM7.99229269 6.58447059L9.02355627 6.58447059C10.3813866 6.58447059 11.2235852 6.08460241 11.4985888 4.99868186 11.7907802 3.89552449 11.1892098 3.51631414 9.86575485 3.51631414L8.80011583 3.51631414 7.99229269 6.58447059 7.99229269 6.58447059zM35.6129687 8.29091716C34.6332683 12.0313101 32.7426185 16.7024922 25.0940803 16.616308 17.3939789 16.7024922 17.9611739 12.048547 18.9408743 8.29091716 19.9205747 4.55052418 21.3127805-.034473668 29.4597627-.034473668 37.606745-.017236834 36.5926691 4.55052418 35.6129687 8.29091716L35.6129687 8.29091716zM26.0394052 12.979336C28.3597483 12.979336 28.8753801 11.1867053 29.63164 8.29091716 30.3879 5.39512905 30.8175931 3.60249831 28.4972501 3.60249831 26.176907 3.60249831 25.6612752 5.39512905 24.9050153 8.29091716 24.1487553 11.1867053 23.7190622 12.979336 26.0394052 12.979336L26.0394052 12.979336zM50.6522292 4.86078719C49.8959692 4.10236649 48.5037634 3.61973514 46.9396803 3.61973514 45.4615359 3.61973514 44.0521423 3.91276132 43.7943264 4.89526086 43.2958824 6.75683893 51.2709873 6.61894426 49.9819079 11.531442 49.1053338 14.8753878 45.9427922 16.616308 40.7864743 16.616308 38.9130122 16.616308 37.03955 16.1164398 35.9051601 15.2890718 35.9051601 15.2890718 36.5067305 12.9965728 36.7989218 11.9106523L37.4348677 11.8934155C38.3114417 12.6345993 39.7723985 13.1172307 41.3021061 13.1172307 43.5536982 13.1172307 44.1896441 12.4967047 44.3787091 11.7899945 44.9974672 9.4285482 36.7301709 9.85946905 38.0708136 4.77460302 38.861449 1.74092024 41.8693011-.017236834 46.5959258-.017236834 49.3631497-.017236834 50.7553555.43092085 51.9928718 1.46513089 51.9928718 1.46513089 51.356926 3.86105082 51.0991101 4.86078719L50.6522292 4.86078719 50.6522292 4.86078719zM65.6399264 4.86078719C64.8836665 4.10236649 63.4914607 3.61973514 61.9445653 3.61973514 60.4664208 3.61973514 59.074215 3.91276132 58.8163991 4.89526086 58.3351428 6.75683893 66.29306 6.61894426 65.0039806 11.531442 64.1274065 14.8753878 60.9820526 16.616308 55.808547 16.616308 53.9350849 16.616308 52.0616227 16.1164398 50.9272328 15.2890718 50.9272328 15.2890718 51.5288032 12.9965728 51.8209946 11.9106523L52.4569404 11.8934155C53.3507022 12.6345993 54.7944712 13.1172307 56.3241788 13.1172307 58.575771 13.1172307 59.2117168 12.4967047 59.4007818 11.7899945 60.01954 9.4285482 51.7522437 9.85946905 53.0928863 4.77460302 53.8835217 1.74092024 56.9085615-.017236834 61.6179985-.017236834 64.3852224-.017236834 65.7774283.43092085 67.0149445 1.46513089 67.0149445 1.46513089 66.3789987 3.84381398 66.1211828 4.86078719L65.6399264 4.86078719 65.6399264 4.86078719z"/>
      </g>
    </g>
    <path fill="#000000" d="M75 48.5C73.5197368 48.5 72.5 47.4285714 72.5 46 72.5 44.474026 73.6513158 43.5 75 43.5 76.3486842 43.5 77.5 44.5064935 77.5 46 77.4671053 47.4935065 76.3157895 48.5 75 48.5L75 48.5zM75 43.9220779C73.8815789 43.9220779 73.0263158 44.7662338 73.0263158 46 73.0263158 47.1363636 73.7828947 48.0779221 75 48.0779221 76.0855263 48.0779221 76.9407895 47.2337662 76.9407895 46 76.9407895 44.7662338 76.0855263 43.9220779 75 43.9220779L75 43.9220779zM74.4736842 47.4285714L74.0131579 47.4285714 74.0131579 44.6363636 75.0986842 44.6363636C75.7894737 44.6363636 76.1184211 44.8636364 76.1184211 45.4480519 76.1184211 45.9675325 75.7894737 46.1623377 75.3947368 46.1948052L76.1842105 47.4285714 75.6578947 47.4285714 74.9342105 46.2272727 74.5065789 46.2272727 74.5065789 47.4285714 74.4736842 47.4285714zM75 45.8701299C75.3618421 45.8701299 75.6578947 45.8376623 75.6578947 45.4155844 75.6578947 45.0909091 75.3289474 45.025974 75.0328947 45.025974L74.4736842 45.025974 74.4736842 45.8376623 75 45.8376623 75 45.8701299zM90 108.5C88.5197368 108.5 87.5 107.428571 87.5 106 87.5 104.474026 88.6513158 103.5 90 103.5 91.3486842 103.5 92.5 104.506494 92.5 106 92.4671053 107.493506 91.3157895 108.5 90 108.5L90 108.5zM90 103.922078C88.8815789 103.922078 88.0263158 104.766234 88.0263158 106 88.0263158 107.136364 88.7828947 108.077922 90 108.077922 91.0855263 108.077922 91.9407895 107.233766 91.9407895 106 91.9407895 104.766234 91.0855263 103.922078 90 103.922078L90 103.922078zM89.4736842 107.428571L89.0131579 107.428571 89.0131579 104.636364 90.0986842 104.636364C90.7894737 104.636364 91.1184211 104.863636 91.1184211 105.448052 91.1184211 105.967532 90.7894737 106.162338 90.3947368 106.194805L91.1842105 107.428571 90.6578947 107.428571 89.9342105 106.227273 89.5065789 106.227273 89.5065789 107.428571 89.4736842 107.428571zM90 105.87013C90.3618421 105.87013 90.6578947 105.837662 90.6578947 105.415584 90.6578947 105.090909 90.3289474 105.025974 90.0328947 105.025974L89.4736842 105.025974 89.4736842 105.837662 90 105.837662 90 105.87013z"/>
    <rect width="69" height="1" x="17" y="119" fill="#000000"/>
    <path fill="#000000" d="M20.771 130L20.771 125.356 20.204 125.356 20.204 127.795C20.204 128.029001 20.1770003 128.258499 20.123 128.4835 20.0689997 128.708501 19.9850006 128.907999 19.871 129.082 19.7569994 129.256001 19.6130009 129.395499 19.439 129.5005 19.2649991 129.605501 19.0550012 129.658 18.809 129.658 18.3589978 129.658 18.0425009 129.550001 17.8595 129.334 17.6764991 129.117999 17.5790001 128.800002 17.567 128.38L17.567 125.356 17 125.356 17 128.371C17 128.647001 17.0299997 128.892999 17.09 129.109 17.1500003 129.325001 17.2444994 129.507999 17.3735 129.658 17.5025006 129.808001 17.670499 129.9235 17.8775 130.0045 18.084501 130.0855 18.3349985 130.126 18.629 130.126 18.9770017 130.126 19.2934986 130.043501 19.5785 129.8785 19.8635014 129.713499 20.0809993 129.475002 20.231 129.163L20.249 129.163 20.249 130 20.771 130zM22 125.356L22 130 22.567 130 22.567 127.291C22.573 127.062999 22.6104997 126.851501 22.6795 126.6565 22.7485003 126.461499 22.8444994 126.293501 22.9675 126.1525 23.0905006 126.011499 23.2404991 125.9005 23.4175 125.8195 23.5945009 125.7385 23.7969989 125.698 24.025 125.698 24.2530011 125.698 24.4434992 125.734 24.5965 125.806 24.7495008 125.878 24.8709996 125.976999 24.961 126.103 25.0510005 126.229001 25.1139998 126.377499 25.15 126.5485 25.1860002 126.719501 25.204 126.903999 25.204 127.102L25.204 130 25.771 130 25.771 127.012C25.771 126.735999 25.7440003 126.487001 25.69 126.265 25.6359997 126.042999 25.5430007 125.855501 25.411 125.7025 25.2789993 125.549499 25.1035011 125.431 24.8845 125.347 24.6654989 125.263 24.3940016 125.221 24.07 125.221 23.7399984 125.221 23.4370014 125.306499 23.161 125.4775 22.8849986 125.648501 22.6930005 125.874999 22.585 126.157L22.567 126.157 22.567 125.356 22 125.356zM27 123.574L27 124.483 27.567 124.483 27.567 123.574 27 123.574zM27 125.356L27 130 27.567 130 27.567 125.356 27 125.356zM29.9770004 125.356L29.9770004 123.961 29.4100004 123.961 29.4100004 125.356 28.6000004 125.356 28.6000004 125.833 29.4100004 125.833 29.4100004 129.01C29.4040004 129.406002 29.4759996 129.677499 29.6260004 129.8245 29.7760011 129.971501 30.0399985 130.045 30.4180004 130.045 30.5020008 130.045 30.586 130.042 30.6700004 130.036 30.7540008 130.03 30.838 130.027 30.9220004 130.027L30.9220004 129.55C30.7599996 129.568 30.5980012 129.577 30.4360004 129.577 30.2319994 129.565 30.1045006 129.506501 30.0535004 129.4015 30.0025001 129.296499 29.9770004 129.151001 29.9770004 128.965L29.9770004 125.833 30.9220004 125.833 30.9220004 125.356 29.9770004 125.356zM35.474 127.354L32.468 127.354C32.4920001 127.143999 32.5414996 126.938501 32.6165 126.7375 32.6915004 126.536499 32.7919994 126.359501 32.918 126.2065 33.0440007 126.053499 33.1969991 125.9305 33.377 125.8375 33.5570009 125.7445 33.7639989 125.698 33.998 125.698 34.2260012 125.698 34.4299991 125.7445 34.61 125.8375 34.7900009 125.9305 34.9429994 126.053499 35.069 126.2065 35.1950007 126.359501 35.2924997 126.534999 35.3615 126.733 35.4305004 126.931001 35.468 127.137999 35.474 127.354L35.474 127.354zM32.468 127.831L36.041 127.831C36.0530001 127.506998 36.0230004 127.187502 35.951 126.8725 35.8789997 126.557498 35.7605008 126.278501 35.5955 126.0355 35.4304992 125.792499 35.2160013 125.596001 34.952 125.446 34.6879987 125.295999 34.3700019 125.221 33.998 125.221 33.6319982 125.221 33.3155014 125.291499 33.0485 125.4325 32.7814987 125.573501 32.5640009 125.759499 32.396 125.9905 32.2279992 126.221501 32.1035004 126.483999 32.0225 126.778 31.9414996 127.072001 31.901 127.371998 31.901 127.678 31.901 128.008002 31.9414996 128.321499 32.0225 128.6185 32.1035004 128.915501 32.2279992 129.176499 32.396 129.4015 32.5640009 129.626501 32.7814987 129.803499 33.0485 129.9325 33.3155014 130.061501 33.6319982 130.126 33.998 130.126 34.586003 130.126 35.0404984 129.982001 35.3615 129.694 35.6825016 129.405999 35.9029994 128.998003 36.023 128.47L35.456 128.47C35.3659996 128.830002 35.2040012 129.117999 34.97 129.334 34.7359989 129.550001 34.4120021 129.658 33.998 129.658 33.7279987 129.658 33.497001 129.601001 33.305 129.487 33.1129991 129.372999 32.9540007 129.229001 32.828 129.055 32.7019994 128.880999 32.6105003 128.684501 32.5535 128.4655 32.4964997 128.246499 32.468 128.035001 32.468 127.831L32.468 127.831zM39 125.356L40.854 129.982 40.656 130.504C40.6079998 130.612001 40.5630002 130.711 40.521 130.801 40.4789998 130.891 40.4280003 130.9675 40.368 131.0305 40.3079997 131.0935 40.2375004 131.143 40.1565 131.179 40.0754996 131.215 39.9720006 131.233 39.846 131.233 39.7799997 131.233 39.7155003 131.2285 39.6525 131.2195 39.5894997 131.2105 39.5250003 131.2 39.459 131.188L39.459 131.665C39.5070002 131.683 39.5624997 131.6935 39.6255 131.6965 39.6885003 131.6995 39.7769994 131.704 39.891 131.71 40.0710009 131.71 40.2194994 131.6935 40.3365 131.6605 40.4535006 131.6275 40.5554996 131.5735 40.6425 131.4985 40.7295004 131.4235 40.8089996 131.321501 40.881 131.1925 40.9530004 131.063499 41.0309996 130.900001 41.115 130.702L43.131 125.356 42.564 125.356 41.133 129.316 39.603 125.356 39 125.356zM45.9289992 125.698C46.1990006 125.698 46.4359982 125.754999 46.6399992 125.869 46.8440003 125.983001 47.0134986 126.132999 47.1484992 126.319 47.2834999 126.505001 47.3854989 126.716499 47.4544992 126.9535 47.5234996 127.190501 47.5579992 127.431999 47.5579992 127.678 47.5579992 127.924001 47.5234996 128.165499 47.4544992 128.4025 47.3854989 128.639501 47.2834999 128.850999 47.1484992 129.037 47.0134986 129.223001 46.8440003 129.372999 46.6399992 129.487 46.4359982 129.601001 46.1990006 129.658 45.9289992 129.658 45.6589979 129.658 45.4220003 129.601001 45.2179992 129.487 45.0139982 129.372999 44.8444999 129.223001 44.7094992 129.037 44.5744986 128.850999 44.4724996 128.639501 44.4034992 128.4025 44.3344989 128.165499 44.2999992 127.924001 44.2999992 127.678 44.2999992 127.431999 44.3344989 127.190501 44.4034992 126.9535 44.4724996 126.716499 44.5744986 126.505001 44.7094992 126.319 44.8444999 126.132999 45.0139982 125.983001 45.2179992 125.869 45.4220003 125.754999 45.6589979 125.698 45.9289992 125.698L45.9289992 125.698zM45.8960008 125.221C45.541999 125.221 45.2285021 125.286999 44.9555008 125.419 44.6824994 125.551001 44.4530017 125.727999 44.2670008 125.95 44.0809998 126.172001 43.9400012 126.431499 43.8440008 126.7285 43.7480003 127.025501 43.7000008 127.341998 43.7000008 127.678 43.7000008 128.014002 43.7480003 128.330499 43.8440008 128.6275 43.9400012 128.924501 44.0809998 129.183999 44.2670008 129.406 44.4530017 129.628001 44.6824994 129.803499 44.9555008 129.9325 45.2285021 130.061501 45.541999 130.126 45.8960008 130.126 46.2500025 130.126 46.5634994 130.061501 46.8365008 129.9325 47.1095021 129.803499 47.3389998 129.628001 47.5250008 129.406 47.7110017 129.183999 47.8520003 128.924501 47.9480008 128.6275 48.0440012 128.330499 48.0920008 128.014002 48.0920008 127.678 48.0920008 127.341998 48.0440012 127.025501 47.9480008 126.7285 47.8520003 126.431499 47.7110017 126.172001 47.5250008 125.95 47.3389998 125.727999 47.1095021 125.551001 46.8365008 125.419 46.5634994 125.286999 46.2500025 125.221 45.8960008 125.221L45.8960008 125.221zM52.771 130L52.771 125.356 52.204 125.356 52.204 127.795C52.204 128.029001 52.1770003 128.258499 52.123 128.4835 52.0689997 128.708501 51.9850006 128.907999 51.871 129.082 51.7569994 129.256001 51.6130009 129.395499 51.439 129.5005 51.2649991 129.605501 51.0550012 129.658 50.809 129.658 50.3589978 129.658 50.0425009 129.550001 49.8595 129.334 49.6764991 129.117999 49.5790001 128.800002 49.567 128.38L49.567 125.356 49 125.356 49 128.371C49 128.647001 49.0299997 128.892999 49.09 129.109 49.1500003 129.325001 49.2444994 129.507999 49.3735 129.658 49.5025006 129.808001 49.670499 129.9235 49.8775 130.0045 50.084501 130.0855 50.3349985 130.126 50.629 130.126 50.9770017 130.126 51.2934986 130.043501 51.5785 129.8785 51.8635014 129.713499 52.0809992 129.475002 52.231 129.163L52.249 129.163 52.249 130 52.771 130zM54 125.356L54 130 54.567 130 54.567 127.525C54.567 127.278999 54.6089996 127.052501 54.693 126.8455 54.7770004 126.638499 54.8954992 126.460001 55.0485 126.31 55.2015008 126.159999 55.382999 126.0445 55.593 125.9635 55.8030011 125.8825 56.0369987 125.848 56.295 125.86L56.295 125.293C55.8749979 125.275 55.5135015 125.367999 55.2105 125.572 54.9074985 125.776001 54.6840007 126.066998 54.54 126.445L54.522 126.445 54.522 125.356 54 125.356zM59 125.356L60.494 130 61.115 130 62.249 126.094 62.267 126.094 63.41 130 64.031 130 65.525 125.356 64.922 125.356 63.734 129.334 63.716 129.334 62.582 125.356 61.943 125.356 60.809 129.334 60.791 129.334 59.603 125.356 59 125.356zM68.4800001 125.698C68.7500014 125.698 68.9869991 125.754999 69.1910001 125.869 69.3950011 125.983001 69.5644994 126.132999 69.6995001 126.319 69.8345007 126.505001 69.9364997 126.716499 70.0055001 126.9535 70.0745004 127.190501 70.1090001 127.431999 70.1090001 127.678 70.1090001 127.924001 70.0745004 128.165499 70.0055001 128.4025 69.9364997 128.639501 69.8345007 128.850999 69.6995001 129.037 69.5644994 129.223001 69.3950011 129.372999 69.1910001 129.487 68.9869991 129.601001 68.7500014 129.658 68.4800001 129.658 68.2099987 129.658 67.9730011 129.601001 67.7690001 129.487 67.5649991 129.372999 67.3955007 129.223001 67.2605001 129.037 67.1254994 128.850999 67.0235004 128.639501 66.9545001 128.4025 66.8854997 128.165499 66.8510001 127.924001 66.8510001 127.678 66.8510001 127.431999 66.8854997 127.190501 66.9545001 126.9535 67.0235004 126.716499 67.1254994 126.505001 67.2605001 126.319 67.3955007 126.132999 67.5649991 125.983001 67.7690001 125.869 67.9730011 125.754999 68.2099987 125.698 68.4800001 125.698L68.4800001 125.698zM68.4800001 125.221C68.1259983 125.221 67.8125014 125.286999 67.5395001 125.419 67.2664987 125.551001 67.037001 125.727999 66.8510001 125.95 66.6649991 126.172001 66.5240006 126.431499 66.4280001 126.7285 66.3319996 127.025501 66.2840001 127.341998 66.2840001 127.678 66.2840001 128.014002 66.3319996 128.330499 66.4280001 128.6275 66.5240006 128.924501 66.6649991 129.183999 66.8510001 129.406 67.037001 129.628001 67.2664987 129.803499 67.5395001 129.9325 67.8125014 130.061501 68.1259983 130.126 68.4800001 130.126 68.8340018 130.126 69.1474987 130.061501 69.4205001 129.9325 69.6935014 129.803499 69.9229991 129.628001 70.1090001 129.406 70.295001 129.183999 70.4359996 128.924501 70.5320001 128.6275 70.6280006 128.330499 70.6760001 128.014002 70.6760001 127.678 70.6760001 127.341998 70.6280006 127.025501 70.5320001 126.7285 70.4359996 126.431499 70.295001 126.172001 70.1090001 125.95 69.9229991 125.727999 69.6935014 125.551001 69.4205001 125.419 69.1474987 125.286999 68.8340018 125.221 68.4800001 125.221L68.4800001 125.221zM71.9000015 125.356L71.9000015 130 72.4670015 130 72.4670015 127.525C72.4670015 127.278999 72.5090011 127.052501 72.5930015 126.8455 72.6770019 126.638499 72.7955008 126.460001 72.9485015 126.31 73.1015023 126.159999 73.2830005 126.0445 73.4930015 125.9635 73.7030026 125.8825 73.9370002 125.848 74.1950015 125.86L74.1950015 125.293C73.7749994 125.275 73.413503 125.367999 73.1105015 125.572 72.8075 125.776001 72.5840022 126.066998 72.4400015 126.445L72.4220015 126.445 72.4220015 125.356 71.9000015 125.356zM75 123.574L75 130 75.567 130 75.567 123.574 75 123.574zM80.8539997 130L80.8539997 123.574 80.2869997 123.574 80.2869997 126.238 80.2689997 126.238C80.2089994 126.069999 80.1235002 125.923001 80.0124997 125.797 79.9014991 125.670999 79.7740004 125.5645 79.6299997 125.4775 79.485999 125.3905 79.3315005 125.326 79.1664997 125.284 79.0014989 125.242 78.8320006 125.221 78.6579997 125.221 78.3039979 125.221 77.996501 125.286999 77.7354997 125.419 77.4744984 125.551001 77.2570006 125.729499 77.0829997 125.9545 76.9089988 126.179501 76.7800001 126.440499 76.6959997 126.7375 76.6119993 127.034501 76.5699997 127.347998 76.5699997 127.678 76.5699997 128.008002 76.6119993 128.321499 76.6959997 128.6185 76.7800001 128.915501 76.9089988 129.176499 77.0829997 129.4015 77.2570006 129.626501 77.4744984 129.803499 77.7354997 129.9325 77.996501 130.061501 78.3039979 130.126 78.6579997 130.126 78.8260005 130.126 78.9954988 130.102 79.1664997 130.054 79.3375005 130.006 79.4979989 129.9385 79.6479997 129.8515 79.7980004 129.7645 79.9314991 129.658001 80.0484997 129.532 80.1655003 129.405999 80.2539994 129.268001 80.3139997 129.118L80.3319997 129.118 80.3319997 130 80.8539997 130zM77.1399994 127.678C77.1399994 127.437999 77.1684991 127.199501 77.2254994 126.9625 77.2824997 126.725499 77.3724988 126.514001 77.4954994 126.328 77.6185 126.141999 77.7759984 125.990501 77.9679994 125.8735 78.1600003 125.756499 78.390998 125.698 78.6609994 125.698 78.9610009 125.698 79.2144984 125.756499 79.4214994 125.8735 79.6285004 125.990501 79.7964987 126.141999 79.9254994 126.328 80.0545 126.514001 80.1474991 126.725499 80.2044994 126.9625 80.2614997 127.199501 80.2899994 127.437999 80.2899994 127.678 80.2899994 127.918001 80.2614997 128.156499 80.2044994 128.3935 80.1474991 128.630501 80.0545 128.841999 79.9254994 129.028 79.7964987 129.214001 79.6285004 129.365499 79.4214994 129.4825 79.2144984 129.599501 78.9610009 129.658 78.6609994 129.658 78.390998 129.658 78.1600003 129.599501 77.9679994 129.4825 77.7759984 129.365499 77.6185 129.214001 77.4954994 129.028 77.3724988 128.841999 77.2824997 128.630501 77.2254994 128.3935 77.1684991 128.156499 77.1399994 127.918001 77.1399994 127.678L77.1399994 127.678zM85.0719988 126.715L85.6389988 126.715C85.6269987 126.462999 85.5759992 126.244001 85.4859988 126.058 85.3959983 125.871999 85.2744995 125.716001 85.1214988 125.59 84.968498 125.463999 84.7914998 125.371 84.5904988 125.311 84.3894978 125.251 84.1719999 125.221 83.9379988 125.221 83.7339978 125.221 83.5284998 125.245 83.3214988 125.293 83.1144977 125.341 82.9269996 125.415999 82.7589988 125.518 82.5909979 125.620001 82.4544993 125.754999 82.3494988 125.923 82.2444983 126.091001 82.1919988 126.291999 82.1919988 126.526 82.1919988 126.724001 82.2249984 126.890499 82.2909988 127.0255 82.3569991 127.160501 82.4484982 127.2745 82.5654988 127.3675 82.6824994 127.4605 82.818998 127.5385 82.9749988 127.6015 83.1309996 127.6645 83.3019978 127.72 83.4879988 127.768L84.2169988 127.93C84.3429994 127.96 84.4674982 127.996 84.5904988 128.038 84.7134994 128.08 84.8229983 128.1325 84.9189988 128.1955 85.0149993 128.2585 85.0914985 128.3365 85.1484988 128.4295 85.2054991 128.5225 85.2339988 128.637999 85.2339988 128.776 85.2339988 128.938001 85.1934992 129.074499 85.1124988 129.1855 85.0314984 129.296501 84.9279994 129.388 84.8019988 129.46 84.6759981 129.532 84.5394995 129.583 84.3924988 129.613 84.245498 129.643 84.1029995 129.658 83.9649988 129.658 83.5869969 129.658 83.2705001 129.560501 83.0154988 129.3655 82.7604975 129.170499 82.6209989 128.881002 82.5969988 128.497L82.0299988 128.497C82.077999 129.067003 82.2714971 129.480999 82.6104988 129.739 82.9495005 129.997001 83.391996 130.126 83.9379988 130.126 84.1539999 130.126 84.3729977 130.102 84.5949988 130.054 84.8169999 130.006 85.0164979 129.926501 85.1934988 129.8155 85.3704997 129.704499 85.5159982 129.560501 85.6299988 129.3835 85.7439993 129.206499 85.8009988 128.992001 85.8009988 128.74 85.8009988 128.535999 85.7619992 128.359001 85.6839988 128.209 85.6059984 128.058999 85.5054994 127.933001 85.3824988 127.831 85.2594982 127.728999 85.1184996 127.6465 84.9594988 127.5835 84.800498 127.5205 84.6399996 127.477 84.4779988 127.453L83.7219988 127.282C83.6259983 127.258 83.5209993 127.2265 83.4069988 127.1875 83.2929982 127.1485 83.1879993 127.099 83.0919988 127.039 82.9959983 126.979 82.9164991 126.9055 82.8534988 126.8185 82.7904985 126.7315 82.7589988 126.625001 82.7589988 126.499 82.7589988 126.348999 82.7919984 126.223001 82.8579988 126.121 82.9239991 126.018999 83.0109982 125.9365 83.1189988 125.8735 83.2269993 125.8105 83.3454981 125.7655 83.4744988 125.7385 83.6034994 125.7115 83.7309981 125.698 83.8569988 125.698 84.0189996 125.698 84.1719981 125.7175 84.3159988 125.7565 84.4599995 125.7955 84.5874982 125.857 84.6984988 125.941 84.8094993 126.025 84.8979984 126.131499 84.9639988 126.2605 85.0299991 126.389501 85.0659987 126.540999 85.0719988 126.715L85.0719988 126.715zM87.6761105 123.994616L87.4015479 123.994616C87.3934725 124.172275 87.4170254 124.32436 87.4722074 124.450875 87.5273894 124.57739 87.6061234 124.681022 87.708412 124.761777 87.8107005 124.842531 87.9345216 124.902422 88.079879 124.941454 88.2252364 124.980485 88.3827045 125 88.5522881 125 88.7218718 125 88.867227 124.984522 88.9883581 124.953567 89.1094893 124.922611 89.2111033 124.882234 89.2932033 124.832436 89.3753034 124.782638 89.4399057 124.726784 89.4870122 124.664872 89.5341188 124.602961 89.5704576 124.541723 89.5960297 124.481157 89.6216019 124.420592 89.6377524 124.363392 89.6444819 124.309556 89.6512115 124.25572 89.6545762 124.212652 89.6545762 124.18035 89.6545762 124.061911 89.6350609 123.960969 89.5960297 123.877524 89.5569986 123.794078 89.5031633 123.723419 89.4345223 123.665545 89.3658813 123.607671 89.2864743 123.55922 89.1962989 123.520188 89.1061235 123.481157 89.009893 123.448183 88.9076044 123.421265L88.2050472 123.247645C88.1458275 123.234186 88.0899735 123.216689 88.0374833 123.195155 87.9849931 123.17362 87.9385602 123.145357 87.8981832 123.110363 87.8578061 123.07537 87.8261779 123.032975 87.8032976 122.983176 87.7804172 122.933378 87.7689772 122.874832 87.7689772 122.807537 87.7689772 122.699865 87.7891655 122.609691 87.8295425 122.537012 87.8699196 122.464333 87.9230819 122.405788 87.9890311 122.361373 88.0549803 122.316958 88.1316955 122.284657 88.2191791 122.264468 88.3066627 122.24428 88.3975097 122.234186 88.4917229 122.234186 88.5940114 122.234186 88.6915878 122.248317 88.784455 122.276581 88.8773223 122.304845 88.959421 122.346568 89.0307538 122.40175 89.1020866 122.456932 89.1599595 122.525572 89.2043743 122.607672 89.248789 122.689772 89.2736878 122.786002 89.2790715 122.896366L89.553634 122.896366C89.553634 122.748317 89.5246976 122.618439 89.4668238 122.506729 89.40895 122.39502 89.3315618 122.301481 89.2346569 122.22611 89.137752 122.15074 89.0246979 122.094213 88.8954914 122.056528 88.7662848 122.018842 88.6303508 122 88.4876852 122 88.2857999 122 88.1202565 122.028936 87.9910499 122.08681 87.8618433 122.144684 87.7602293 122.215343 87.6862047 122.298789 87.6121801 122.382235 87.5617095 122.471063 87.5347915 122.565276 87.5078735 122.659489 87.4944147 122.741588 87.4944147 122.811575 87.4944147 122.92463 87.5125841 123.020188 87.5489234 123.09825 87.5852627 123.176313 87.6330415 123.242261 87.6922612 123.296097 87.7514809 123.349933 87.8207938 123.393001 87.900202 123.425303 87.9796102 123.457604 88.061036 123.484522 88.1444819 123.506057L88.7864739 123.663526C88.853769 123.679677 88.9224089 123.700538 88.9923958 123.72611 89.0623827 123.751682 89.1263121 123.784657 89.1841859 123.825034 89.2420596 123.865411 89.2891655 123.915208 89.3255048 123.974428 89.3618442 124.033648 89.3800136 124.103634 89.3800136 124.184388 89.3800136 124.289368 89.3544418 124.378869 89.3032976 124.452894 89.2521533 124.526918 89.1882239 124.587483 89.1115075 124.63459 89.0347911 124.681696 88.9520194 124.716016 88.8631899 124.73755 88.7743604 124.759085 88.6922616 124.769852 88.6168911 124.769852 88.4849927 124.769852 88.3611716 124.757066 88.2454241 124.731494 88.1296765 124.705922 88.0294083 124.663527 87.9446165 124.604307 87.8598247 124.545087 87.7932036 124.46568 87.7447511 124.366083 87.6962987 124.266487 87.6734187 124.142666 87.6761105 123.994616L87.6761105 123.994616zM90.4863393 122.060565L91.4432706 124.588156 92.4365412 122.060565 92.8403097 122.060565 92.8403097 124.943472 92.5657471 124.943472 92.5657471 122.452221 92.5576717 122.452221 91.5724766 124.943472 91.3140647 124.943472 90.3652087 122.452221 90.3571334 122.452221 90.3571334 124.943472 90.0825708 124.943472 90.0825708 122.060565 90.4863393 122.060565z"/>
  </g>
</svg>
