<svg xmlns="http://www.w3.org/2000/svg" width="55" height="65" viewBox="0 0 55 65">
  <g fill="none" fill-rule="evenodd">
    <g transform="translate(8 4)">
      <rect width="39" height="57" fill="#333333"/>
      <path fill="#FFCC00" d="M16.96 35.1L3.5 35.1 3.5 15.12C5.86 21.02 10.56 28.18 16.96 35.1zM35.1 3.5L35.1 19.42C35.08 19.4 35.06 19.38 35.04 19.36 27.78 11.7 20.04 6.06 13.84 3.5L35.1 3.5z"/>
      <path fill="#FFCC00" d="M35.1,20.78 L35.1,23.58 C34.38,22.74 33.64,21.92 32.84,21.1 C24.12,12.06 14.12,7.6 10.5,11.1 C6.86,14.6 10.98,24.76 19.7,33.78 C20.14,34.22 20.58,34.66 21.02,35.1 L18.36,35.1 C7.98,24.64 3.06,12.7 7.36,8.42 C9.93429241,5.85768105 15.239661,6.62856528 21.3106479,9.90441392 C25.3804063,12.1004181 29.7942221,15.4221159 33.96,19.62 C34.36,20 34.74,20.38 35.1,20.78 Z"/>
      <path fill="#FFCC00" d="M35.1,24.98 L35.1,35.1 L30.52,35.1 L26.32,21.74 L22.7,35.1 L22.26,35.1 C21.6,34.5 20.94,33.86 20.3,33.2 C13.2,25.84 10.12,17.32 13.42,14.14 C16.72,10.96 25.14,14.34 32.24,21.68 C33.28,22.76 34.24,23.86 35.1,24.98 Z"/>
      <path fill="#FFFFFF" d="M3.9,39 L6.54,39 L6.54,53 L3.9,53 L3.9,39 Z M9.84,39 L16.08,39 C17.24,39 18.24,39.18 19.08,39.54 C19.92,39.9 20.62,40.4 21.14,41.04 C21.66,41.68 22.08,42.42 22.34,43.26 C22.6,44.1 22.74,45.02 22.74,45.98 C22.74,46.94 22.6,47.86 22.34,48.7 C22.08,49.54 21.68,50.3 21.14,50.92 C20.6,51.56 19.92,52.06 19.08,52.42 C18.24,52.78 17.24,52.96 16.08,52.96 L9.84,52.96 L9.84,39 Z M12.48,51 L15.08,51 C16.1,51 16.94,50.88 17.6,50.62 C18.26,50.36 18.76,50.02 19.14,49.56 C19.52,49.1 19.76,48.58 19.9,47.98 C20.04,47.38 20.1,46.72 20.1,46 C20.1,45.28 20.04,44.64 19.9,44.02 C19.76,43.4 19.52,42.88 19.14,42.44 C18.76,42 18.26,41.64 17.6,41.38 C16.94,41.12 16.1,41 15.08,41 L12.48,41 L12.48,51 L12.48,51 Z M23.32,39 L35.5,39 L35.5,41.12 L30.72,41.12 L30.72,53 L28.08,53 L28.08,41.12 L23.32,41.12 L23.32,39 L23.32,39 Z"/>
    </g>
    <path fill="#333333" d="M53.578,6.618 C53.578,6.30066508 53.5266672,6.00900133 53.424,5.743 C53.3213328,5.47699867 53.1790009,5.24833429 52.997,5.057 C52.8149991,4.86566571 52.6026679,4.71750053 52.36,4.6125 C52.1173321,4.50749948 51.8560014,4.455 51.576,4.455 C51.2913319,4.455 51.0265012,4.50749948 50.7815,4.6125 C50.5364988,4.71750053 50.3230009,4.86566571 50.141,5.057 C49.9589991,5.24833429 49.8166672,5.47699867 49.714,5.743 C49.6113328,6.00900133 49.56,6.30066508 49.56,6.618 C49.56,6.91666816 49.6066662,7.19666536 49.7,7.458 C49.7933338,7.71933464 49.9274991,7.94799902 50.1025,8.144 C50.2775009,8.34000098 50.4886654,8.4951661 50.736,8.6095 C50.9833346,8.72383391 51.2633318,8.781 51.576,8.781 C51.8560014,8.781 52.1173321,8.72850053 52.36,8.6235 C52.6026679,8.51849947 52.8149991,8.37033429 52.997,8.179 C53.1790009,7.98766571 53.3213328,7.76016799 53.424,7.4965 C53.5266672,7.23283201 53.578,6.94000161 53.578,6.618 Z M54.138,6.618 C54.138,7.01000196 54.0691674,7.36699839 53.9315,7.689 C53.7938326,8.01100161 53.6071678,8.28633219 53.3715,8.515 C53.1358322,8.74366781 52.8628349,8.92099937 52.5525,9.047 C52.2421651,9.17300063 51.9166684,9.236 51.576,9.236 C51.1979981,9.236 50.8515016,9.16950067 50.5365,9.0365 C50.2214984,8.90349934 49.9508345,8.7203345 49.7245,8.487 C49.4981655,8.2536655 49.320834,7.97716827 49.1925,7.6575 C49.064166,7.33783174 49,6.9913352 49,6.618 C49,6.22599804 49.0688326,5.86900161 49.2065,5.547 C49.3441674,5.22499839 49.5308322,4.94966781 49.7665,4.721 C50.0021678,4.49233219 50.2763318,4.31500063 50.589,4.189 C50.9016682,4.06299937 51.2306649,4 51.576,4 C51.9166684,4 52.2421651,4.06299937 52.5525,4.189 C52.8628349,4.31500063 53.1358322,4.49233219 53.3715,4.721 C53.6071678,4.94966781 53.7938326,5.22499839 53.9315,5.547 C54.0691674,5.86900161 54.138,6.22599804 54.138,6.618 Z M51.59,6.471 C51.6786671,6.471 51.7638329,6.46750004 51.8455,6.4605 C51.9271671,6.45349997 51.998333,6.43366683 52.059,6.401 C52.119667,6.36833317 52.1686665,6.32283363 52.206,6.2645 C52.2433335,6.20616638 52.262,6.12333387 52.262,6.016 C52.262,5.92733289 52.2421669,5.85733359 52.2025,5.806 C52.1628331,5.75466641 52.112667,5.71500014 52.052,5.687 C51.991333,5.65899986 51.923667,5.64150004 51.849,5.6345 C51.774333,5.62749996 51.7020003,5.624 51.632,5.624 L51.058,5.624 L51.058,6.471 L51.59,6.471 Z M51.058,8.116 L50.582,8.116 L50.582,5.218 L51.681,5.218 C52.0310018,5.218 52.2946658,5.28333268 52.472,5.414 C52.6493342,5.54466732 52.738,5.75699853 52.738,6.051 C52.738,6.31233464 52.6656674,6.50366606 52.521,6.625 C52.3763326,6.74633394 52.1966677,6.81866655 51.982,6.842 L52.794,8.116 L52.255,8.116 L51.506,6.877 L51.058,6.877 L51.058,8.116 Z"/>
  </g>
</svg>
