<svg xmlns="http://www.w3.org/2000/svg" width="39" height="39" viewBox="0 0 39 39">
  <g fill="none" fill-rule="evenodd">
    <rect width="39" height="39" fill="#333333"/>
    <path fill="#FFCC00" d="M16.96 35.1L3.5 35.1 3.5 15.12C5.86 21.02 10.56 28.18 16.96 35.1zM35.1 3.5L35.1 19.42C35.08 19.4 35.06 19.38 35.04 19.36 27.78 11.7 20.04 6.06 13.84 3.5L35.1 3.5z"/>
    <path fill="#FFCC00" d="M35.1,20.78 L35.1,23.58 C34.38,22.74 33.64,21.92 32.84,21.1 C24.12,12.06 14.12,7.6 10.5,11.1 C6.86,14.6 10.98,24.76 19.7,33.78 C20.14,34.22 20.58,34.66 21.02,35.1 L18.36,35.1 C7.98,24.64 3.06,12.7 7.36,8.42 C9.93429241,5.85768105 15.239661,6.62856528 21.3106479,9.90441392 C25.3804063,12.1004181 29.7942221,15.4221159 33.96,19.62 C34.36,20 34.74,20.38 35.1,20.78 Z"/>
    <path fill="#FFCC00" d="M35.1,24.98 L35.1,35.1 L30.52,35.1 L26.32,21.74 L22.7,35.1 L22.26,35.1 C21.6,34.5 20.94,33.86 20.3,33.2 C13.2,25.84 10.12,17.32 13.42,14.14 C16.72,10.96 25.14,14.34 32.24,21.68 C33.28,22.76 34.24,23.86 35.1,24.98 Z"/>
  </g>
</svg>
