<svg xmlns="http://www.w3.org/2000/svg" width="94" height="39" viewBox="0 0 94 39">
  <g fill="none" fill-rule="evenodd">
    <rect width="94" height="39" fill="#333333"/>
    <path fill="#FFCC00" d="M16.96 35.1L3.5 35.1 3.5 15.12C5.86 21.02 10.56 28.18 16.96 35.1zM35.1 3.5L35.1 19.42C35.08 19.4 35.06 19.38 35.04 19.36 27.78 11.7 20.04 6.06 13.84 3.5L35.1 3.5z"/>
    <path fill="#FFCC00" d="M35.1,20.78 L35.1,23.58 C34.38,22.74 33.64,21.92 32.84,21.1 C24.12,12.06 14.12,7.6 10.5,11.1 C6.86,14.6 10.98,24.76 19.7,33.78 C20.14,34.22 20.58,34.66 21.02,35.1 L18.36,35.1 C7.98,24.64 3.06,12.7 7.36,8.42 C9.93429241,5.85768105 15.239661,6.62856528 21.3106479,9.90441392 C25.3804063,12.1004181 29.7942221,15.4221159 33.96,19.62 C34.36,20 34.74,20.38 35.1,20.78 Z"/>
    <path fill="#FFCC00" d="M35.1,24.98 L35.1,35.1 L30.52,35.1 L26.32,21.74 L22.7,35.1 L22.26,35.1 C21.6,34.5 20.94,33.86 20.3,33.2 C13.2,25.84 10.12,17.32 13.42,14.14 C16.72,10.96 25.14,14.34 32.24,21.68 C33.28,22.76 34.24,23.86 35.1,24.98 Z"/>
    <path fill="#FFFFFF" d="M39 3.77848101L43.2607595 3.77848101 43.2607595 26.3734177 39 26.3734177 39 3.77848101zM48.5867089 3.77848101L58.6575949 3.77848101C60.5297468 3.77848101 62.1436709 4.06898734 63.4993671 4.65 64.8550633 5.23101266 65.9848101 6.03797468 66.8240506 7.07088608 67.6632911 8.10379747 68.3411392 9.29810127 68.7607595 10.6537975 69.1803797 12.0094937 69.4063291 13.4943038 69.4063291 15.0436709 69.4063291 16.593038 69.1803797 18.0778481 68.7607595 19.4335443 68.3411392 20.7892405 67.6955696 22.0158228 66.8240506 23.0164557 65.9525316 24.0493671 64.8550633 24.8563291 63.4993671 25.4373418 62.1436709 26.0183544 60.5297468 26.3088608 58.6575949 26.3088608L48.5867089 26.3088608 48.5867089 3.77848101zM52.8474684 23.1455696L57.0436709 23.1455696C58.6898734 23.1455696 60.0455696 22.9518987 61.1107595 22.5322785 62.1759494 22.1126582 62.9829114 21.5639241 63.5962025 20.821519 64.2094937 20.0791139 64.5968354 19.2398734 64.8227848 18.271519 65.0487342 17.3031646 65.1455696 16.2379747 65.1455696 15.0759494 65.1455696 13.9139241 65.0487342 12.8810127 64.8227848 11.8803797 64.5968354 10.8797468 64.2094937 10.0405063 63.5962025 9.33037975 62.9829114 8.62025316 62.1759494 8.03924051 61.1107595 7.61962025 60.0455696 7.2 58.6898734 7.00632911 57.0436709 7.00632911L52.8474684 7.00632911 52.8474684 23.1455696 52.8474684 23.1455696zM70.3424051 3.77848101L90 3.77848101 90 7.2 82.285443 7.2 82.285443 26.3734177 78.0246835 26.3734177 78.0246835 7.2 70.3424051 7.2 70.3424051 3.77848101 70.3424051 3.77848101zM42.3400122 31.591C42.3026787 31.4463326 42.2513459 31.3133339 42.1860122 31.192 42.1206785 31.0706661 42.0366794 30.9656671 41.9340122 30.877 41.831345 30.7883329 41.7111796 30.7195002 41.5735122 30.6705 41.4358449 30.6214998 41.2760131 30.597 41.0940122 30.597 40.8280109 30.597 40.5981798 30.6506661 40.4045122 30.758 40.2108446 30.8653339 40.0533461 31.0088324 39.9320122 31.1885 39.8106783 31.3681676 39.7208458 31.5723322 39.6625122 31.801 39.6041786 32.0296678 39.5750122 32.2629988 39.5750122 32.501 39.5750122 32.7390012 39.6041786 32.9723322 39.6625122 33.201 39.7208458 33.4296678 39.8106783 33.6338324 39.9320122 33.8135 40.0533461 33.9931676 40.2108446 34.1366661 40.4045122 34.244 40.5981798 34.3513339 40.8280109 34.405 41.0940122 34.405 41.2900132 34.405 41.4626781 34.371167 41.6120122 34.3035 41.7613463 34.235833 41.8896783 34.1425006 41.9970122 34.0235 42.1043461 33.9044994 42.1883452 33.7656675 42.2490122 33.607 42.3096792 33.4483325 42.3493454 33.2780009 42.3680122 33.096L43.2220122 33.096C43.2033454 33.3946682 43.1391794 33.6676654 43.0295122 33.915 42.919845 34.1623346 42.7716798 34.3758324 42.5850122 34.5555 42.3983446 34.7351676 42.1790135 34.8739995 41.9270122 34.972 41.6750109 35.0700005 41.3973471 35.119 41.0940122 35.119 40.720677 35.119 40.385847 35.0501674 40.0895122 34.9125 39.7931774 34.7748326 39.5423466 34.5870012 39.3370122 34.349 39.1316778 34.1109988 38.9741794 33.8333349 38.8645122 33.516 38.754845 33.1986651 38.7000122 32.8603351 38.7000122 32.501 38.7000122 32.1463316 38.754845 31.8103349 38.8645122 31.493 38.9741794 31.1756651 39.1316778 30.8980012 39.3370122 30.66 39.5423466 30.4219988 39.7931774 30.2330007 40.0895122 30.093 40.385847 29.9529993 40.720677 29.883 41.0940122 29.883 41.3740136 29.883 41.6376776 29.9214996 41.8850122 29.9985 42.1323468 30.0755004 42.3505113 30.1874993 42.5395122 30.3345 42.7285132 30.4815007 42.881345 30.659999 42.9980122 30.87 43.1146795 31.080001 43.1870121 31.320332 43.2150122 31.591L42.3400122 31.591zM46.1480122 30.597C45.8820109 30.597 45.6521798 30.6506661 45.4585122 30.758 45.2648446 30.8653339 45.1073461 31.0088324 44.9860122 31.1885 44.8646783 31.3681676 44.7748458 31.5723322 44.7165122 31.801 44.6581786 32.0296678 44.6290122 32.2629988 44.6290122 32.501 44.6290122 32.7390012 44.6581786 32.9723322 44.7165122 33.201 44.7748458 33.4296678 44.8646783 33.6338324 44.9860122 33.8135 45.1073461 33.9931676 45.2648446 34.1366661 45.4585122 34.244 45.6521798 34.3513339 45.8820109 34.405 46.1480122 34.405 46.4140135 34.405 46.6438446 34.3513339 46.8375122 34.244 47.0311798 34.1366661 47.1886783 33.9931676 47.3100122 33.8135 47.4313461 33.6338324 47.5211786 33.4296678 47.5795122 33.201 47.6378458 32.9723322 47.6670122 32.7390012 47.6670122 32.501 47.6670122 32.2629988 47.6378458 32.0296678 47.5795122 31.801 47.5211786 31.5723322 47.4313461 31.3681676 47.3100122 31.1885 47.1886783 31.0088324 47.0311798 30.8653339 46.8375122 30.758 46.6438446 30.6506661 46.4140135 30.597 46.1480122 30.597zM46.1480122 29.883C46.5213474 29.883 46.8561774 29.9529993 47.1525122 30.093 47.448847 30.2330007 47.6996778 30.4219988 47.9050122 30.66 48.1103466 30.8980012 48.267845 31.1756651 48.3775122 31.493 48.4871794 31.8103349 48.5420122 32.1463316 48.5420122 32.501 48.5420122 32.8603351 48.4871794 33.1986651 48.3775122 33.516 48.267845 33.8333349 48.1103466 34.1109988 47.9050122 34.349 47.6996778 34.5870012 47.448847 34.7748326 47.1525122 34.9125 46.8561774 35.0501674 46.5213474 35.119 46.1480122 35.119 45.774677 35.119 45.439847 35.0501674 45.1435122 34.9125 44.8471774 34.7748326 44.5963466 34.5870012 44.3910122 34.349 44.1856778 34.1109988 44.0281794 33.8333349 43.9185122 33.516 43.808845 33.1986651 43.7540122 32.8603351 43.7540122 32.501 43.7540122 32.1463316 43.808845 31.8103349 43.9185122 31.493 44.0281794 31.1756651 44.1856778 30.8980012 44.3910122 30.66 44.5963466 30.4219988 44.8471774 30.2330007 45.1435122 30.093 45.439847 29.9529993 45.774677 29.883 46.1480122 29.883zM49.3400122 30.002L51.7270122 30.002C52.2776816 30.002 52.6906775 30.1209988 52.9660122 30.359 53.2413469 30.5970012 53.3790122 30.9283312 53.3790122 31.353 53.3790122 31.5910012 53.3440126 31.7881659 53.2740122 31.9445 53.2040119 32.1008341 53.122346 32.2268329 53.0290122 32.3225 52.9356784 32.4181671 52.8435127 32.4869998 52.7525122 32.529 52.6615118 32.5710002 52.5950124 32.5989999 52.5530122 32.613L52.5530122 32.627C52.6276792 32.6363334 52.7081784 32.6596665 52.7945122 32.697 52.880846 32.7343335 52.9613452 32.7938329 53.0360122 32.8755 53.1106792 32.9571671 53.172512 33.0633327 53.2215122 33.194 53.2705125 33.3246673 53.2950122 33.487999 53.2950122 33.684 53.2950122 33.9780015 53.3171787 34.2451655 53.3615122 34.4855 53.4058458 34.7258345 53.4746784 34.8973328 53.5680122 35L52.6300122 35C52.5646785 34.8926661 52.5261789 34.7736673 52.5145122 34.643 52.5028455 34.5123327 52.4970122 34.3863339 52.4970122 34.265 52.4970122 34.0363322 52.4830123 33.8391675 52.4550122 33.6735 52.4270121 33.5078325 52.3756792 33.3701672 52.3010122 33.2605 52.2263452 33.1508328 52.1248462 33.0703336 51.9965122 33.019 51.8681782 32.9676664 51.7036799 32.942 51.5030122 32.942L50.2150122 32.942 50.2150122 35 49.3400122 35 49.3400122 30.002zM50.2150122 32.277L51.6500122 32.277C51.9300136 32.277 52.1423448 32.2105007 52.2870122 32.0775 52.4316796 31.9444993 52.5040122 31.7450013 52.5040122 31.479 52.5040122 31.3203325 52.4806791 31.1908338 52.4340122 31.0905 52.3873453 30.9901662 52.3231793 30.9120003 52.2415122 30.856 52.1598451 30.7999997 52.0665127 30.7626668 51.9615122 30.744 51.8565117 30.7253332 51.7480128 30.716 51.6360122 30.716L50.2150122 30.716 50.2150122 32.277zM54.2680122 30.002L56.4730122 30.002C56.8276806 30.002 57.1170111 30.0533328 57.3410122 30.156 57.5650133 30.2586672 57.7376783 30.3869992 57.8590122 30.541 57.9803461 30.6950008 58.0631787 30.8629991 58.1075122 31.045 58.1518458 31.2270009 58.1740122 31.3949992 58.1740122 31.549 58.1740122 31.7030008 58.1518458 31.8698324 58.1075122 32.0495 58.0631787 32.2291676 57.9803461 32.3959992 57.8590122 32.55 57.7376783 32.7040008 57.5650133 32.8311662 57.3410122 32.9315 57.1170111 33.0318338 56.8276806 33.082 56.4730122 33.082L55.1430122 33.082 55.1430122 35 54.2680122 35 54.2680122 30.002zM55.1430122 32.368L56.4240122 32.368C56.5220127 32.368 56.622345 32.3540001 56.7250122 32.326 56.8276794 32.2979999 56.9221784 32.2525003 57.0085122 32.1895 57.094846 32.1264997 57.1648453 32.0425005 57.2185122 31.9375 57.2721791 31.8324995 57.2990122 31.7006675 57.2990122 31.542 57.2990122 31.3786658 57.2756791 31.2433339 57.2290122 31.136 57.1823453 31.0286661 57.1193459 30.9435003 57.0400122 30.8805 56.9606785 30.8174997 56.8696794 30.7743335 56.7670122 30.751 56.664345 30.7276666 56.5546795 30.716 56.4380122 30.716L55.1430122 30.716 55.1430122 32.368zM61.0650122 30.597C60.7990109 30.597 60.5691798 30.6506661 60.3755122 30.758 60.1818446 30.8653339 60.0243461 31.0088324 59.9030122 31.1885 59.7816783 31.3681676 59.6918458 31.5723322 59.6335122 31.801 59.5751786 32.0296678 59.5460122 32.2629988 59.5460122 32.501 59.5460122 32.7390012 59.5751786 32.9723322 59.6335122 33.201 59.6918458 33.4296678 59.7816783 33.6338324 59.9030122 33.8135 60.0243461 33.9931676 60.1818446 34.1366661 60.3755122 34.244 60.5691798 34.3513339 60.7990109 34.405 61.0650122 34.405 61.3310135 34.405 61.5608446 34.3513339 61.7545122 34.244 61.9481798 34.1366661 62.1056783 33.9931676 62.2270122 33.8135 62.3483461 33.6338324 62.4381786 33.4296678 62.4965122 33.201 62.5548458 32.9723322 62.5840122 32.7390012 62.5840122 32.501 62.5840122 32.2629988 62.5548458 32.0296678 62.4965122 31.801 62.4381786 31.5723322 62.3483461 31.3681676 62.2270122 31.1885 62.1056783 31.0088324 61.9481798 30.8653339 61.7545122 30.758 61.5608446 30.6506661 61.3310135 30.597 61.0650122 30.597zM61.0650122 29.883C61.4383474 29.883 61.7731774 29.9529993 62.0695122 30.093 62.365847 30.2330007 62.6166778 30.4219988 62.8220122 30.66 63.0273466 30.8980012 63.184845 31.1756651 63.2945122 31.493 63.4041794 31.8103349 63.4590122 32.1463316 63.4590122 32.501 63.4590122 32.8603351 63.4041794 33.1986651 63.2945122 33.516 63.184845 33.8333349 63.0273466 34.1109988 62.8220122 34.349 62.6166778 34.5870012 62.365847 34.7748326 62.0695122 34.9125 61.7731774 35.0501674 61.4383474 35.119 61.0650122 35.119 60.691677 35.119 60.356847 35.0501674 60.0605122 34.9125 59.7641774 34.7748326 59.5133466 34.5870012 59.3080122 34.349 59.1026778 34.1109988 58.9451794 33.8333349 58.8355122 33.516 58.725845 33.1986651 58.6710122 32.8603351 58.6710122 32.501 58.6710122 32.1463316 58.725845 31.8103349 58.8355122 31.493 58.9451794 31.1756651 59.1026778 30.8980012 59.3080122 30.66 59.5133466 30.4219988 59.7641774 30.2330007 60.0605122 30.093 60.356847 29.9529993 60.691677 29.883 61.0650122 29.883zM64.2570122 30.002L66.6440122 30.002C67.1946816 30.002 67.6076775 30.1209988 67.8830122 30.359 68.1583469 30.5970012 68.2960122 30.9283312 68.2960122 31.353 68.2960122 31.5910012 68.2610126 31.7881659 68.1910122 31.9445 68.1210119 32.1008341 68.039346 32.2268329 67.9460122 32.3225 67.8526784 32.4181671 67.7605127 32.4869998 67.6695122 32.529 67.5785118 32.5710002 67.5120124 32.5989999 67.4700122 32.613L67.4700122 32.627C67.5446792 32.6363334 67.6251784 32.6596665 67.7115122 32.697 67.797846 32.7343335 67.8783452 32.7938329 67.9530122 32.8755 68.0276792 32.9571671 68.089512 33.0633327 68.1385122 33.194 68.1875125 33.3246673 68.2120122 33.487999 68.2120122 33.684 68.2120122 33.9780015 68.2341787 34.2451655 68.2785122 34.4855 68.3228458 34.7258345 68.3916784 34.8973328 68.4850122 35L67.5470122 35C67.4816785 34.8926661 67.4431789 34.7736673 67.4315122 34.643 67.4198455 34.5123327 67.4140122 34.3863339 67.4140122 34.265 67.4140122 34.0363322 67.4000123 33.8391675 67.3720122 33.6735 67.3440121 33.5078325 67.2926792 33.3701672 67.2180122 33.2605 67.1433452 33.1508328 67.0418462 33.0703336 66.9135122 33.019 66.7851782 32.9676664 66.6206799 32.942 66.4200122 32.942L65.1320122 32.942 65.1320122 35 64.2570122 35 64.2570122 30.002zM65.1320122 32.277L66.5670122 32.277C66.8470136 32.277 67.0593448 32.2105007 67.2040122 32.0775 67.3486796 31.9444993 67.4210122 31.7450013 67.4210122 31.479 67.4210122 31.3203325 67.3976791 31.1908338 67.3510122 31.0905 67.3043453 30.9901662 67.2401793 30.9120003 67.1585122 30.856 67.0768451 30.7999997 66.9835127 30.7626668 66.8785122 30.744 66.7735117 30.7253332 66.6650128 30.716 66.5530122 30.716L65.1320122 30.716 65.1320122 32.277zM70.5220122 30.002L71.4530122 30.002 73.3780122 35 72.4400122 35 71.9710122 33.677 69.9760122 33.677 69.5070122 35 68.6040122 35 70.5220122 30.002zM70.2140122 33.012L71.7400122 33.012 70.9910122 30.863 70.9700122 30.863 70.2140122 33.012zM73.3780122 30.002L77.4240122 30.002 77.4240122 30.758 75.8350122 30.758 75.8350122 35 74.9600122 35 74.9600122 30.758 73.3780122 30.758 73.3780122 30.002zM78.0050122 30.002L78.8800122 30.002 78.8800122 35 78.0050122 35 78.0050122 30.002zM82.0790122 30.597C81.8130109 30.597 81.5831798 30.6506661 81.3895122 30.758 81.1958446 30.8653339 81.0383461 31.0088324 80.9170122 31.1885 80.7956783 31.3681676 80.7058458 31.5723322 80.6475122 31.801 80.5891786 32.0296678 80.5600122 32.2629988 80.5600122 32.501 80.5600122 32.7390012 80.5891786 32.9723322 80.6475122 33.201 80.7058458 33.4296678 80.7956783 33.6338324 80.9170122 33.8135 81.0383461 33.9931676 81.1958446 34.1366661 81.3895122 34.244 81.5831798 34.3513339 81.8130109 34.405 82.0790122 34.405 82.3450135 34.405 82.5748446 34.3513339 82.7685122 34.244 82.9621798 34.1366661 83.1196783 33.9931676 83.2410122 33.8135 83.3623461 33.6338324 83.4521786 33.4296678 83.5105122 33.201 83.5688458 32.9723322 83.5980122 32.7390012 83.5980122 32.501 83.5980122 32.2629988 83.5688458 32.0296678 83.5105122 31.801 83.4521786 31.5723322 83.3623461 31.3681676 83.2410122 31.1885 83.1196783 31.0088324 82.9621798 30.8653339 82.7685122 30.758 82.5748446 30.6506661 82.3450135 30.597 82.0790122 30.597zM82.0790122 29.883C82.4523474 29.883 82.7871774 29.9529993 83.0835122 30.093 83.379847 30.2330007 83.6306778 30.4219988 83.8360122 30.66 84.0413466 30.8980012 84.198845 31.1756651 84.3085122 31.493 84.4181794 31.8103349 84.4730122 32.1463316 84.4730122 32.501 84.4730122 32.8603351 84.4181794 33.1986651 84.3085122 33.516 84.198845 33.8333349 84.0413466 34.1109988 83.8360122 34.349 83.6306778 34.5870012 83.379847 34.7748326 83.0835122 34.9125 82.7871774 35.0501674 82.4523474 35.119 82.0790122 35.119 81.705677 35.119 81.370847 35.0501674 81.0745122 34.9125 80.7781774 34.7748326 80.5273466 34.5870012 80.3220122 34.349 80.1166778 34.1109988 79.9591794 33.8333349 79.8495122 33.516 79.739845 33.1986651 79.6850122 32.8603351 79.6850122 32.501 79.6850122 32.1463316 79.739845 31.8103349 79.8495122 31.493 79.9591794 31.1756651 80.1166778 30.8980012 80.3220122 30.66 80.5273466 30.4219988 80.7781774 30.2330007 81.0745122 30.093 81.370847 29.9529993 81.705677 29.883 82.0790122 29.883zM85.2360122 30.002L86.1600122 30.002 88.4420122 33.684 88.4560122 33.684 88.4560122 30.002 89.2890122 30.002 89.2890122 35 88.3650122 35 86.0900122 31.325 86.0690122 31.325 86.0690122 35 85.2360122 35 85.2360122 30.002z"/>
  </g>
</svg>
